<svg width="1081" height="1080" viewBox="0 0 1081 1080" fill="none" xmlns="http://www.w3.org/2000/svg">
<g clip-path="url(#clip0_51_1099)">
<path d="M1078.62 -1.78H1.12988V1075.71H1078.62V-1.78Z" fill="#FFE1F1"/>
<path d="M235.04 881.09H948.34" stroke="#E20A29" stroke-miterlimit="10"/>
<path d="M948.34 881.09V863.26" stroke="#E20A29" stroke-miterlimit="10"/>
<path d="M235.04 881.09V167.8" stroke="#E20A29" stroke-miterlimit="10"/>
<path d="M235.04 738.43H252.88" stroke="#E20A29" stroke-miterlimit="10"/>
<path d="M235.04 595.78H252.88" stroke="#E20A29" stroke-miterlimit="10"/>
<path d="M235.04 453.12H252.88" stroke="#E20A29" stroke-miterlimit="10"/>
<path d="M235.04 310.46H252.88" stroke="#E20A29" stroke-miterlimit="10"/>
<path d="M235.04 167.8H252.88" stroke="#E20A29" stroke-miterlimit="10"/>
<path d="M368.93 898.67C368.93 900.04 367.85 900.76 366.84 900.76C366.17 900.76 365.42 900.42 365.24 899.64C365.82 899.41 366.1 898.94 366.1 898.49C366.1 897.95 365.72 897.45 365.06 897.45C363.42 897.45 362.58 900.6 362.34 902.11L360.81 911.7C360.38 914.33 360.18 915.57 362.32 915.57L362.3 915.75H353.81L353.83 915.57C355.52 915.57 355.97 914.33 356.35 911.7L357.12 906.48C357.32 905.11 357.84 903.82 358.55 902.66C355.14 906.59 352.39 911.03 349.85 915.94L345.86 902.67L344.54 910.74C343.8 915.26 341.46 917.78 337.99 917.78C334.93 917.78 332.72 916.23 332.72 913.28C332.72 910.74 334.84 908.96 337.36 908.96C339.45 908.96 341.79 910.29 341.79 912.54C341.79 914.18 340.55 915.33 338.93 915.33C337.31 915.33 336.48 914.05 336.88 912.67C338.23 912.65 338.97 911.61 338.97 910.67C338.97 909.9 338.52 909.18 337.19 909.18C335.05 909.18 333.63 910.87 333.63 913.23C333.63 915.77 335.07 917.55 337.97 917.55C341.35 917.55 343.57 915.07 344.29 910.69L345.44 903.67C345.64 902.39 345.67 900.83 345.06 900C346.07 900.29 348.35 900.41 349.7 900.34V900.32C346.73 900.32 344.3 898.11 341.49 898.11C338.29 898.11 338.5 901.28 340.61 901.28C341.22 901.28 341.85 900.99 342.19 900.38C343.14 900.83 343.45 901.59 343.45 902.32C343.45 904.07 342.01 904.95 340.55 904.95C338.95 904.95 337.29 903.94 337.29 901.87C337.29 899.55 339.02 897.89 341.5 897.89C342.94 897.89 344.27 898.45 345.57 898.99C346.92 899.55 348.25 900.09 349.71 900.09C350.21 900.09 350.45 899.89 350.45 899.57C350.45 899.25 350.22 899.1 349.98 899.1C349.82 899.1 349.71 899.17 349.6 899.28C349.33 899.1 349.24 898.81 349.24 898.58C349.24 897.88 349.87 897.5 350.48 897.5C351.09 897.5 351.67 897.86 351.67 898.6C351.67 899.64 350.81 900.15 350.12 900.27L352.92 910.01C354.93 906.78 357.13 903.79 359.69 901.06C361.87 898.44 364.88 896.75 366.69 896.75C368.27 896.75 368.94 897.74 368.94 898.66L368.93 898.67Z" fill="#E20A29"/>
<path d="M374.84 910.84C374.34 913.68 374.3 915.27 375.29 915.66V915.75C374.71 915.86 374.17 915.91 373.62 915.91C371.71 915.91 370.02 915.1 370.69 912.29L371.52 908.82L371.43 908.8C370.01 914.4 368.28 915.93 366.25 915.93C363.89 915.93 363.05 913.81 363.05 911.74C363.05 907.62 366.61 903.73 370.68 903.73C371.99 903.73 372.86 904.65 374.17 904.65C374.73 904.65 375.5 904.45 376.02 903.86L374.83 910.84H374.84ZM367.14 912.91C367.14 913.83 367.34 914.69 367.93 914.69C369.28 914.69 370.77 911.25 371.37 907.87L371.62 906.5C371.8 905.51 372 903.96 370.81 903.96C368.69 903.96 367.14 909.32 367.14 912.92V912.91ZM368.94 901.21C368.94 899.88 370.22 898.71 371.66 898.71C372.85 898.71 373.71 899.52 373.71 900.55C373.71 901.86 372.43 903.05 370.99 903.05C369.77 903.05 368.94 902.24 368.94 901.2V901.21ZM373.53 900.56C373.53 899.61 372.74 898.89 371.66 898.89C370.31 898.89 369.12 899.99 369.12 901.21C369.12 902.18 369.91 902.88 370.99 902.88C372.32 902.88 373.53 901.78 373.53 900.56Z" fill="#E20A29"/>
<path d="M388.56 910.84C388.09 913.68 388.02 915.27 389.01 915.66V915.75C388.43 915.86 387.89 915.91 387.34 915.91C385.43 915.91 383.87 915.15 384.32 912.29L385.24 906.53C385.42 905.47 385.37 904.95 384.81 904.95C383.57 904.95 382.06 907.58 381.23 910.94C380.85 912.49 380.22 915.28 380.98 915.67V915.76C380.19 915.87 379.56 915.94 379.02 915.94C377.24 915.94 376.43 915.18 376.93 912.41L378.15 905.59C378.31 904.71 377.95 904.6 377.2 904.76V904.67C377.99 904.22 379.56 903.79 380.64 903.79C381.92 903.79 382.49 904.29 382.13 905.79L380.89 910.88H380.98C382.49 905.14 384.69 903.75 386.72 903.75C389.53 903.75 389.35 906.11 389.08 907.67L388.54 910.87L388.56 910.84Z" fill="#E20A29"/>
<path d="M479.39 900.08C477.63 903.52 475.63 904.81 473.45 904.81C472.49 904.81 471.49 904.56 470.47 904.17C469.76 904.48 469.32 905.58 469.04 907.31L468 913.72C467.57 916.38 467.62 917.59 469.8 917.59L469.78 917.77H460.46L460.48 917.59C462.66 917.59 463.11 916.38 463.54 913.72L464.46 907.96C464.93 905.11 468.32 904.24 470.27 904.09C466.89 902.74 463.35 899.97 460.3 899.97C458.43 899.97 457.69 900.96 457.69 901.88C457.69 902.71 458.23 903.3 459.24 903.3C460.01 903.3 460.64 903.01 460.97 902.4C461.92 902.85 462.23 903.62 462.23 904.34C462.23 906.1 460.79 906.97 459.33 906.97C457.73 906.97 456.07 905.96 456.11 903.71C456.18 899.61 460.9 899.23 464.57 899.23C468.24 899.23 473.57 900.94 476.63 900.94C477.67 900.94 478.47 900.78 479.29 900.04L479.38 900.08H479.39Z" fill="#E20A29"/>
<path d="M477.04 914.31L478.23 907.6C478.39 906.72 478.05 906.61 477.28 906.77V906.68C478.07 906.23 479.64 905.8 480.72 905.8C482.14 905.8 482.41 906.41 482.16 907.8L481.26 912.89C480.76 915.73 480.72 917.3 481.71 917.68V917.77C481.13 917.88 480.59 917.93 480.04 917.93C478.15 917.93 476.51 917.17 477.02 914.31H477.04ZM479.22 904.86C479.69 904.12 479.92 902.41 479.24 901.55C479.78 900.56 480.82 900 481.74 900C482.6 900 483.61 900.45 483.61 901.71C483.61 903.46 481.58 905.02 479.27 904.93L479.23 904.86H479.22Z" fill="#E20A29"/>
<path d="M482.64 915.48C482.64 914.53 483.45 913.61 484.58 913.61C485.37 913.61 486.25 914.11 486.2 915.12C485.64 915.28 485.23 915.89 485.23 916.52C485.23 917.15 485.77 917.74 487.44 917.74C488.5 917.74 490.64 917.47 490.64 916.05C490.64 913.28 483.62 913.78 483.62 909.93C483.62 907.14 487.02 905.77 489.88 905.77C491.73 905.77 494.09 906.22 494.09 907.95C494.09 908.94 493.32 909.62 492.4 909.62C491.61 909.62 490.82 909.15 490.82 908.22C491.32 908.09 491.74 907.61 491.74 907.07C491.74 906.35 490.95 905.99 489.83 905.99C488.59 905.99 487.08 906.44 487.08 907.68C487.08 910.52 493.99 909.68 493.99 913.55C493.99 916.61 490.32 917.96 487.37 917.96C485.19 917.96 482.64 917.31 482.64 915.48Z" fill="#E20A29"/>
<path d="M577.17 899.3C582.55 899.3 584.93 902.81 584.93 906.55C584.93 913.26 580.05 917.78 573.7 917.78C569.76 917.78 566.75 915.42 566.75 911.36C566.75 908.03 567.96 905.44 569.99 903.57C570.54 901.19 573.14 899.3 577.17 899.3ZM573.79 917.55C577.35 917.55 580.41 910.37 580.41 904.45C580.41 902.22 579.55 899.61 576.29 899.61C573.6 899.61 571 901.05 570.29 903.3C571.93 901.9 574.06 900.94 576.49 900.4V900.51C574.18 901.68 572.74 904.53 571.95 907.53C572.52 907.81 573.2 907.96 573.93 907.96C575.12 907.96 575.84 907.24 575.84 906.11C575.84 905.12 575.17 904.42 574.22 904.4C574.06 903.03 575.34 901.99 576.63 901.99C578.23 901.99 579.13 903 579.13 904.29C579.13 906.61 576.47 908.18 574.2 908.18C573.37 908.18 572.58 908.03 571.9 907.72C571.4 909.68 571.18 911.69 571.18 913.31C571.18 915.85 572.01 917.54 573.79 917.54V917.55Z" fill="#E20A29"/>
<path d="M597.48 910.84C597.01 913.68 596.94 915.27 597.93 915.66V915.75C597.35 915.86 596.81 915.91 596.26 915.91C594.35 915.91 592.79 915.15 593.24 912.29L594.16 906.53C594.34 905.47 594.29 904.95 593.73 904.95C592.49 904.95 590.98 907.58 590.15 910.94C589.77 912.49 589.14 915.28 589.9 915.67V915.76C589.11 915.87 588.48 915.94 587.94 915.94C586.16 915.94 585.35 915.18 585.85 912.41L587.07 905.59C587.23 904.71 586.87 904.6 586.12 904.76V904.67C586.91 904.22 588.48 903.79 589.56 903.79C590.84 903.79 591.41 904.29 591.05 905.79L589.81 910.88H589.9C591.41 905.14 593.61 903.75 595.64 903.75C598.45 903.75 598.27 906.11 598 907.67L597.46 910.87L597.48 910.84Z" fill="#E20A29"/>
<path d="M598.85 913.46C598.85 912.51 599.66 911.59 600.79 911.59C601.58 911.59 602.46 912.09 602.41 913.1C601.85 913.26 601.44 913.87 601.44 914.5C601.44 915.13 601.98 915.72 603.65 915.72C604.71 915.72 606.85 915.45 606.85 914.03C606.85 911.26 599.83 911.76 599.83 907.91C599.83 905.12 603.23 903.75 606.09 903.75C607.94 903.75 610.3 904.2 610.3 905.93C610.3 906.92 609.53 907.6 608.61 907.6C607.82 907.6 607.03 907.13 607.03 906.2C607.53 906.07 607.95 905.59 607.95 905.05C607.95 904.33 607.16 903.97 606.04 903.97C604.8 903.97 603.29 904.42 603.29 905.66C603.29 908.5 610.2 907.66 610.2 911.53C610.2 914.59 606.53 915.94 603.58 915.94C601.4 915.94 598.85 915.29 598.85 913.46Z" fill="#E20A29"/>
<path d="M705.17 898.06C703.41 901.5 701.41 902.79 699.23 902.79C698.27 902.79 697.27 902.54 696.25 902.15C695.54 902.46 695.1 903.56 694.82 905.29L693.78 911.7C693.35 914.36 693.4 915.57 695.58 915.57L695.56 915.75H686.24L686.26 915.57C688.44 915.57 688.89 914.36 689.32 911.7L690.24 905.94C690.71 903.09 694.1 902.22 696.05 902.07C692.67 900.72 689.13 897.95 686.08 897.95C684.21 897.95 683.47 898.94 683.47 899.86C683.47 900.69 684.01 901.28 685.02 901.28C685.79 901.28 686.42 900.99 686.75 900.38C687.7 900.83 688.01 901.6 688.01 902.32C688.01 904.08 686.57 904.95 685.11 904.95C683.51 904.95 681.85 903.94 681.89 901.69C681.96 897.59 686.68 897.21 690.35 897.21C694.02 897.21 699.35 898.92 702.41 898.92C703.45 898.92 704.25 898.76 705.07 898.02L705.16 898.06H705.17Z" fill="#E20A29"/>
<path d="M710.43 908.84C710.43 912.58 707.05 915.93 703.05 915.93C699.83 915.93 697.6 913.79 697.6 910.82C697.6 906.97 700.91 903.73 704.96 903.73C708.2 903.73 710.43 905.87 710.43 908.84ZM706.31 906.52C706.31 905.19 706.06 903.95 704.94 903.95C702.46 903.95 701.72 910.84 701.72 913.18C701.72 914.51 701.97 915.7 703.07 915.7C705.57 915.7 706.31 909.17 706.31 906.52Z" fill="#E20A29"/>
<path d="M711.42 912.4L712.64 905.58C712.8 904.7 712.44 904.59 711.69 904.75V904.66C712.48 904.21 714.05 903.78 715.13 903.78C716.41 903.78 716.98 904.28 716.62 905.78L715.38 910.87H715.47C716.98 905.15 718.62 903.65 720.83 903.65C722.88 903.65 723.67 905.09 723.67 906.37C723.67 908.08 722.5 909.34 720.88 909.34C719.6 909.34 718.67 908.55 718.7 907.25C719.53 907.14 720.34 906.51 720.34 905.58C720.34 904.84 719.98 904.5 719.46 904.5C718.06 904.5 716.69 907.04 715.72 910.94C715.34 912.49 714.71 915.28 715.47 915.67V915.76C714.68 915.87 714.05 915.94 713.51 915.94C711.73 915.94 710.92 915.18 711.42 912.41V912.4Z" fill="#E20A29"/>
<path d="M723.05 913.46C723.05 912.51 723.86 911.59 724.99 911.59C725.78 911.59 726.66 912.09 726.61 913.1C726.05 913.26 725.64 913.87 725.64 914.5C725.64 915.13 726.18 915.72 727.85 915.72C728.91 915.72 731.05 915.45 731.05 914.03C731.05 911.26 724.03 911.76 724.03 907.91C724.03 905.12 727.43 903.75 730.29 903.75C732.14 903.75 734.5 904.2 734.5 905.93C734.5 906.92 733.73 907.6 732.81 907.6C732.02 907.6 731.23 907.13 731.23 906.2C731.73 906.07 732.15 905.59 732.15 905.05C732.15 904.33 731.36 903.97 730.24 903.97C729 903.97 727.49 904.42 727.49 905.66C727.49 908.5 734.4 907.66 734.4 911.53C734.4 914.59 730.73 915.94 727.78 915.94C725.6 915.94 723.05 915.29 723.05 913.46Z" fill="#E20A29"/>
<path d="M820.78 900L820.42 905.42H820.24C820.42 901.95 818.51 900.18 816.19 900.18C814.1 900.18 813.56 901.4 813.24 903.38L812.58 907.61C815.48 907.61 816.96 906.41 817.45 904.1H817.63L816.08 911.37H815.88C816.35 909.2 815.37 907.81 812.55 907.79L812.03 911.12C811.13 916.86 805.05 917.78 802.56 917.78C799.5 917.78 797.29 916.23 797.29 913.28C797.29 910.74 799.41 908.96 801.93 908.96C804.02 908.96 806.36 910.29 806.36 912.54C806.36 914.18 805.12 915.33 803.5 915.33C801.88 915.33 801.05 914.05 801.45 912.67C802.8 912.65 803.54 911.61 803.54 910.67C803.54 909.9 803.09 909.18 801.76 909.18C799.62 909.18 798.2 910.87 798.2 913.23C798.2 915.77 799.64 917.55 802.54 917.55C804.95 917.55 806.86 915.59 807.45 911.7L808.62 904.03C809.07 901.06 812.36 900.43 814.27 900.34V900.32C811.3 900.32 808.87 898.11 806.06 898.11C802.86 898.11 803.07 901.28 805.18 901.28C805.79 901.28 806.42 900.99 806.76 900.38C807.71 900.83 808.02 901.6 808.02 902.32C808.02 904.08 806.58 904.95 805.12 904.95C803.52 904.95 801.86 903.94 801.86 901.87C801.86 899.55 803.59 897.89 806.07 897.89C807.51 897.89 808.84 898.45 810.14 898.99C811.49 899.55 812.82 900.09 814.28 900.09C814.78 900.09 815.02 899.89 815.02 899.57C815.02 899.25 814.79 899.1 814.55 899.1C814.39 899.1 814.28 899.17 814.17 899.28C813.9 899.1 813.81 898.81 813.81 898.58C813.81 897.88 814.44 897.5 815.05 897.5C815.66 897.5 816.24 897.86 816.24 898.6C816.24 899.34 815.74 899.58 815.14 899.99H820.79L820.78 900Z" fill="#E20A29"/>
<path d="M820.57 912.4L821.79 905.58C821.95 904.7 821.59 904.59 820.84 904.75V904.66C821.63 904.21 823.2 903.78 824.28 903.78C825.56 903.78 826.13 904.28 825.77 905.78L824.53 910.87H824.62C826.13 905.15 827.77 903.65 829.98 903.65C832.03 903.65 832.82 905.09 832.82 906.37C832.82 908.08 831.65 909.34 830.03 909.34C828.75 909.34 827.82 908.55 827.85 907.25C828.68 907.14 829.49 906.51 829.49 905.58C829.49 904.84 829.13 904.5 828.61 904.5C827.21 904.5 825.84 907.04 824.87 910.94C824.49 912.49 823.86 915.28 824.62 915.67V915.76C823.83 915.87 823.2 915.94 822.66 915.94C820.88 915.94 820.07 915.18 820.57 912.41V912.4Z" fill="#E20A29"/>
<path d="M832.65 911.07C832.65 907.15 835.67 903.73 839.96 903.73C841.81 903.75 844.37 904.2 844.37 906.3C844.37 907.97 842.12 909.59 837.06 908.66L837.1 908.46C839.76 908.66 841.04 906.75 841.04 905.35C841.04 904.54 840.73 903.95 839.96 903.95C838.07 903.95 836.81 906.97 836.81 909.4C836.81 911.83 838.03 913.16 839.85 913.2C841.04 913.22 842.64 912.86 843.65 911.47L843.81 911.54C842.28 914.31 839.85 915.93 837.22 915.93C834.59 915.93 832.65 914.06 832.65 911.07Z" fill="#E20A29"/>
<path d="M201 884.24C201 876.38 206.92 869.96 214.17 869.96C220.12 869.96 223.56 874.04 223.56 879.62C223.56 887.48 217.64 893.9 210.39 893.9C204.47 893.9 201 889.86 201 884.24ZM216.51 874.88C216.51 871.7 215.74 870.23 214.14 870.23C211.2 870.23 208.09 879.89 208.09 888.98C208.09 892.12 208.83 893.63 210.43 893.63C213.37 893.63 216.51 883.97 216.51 874.88Z" fill="#E20A29"/>
<path d="M174.65 742.92L174.88 742.95C173.68 746.73 171.8 751.24 167.32 751.24C163.64 751.24 155.69 747.36 154.32 749.23C154.22 749.8 154.12 750.33 154.09 750.97H153.86C154.36 744.59 159.11 741.94 163.15 739.37C167.09 736.86 169.3 733.69 169.3 730.51C169.3 728.74 168.4 727.57 166.56 727.57C164.32 727.57 162.55 729.24 162.55 731.28C162.55 732.22 163.02 732.75 163.62 733.12C163.15 735.06 161.51 736.13 159.84 736.13C157.97 736.13 156.9 735.09 156.9 733.39C156.9 728.71 163.05 727.31 166.6 727.31C172.92 727.31 175.99 729.12 175.99 732.19C175.99 735.87 172.41 738.84 166.19 740.38C162.71 741.24 158.87 741.95 156.35 744.98C157.68 743.54 159.42 743.09 161.08 743.09C164.36 743.09 167.47 745.23 171.01 745.23C172.85 745.23 174.02 744.53 174.65 742.92Z" fill="#E20A29"/>
<path d="M176.82 741.58C176.82 733.72 182.74 727.3 189.99 727.3C195.94 727.3 199.38 731.38 199.38 736.96C199.38 744.82 193.46 751.24 186.21 751.24C180.29 751.24 176.82 747.2 176.82 741.58ZM192.33 732.22C192.33 729.04 191.56 727.57 189.96 727.57C187.02 727.57 183.91 737.23 183.91 746.32C183.91 749.46 184.65 750.97 186.25 750.97C189.19 750.97 192.33 741.31 192.33 732.22Z" fill="#E20A29"/>
<path d="M201 741.58C201 733.72 206.92 727.3 214.17 727.3C220.12 727.3 223.56 731.38 223.56 736.96C223.56 744.82 217.64 751.24 210.39 751.24C204.47 751.24 201 747.2 201 741.58ZM216.51 732.22C216.51 729.04 215.74 727.57 214.14 727.57C211.2 727.57 208.09 737.23 208.09 746.32C208.09 749.46 208.83 750.97 210.43 750.97C213.37 750.97 216.51 741.31 216.51 732.22Z" fill="#E20A29"/>
<path d="M160.1 608.31L160.13 608.04C163.47 608.04 163.87 606.2 164.41 602.29L164.51 601.55H153.71L153.74 601.35C156.88 600.51 164.97 595.87 164.97 591.72C164.97 590.42 163.83 589.78 162.73 589.78C161.56 589.78 160.36 590.28 159.85 591.38C157.91 591.28 156.84 590.04 156.84 588.61C156.84 586.44 158.91 584.63 161.32 584.63C164.26 584.63 165.33 587 165.33 589.88C165.33 593.02 163.62 598.74 161.85 601.28H164.52L166.19 590.85C168 588.94 169.47 586.74 170.34 584.9H174.02L171.41 601.28H175.05L175.02 601.55H171.38L171.28 602.29C170.74 606.2 170.34 608.04 173.69 608.04L173.66 608.31H160.09H160.1Z" fill="#E20A29"/>
<path d="M176.82 598.92C176.82 591.06 182.74 584.64 189.99 584.64C195.94 584.64 199.38 588.72 199.38 594.3C199.38 602.16 193.46 608.58 186.21 608.58C180.29 608.58 176.82 604.54 176.82 598.92ZM192.33 589.56C192.33 586.38 191.56 584.91 189.96 584.91C187.02 584.91 183.91 594.57 183.91 603.66C183.91 606.8 184.65 608.31 186.25 608.31C189.19 608.31 192.33 598.65 192.33 589.56Z" fill="#E20A29"/>
<path d="M201 598.92C201 591.06 206.92 584.64 214.17 584.64C220.12 584.64 223.56 588.72 223.56 594.3C223.56 602.16 217.64 608.58 210.39 608.58C204.47 608.58 201 604.54 201 598.92ZM216.51 589.56C216.51 586.38 215.74 584.91 214.14 584.91C211.2 584.91 208.09 594.57 208.09 603.66C208.09 606.8 208.83 608.31 210.43 608.31C213.37 608.31 216.51 598.65 216.51 589.56Z" fill="#E20A29"/>
<path d="M162.2 452.49C168.05 449.73 174.44 451.77 174.44 456.9C174.44 462.03 169.39 465.93 163.41 465.93C157.43 465.93 154.38 462.02 154.38 456.6C154.38 448.38 160.2 441.99 167.65 441.99C170.46 441.99 175.11 442.83 175.11 446.54C175.11 449.01 173.44 450.82 171.13 450.82C169.39 450.82 168.09 449.82 168.25 447.81C169.15 447.34 170.06 446.44 170.06 444.87C170.06 443.3 168.76 442.26 167.62 442.26C165.47 442.26 163.33 446.65 162.2 452.49ZM163.44 465.66C165.75 465.66 167.79 461.15 167.79 455.96C167.79 451.81 165.62 451.14 162.14 452.8C161.66 455.4 161.37 458.28 161.37 461.18C161.37 464.26 162.07 465.66 163.44 465.66Z" fill="#E20A29"/>
<path d="M176.82 456.26C176.82 448.4 182.74 441.98 189.99 441.98C195.94 441.98 199.38 446.06 199.38 451.64C199.38 459.5 193.46 465.92 186.21 465.92C180.29 465.92 176.82 461.87 176.82 456.26ZM192.33 446.9C192.33 443.72 191.56 442.25 189.96 442.25C187.02 442.25 183.91 451.91 183.91 461.01C183.91 464.15 184.65 465.66 186.25 465.66C189.19 465.66 192.33 456 192.33 446.9Z" fill="#E20A29"/>
<path d="M201 456.26C201 448.4 206.92 441.98 214.17 441.98C220.12 441.98 223.56 446.06 223.56 451.64C223.56 459.5 217.64 465.92 210.39 465.92C204.47 465.92 201 461.87 201 456.26ZM216.51 446.9C216.51 443.72 215.74 442.25 214.14 442.25C211.2 442.25 208.09 451.91 208.09 461.01C208.09 464.15 208.83 465.66 210.43 465.66C213.37 465.66 216.51 456 216.51 446.9Z" fill="#E20A29"/>
<path d="M170.21 308.8C172.54 310.12 174.55 311.8 174.55 314.61C174.55 319.66 169.67 323.27 162.88 323.27C158.57 323.27 154.35 322.03 154.35 318.56C154.35 315.43 157 313.46 160.1 312.29C158.49 311.1 157.29 309.58 157.29 307.4C157.29 302.82 161.74 299.34 167.65 299.34C170.99 299.34 174.57 300.48 174.57 303.29C174.57 305.27 173.1 307.19 170.2 308.81L170.21 308.8ZM168.77 318.82C168.77 315.93 163.69 314.83 160.29 312.41C157.93 313.88 156.5 316.01 156.5 318.15C156.5 320.82 159.01 323 162.92 323C166.3 323 168.77 321.23 168.77 318.82ZM167.63 299.6C165.16 299.6 163.05 301.27 163.05 303.24C163.05 305.74 166.8 306.9 170.02 308.69C171.64 307.32 172.68 305.32 172.68 303.54C172.68 301.4 171.04 299.6 167.63 299.6Z" fill="#E20A29"/>
<path d="M176.82 313.6C176.82 305.74 182.74 299.32 189.99 299.32C195.94 299.32 199.38 303.4 199.38 308.98C199.38 316.84 193.46 323.26 186.21 323.26C180.29 323.26 176.82 319.21 176.82 313.6ZM192.33 304.24C192.33 301.06 191.56 299.59 189.96 299.59C187.02 299.59 183.91 309.25 183.91 318.35C183.91 321.49 184.65 323 186.25 323C189.19 323 192.33 313.34 192.33 304.24Z" fill="#E20A29"/>
<path d="M201 313.6C201 305.74 206.92 299.32 214.17 299.32C220.12 299.32 223.56 303.4 223.56 308.98C223.56 316.84 217.64 323.26 210.39 323.26C204.47 323.26 201 319.21 201 313.6ZM216.51 304.24C216.51 301.06 215.74 299.59 214.14 299.59C211.2 299.59 208.09 309.25 208.09 318.35C208.09 321.49 208.83 323 210.43 323C213.37 323 216.51 313.34 216.51 304.24Z" fill="#E20A29"/>
<path d="M146.83 174.32C146.23 178.16 145.86 180.07 149.24 180.07L149.21 180.34H135.64L135.67 180.07C138.95 180.07 139.28 178.36 139.92 174.32L141.67 163.27C140.46 164.51 139.08 165.6 137.68 166.4L137.61 166.2C141.45 164.13 144.26 160.05 145.9 156.94H149.58L146.84 174.32H146.83Z" fill="#E20A29"/>
<path d="M152.65 170.94C152.65 163.08 158.57 156.66 165.82 156.66C171.77 156.66 175.21 160.74 175.21 166.32C175.21 174.18 169.29 180.6 162.04 180.6C156.12 180.6 152.65 176.55 152.65 170.94ZM168.16 161.58C168.16 158.4 167.39 156.93 165.79 156.93C162.85 156.93 159.74 166.59 159.74 175.69C159.74 178.83 160.48 180.34 162.08 180.34C165.02 180.34 168.16 170.68 168.16 161.58Z" fill="#E20A29"/>
<path d="M176.82 170.94C176.82 163.08 182.74 156.66 189.99 156.66C195.94 156.66 199.38 160.74 199.38 166.32C199.38 174.18 193.46 180.6 186.21 180.6C180.29 180.6 176.82 176.55 176.82 170.94ZM192.33 161.58C192.33 158.4 191.56 156.93 189.96 156.93C187.02 156.93 183.91 166.59 183.91 175.69C183.91 178.83 184.65 180.34 186.25 180.34C189.19 180.34 192.33 170.68 192.33 161.58Z" fill="#E20A29"/>
<path d="M201 170.94C201 163.08 206.92 156.66 214.17 156.66C220.12 156.66 223.56 160.74 223.56 166.32C223.56 174.18 217.64 180.6 210.39 180.6C204.47 180.6 201 176.55 201 170.94ZM216.51 161.58C216.51 158.4 215.74 156.93 214.14 156.93C211.2 156.93 208.09 166.59 208.09 175.69C208.09 178.83 208.83 180.34 210.43 180.34C213.37 180.34 216.51 170.68 216.51 161.58Z" fill="#E20A29"/>
<path d="M311.87 713.82L320.37 879.72H404L414.83 713.82H311.87Z" fill="white" stroke="#E20A29" stroke-miterlimit="10"/>
<path d="M363.35 732.84C391.782 732.84 414.83 724.325 414.83 713.82C414.83 703.316 391.782 694.8 363.35 694.8C334.919 694.8 311.87 703.316 311.87 713.82C311.87 724.325 334.919 732.84 363.35 732.84Z" fill="white" stroke="#E20A29" stroke-miterlimit="10"/>
<path d="M362.19 727.34C385.281 727.34 404 721.426 404 714.13C404 706.834 385.281 700.92 362.19 700.92C339.099 700.92 320.38 706.834 320.38 714.13C320.38 721.426 339.099 727.34 362.19 727.34Z" fill="#E20A29"/>
<path d="M372.18 732.91C372.18 737.92 368.12 741.99 363.1 741.99C358.09 741.99 354.02 737.93 354.02 732.91" fill="#E20A29"/>
<path d="M326.9 728.32C324.03 732.43 318.36 733.43 314.26 730.55C310.15 727.68 309.15 722.01 312.03 717.91" fill="#E20A29"/>
<path d="M400.11 728.25C402.99 732.35 408.65 733.35 412.76 730.47C416.87 727.59 417.86 721.93 414.98 717.82" fill="#E20A29"/>
<path d="M387.21 731.18C387.78 736.16 384.19 740.66 379.21 741.22C374.23 741.78 369.73 738.2 369.17 733.22" fill="#E20A29"/>
<path d="M402.94 726.79C404.3 731.62 401.49 736.63 396.67 737.99C391.84 739.35 386.83 736.54 385.47 731.72" fill="#E20A29"/>
<path d="M339.92 731.39C339.35 736.37 342.94 740.87 347.92 741.43C352.9 742 357.4 738.41 357.96 733.43" fill="#E20A29"/>
<path d="M324.19 727C322.83 731.83 325.64 736.84 330.46 738.2C335.29 739.56 340.3 736.75 341.66 731.93" fill="#E20A29"/>
<path d="M350.7 775.54L350.34 780.96H350.16C350.34 777.49 348.43 775.72 346.11 775.72C344.02 775.72 343.48 776.94 343.16 778.92L342.5 783.15C345.4 783.15 346.88 781.95 347.37 779.64H347.55L346 786.91H345.8C346.27 784.74 345.29 783.35 342.47 783.33L341.95 786.66C341.05 792.4 334.97 793.32 332.48 793.32C329.42 793.32 327.21 791.77 327.21 788.82C327.21 786.28 329.33 784.5 331.85 784.5C333.94 784.5 336.28 785.83 336.28 788.08C336.28 789.72 335.04 790.87 333.42 790.87C331.8 790.87 330.97 789.59 331.37 788.21C332.72 788.19 333.46 787.15 333.46 786.21C333.46 785.44 333.01 784.72 331.68 784.72C329.54 784.72 328.12 786.41 328.12 788.77C328.12 791.31 329.56 793.09 332.46 793.09C334.87 793.09 336.78 791.13 337.37 787.24L338.54 779.57C338.99 776.6 342.28 775.97 344.19 775.88V775.86C341.22 775.86 338.79 773.65 335.98 773.65C332.78 773.65 332.99 776.82 335.1 776.82C335.71 776.82 336.34 776.53 336.68 775.92C337.63 776.37 337.94 777.14 337.94 777.86C337.94 779.62 336.5 780.49 335.04 780.49C333.44 780.49 331.78 779.48 331.78 777.41C331.78 775.09 333.51 773.43 335.99 773.43C337.43 773.43 338.76 773.99 340.06 774.53C341.41 775.09 342.74 775.63 344.2 775.63C344.7 775.63 344.94 775.43 344.94 775.11C344.94 774.79 344.71 774.64 344.47 774.64C344.31 774.64 344.2 774.71 344.09 774.82C343.82 774.64 343.73 774.35 343.73 774.12C343.73 773.42 344.36 773.04 344.97 773.04C345.58 773.04 346.16 773.4 346.16 774.14C346.16 774.88 345.66 775.12 345.06 775.53H350.71L350.7 775.54Z" fill="#E20A29"/>
<path d="M360.75 786.39C360.25 789.23 360.21 790.82 361.2 791.21V791.3C360.62 791.41 360.08 791.46 359.53 791.46C357.62 791.46 355.93 790.65 356.6 787.84L357.43 784.37L357.34 784.35C355.92 789.95 354.19 791.48 352.16 791.48C349.8 791.48 348.96 789.36 348.96 787.29C348.96 783.17 352.52 779.28 356.59 779.28C357.9 779.28 358.77 780.2 360.08 780.2C360.64 780.2 361.41 780 361.93 779.41L360.74 786.39H360.75ZM353.05 788.46C353.05 789.38 353.25 790.24 353.84 790.24C355.19 790.24 356.68 786.8 357.28 783.42L357.53 782.05C357.71 781.06 357.91 779.51 356.72 779.51C354.6 779.51 353.05 784.87 353.05 788.47V788.46Z" fill="#E20A29"/>
<path d="M374.48 786.39C374.01 789.23 373.94 790.82 374.93 791.21V791.3C374.35 791.41 373.81 791.46 373.26 791.46C371.35 791.46 369.79 790.7 370.24 787.84L371.16 782.08C371.34 781.02 371.29 780.5 370.73 780.5C369.49 780.5 367.98 783.13 367.15 786.49C366.77 788.04 366.14 790.83 366.9 791.22V791.31C366.11 791.42 365.48 791.49 364.94 791.49C363.16 791.49 362.35 790.73 362.85 787.96L364.07 781.14C364.23 780.26 363.87 780.15 363.12 780.31V780.22C363.91 779.77 365.48 779.34 366.56 779.34C367.84 779.34 368.41 779.84 368.05 781.34L366.81 786.43H366.9C368.41 780.69 370.61 779.3 372.64 779.3C375.45 779.3 375.27 781.66 375 783.22L374.46 786.42L374.48 786.39Z" fill="#E20A29"/>
<path d="M377.56 779.68H376.55L376.59 779.45C379.83 779.45 381.59 778.39 382.15 775.2H382.38L381.66 779.45H383.24L383.19 779.68H381.64L380.52 786.5C380.02 789.56 380 790.82 381.22 791.2V791.29C380.41 791.4 379.87 791.45 379.33 791.45C377.42 791.45 375.86 790.69 376.31 787.83L377.57 779.68H377.56Z" fill="#E20A29"/>
<path d="M394.07 786.39C393.57 789.23 393.53 790.82 394.52 791.21V791.3C393.94 791.41 393.4 791.46 392.85 791.46C390.94 791.46 389.25 790.65 389.92 787.84L390.75 784.37L390.66 784.35C389.24 789.95 387.51 791.48 385.48 791.48C383.12 791.48 382.28 789.36 382.28 787.29C382.28 783.17 385.84 779.28 389.91 779.28C391.22 779.28 392.09 780.2 393.4 780.2C393.96 780.2 394.73 780 395.25 779.41L394.06 786.39H394.07ZM386.37 788.46C386.37 789.38 386.57 790.24 387.16 790.24C388.51 790.24 390 786.8 390.6 783.42L390.85 782.05C391.03 781.06 391.23 779.51 390.04 779.51C387.92 779.51 386.37 784.87 386.37 788.47V788.46Z" fill="#E20A29"/>
<path d="M327.53 820.28C326.4 820.28 325.64 820.75 325.01 821.47L324.85 821.36C326.81 819.13 327.69 818.21 328.09 815.37L328.83 810.24C329.62 804.75 335.56 800.52 338.4 800.52C339.98 800.52 340.65 801.51 340.65 802.43C340.65 803.8 339.57 804.52 338.56 804.52C337.88 804.52 337.14 804.18 336.96 803.4C337.54 803.18 337.82 802.7 337.82 802.25C337.82 801.71 337.44 801.21 336.78 801.21C335.14 801.21 334.3 804.36 334.06 805.87L332.91 813.05C332.21 817.37 329.08 816.72 325.84 820.52L325.86 820.54C327.73 818.81 329.33 817.73 331.28 817.73C335.92 817.73 340.96 821.06 344.83 821.06C345.8 821.06 346.61 820.77 347.15 820.07L347.24 820.11C346.11 823.51 343.8 824.59 341.41 824.59C336.62 824.59 330.61 820.27 327.52 820.27L327.53 820.28Z" fill="#E20A29"/>
<path d="M337.32 813.61C337.32 809.69 340.34 806.27 344.63 806.27C346.48 806.29 349.04 806.74 349.04 808.84C349.04 810.51 346.79 812.13 341.73 811.2L341.77 811C344.43 811.2 345.71 809.29 345.71 807.89C345.71 807.08 345.4 806.49 344.63 806.49C342.74 806.49 341.48 809.51 341.48 811.94C341.48 814.37 342.7 815.7 344.52 815.74C345.71 815.76 347.31 815.4 348.32 814.01L348.48 814.08C346.95 816.85 344.52 818.47 341.89 818.47C339.26 818.47 337.32 816.6 337.32 813.61Z" fill="#E20A29"/>
<path d="M349.87 814.94L351.09 808.12C351.25 807.24 350.89 807.13 350.14 807.29V807.2C350.93 806.75 352.5 806.32 353.58 806.32C354.86 806.32 355.43 806.82 355.07 808.32L353.83 813.41H353.92C355.43 807.67 357.63 806.28 359.43 806.28C362.24 806.28 362.09 808.67 361.73 810.2L360.96 813.42H361.05C362.56 807.68 364.76 806.29 366.56 806.29C369.37 806.29 369.19 808.65 368.92 810.21L368.38 813.41C367.91 816.25 367.84 817.84 368.83 818.23V818.32C368.25 818.43 367.7 818.48 367.16 818.48C365.25 818.48 363.69 817.72 364.14 814.86L365.06 809.1C365.24 808.04 365.19 807.52 364.63 807.52C363.62 807.52 362.11 810.15 361.28 813.51C360.9 815.06 360.27 817.85 361.03 818.24V818.33C360.24 818.44 359.61 818.51 359.07 818.51C357.29 818.51 356.53 817.75 356.98 814.98L357.93 809.11C358.11 808.05 358.06 807.53 357.5 807.53C356.49 807.53 354.98 810.16 354.15 813.52C353.77 815.07 353.14 817.86 353.9 818.25V818.34C353.11 818.45 352.48 818.52 351.94 818.52C350.16 818.52 349.35 817.76 349.85 814.99L349.87 814.94Z" fill="#E20A29"/>
<path d="M382.9 811.39C382.9 815.13 379.52 818.48 375.52 818.48C372.3 818.48 370.07 816.34 370.07 813.37C370.07 809.52 373.38 806.28 377.43 806.28C380.67 806.28 382.9 808.42 382.9 811.39ZM378.78 809.07C378.78 807.74 378.53 806.5 377.41 806.5C374.93 806.5 374.19 813.39 374.19 815.73C374.19 817.06 374.44 818.25 375.54 818.25C378.04 818.25 378.78 811.72 378.78 809.07Z" fill="#E20A29"/>
<path d="M395.5 813.39C395.03 816.23 394.96 817.82 395.95 818.21V818.3C395.37 818.41 394.83 818.46 394.28 818.46C392.37 818.46 390.81 817.7 391.26 814.84L392.18 809.08C392.36 808.02 392.31 807.5 391.75 807.5C390.51 807.5 389 810.13 388.17 813.49C387.79 815.04 387.16 817.83 387.92 818.22V818.31C387.13 818.42 386.5 818.49 385.96 818.49C384.18 818.49 383.37 817.73 383.87 814.96L385.09 808.14C385.25 807.26 384.89 807.15 384.14 807.31V807.22C384.93 806.77 386.5 806.34 387.58 806.34C388.86 806.34 389.43 806.84 389.07 808.34L387.83 813.43H387.92C389.43 807.69 391.63 806.3 393.66 806.3C396.47 806.3 396.29 808.66 396.02 810.22L395.48 813.42L395.5 813.39Z" fill="#E20A29"/>
<path d="M425.46 713.82L433.96 879.72H517.59L528.41 713.82H425.46Z" fill="white" stroke="#E20A29" stroke-miterlimit="10"/>
<path d="M476.94 732.84C505.372 732.84 528.42 724.325 528.42 713.82C528.42 703.316 505.372 694.8 476.94 694.8C448.508 694.8 425.46 703.316 425.46 713.82C425.46 724.325 448.508 732.84 476.94 732.84Z" fill="white" stroke="#E20A29" stroke-miterlimit="10"/>
<path d="M475.77 727.34C498.861 727.34 517.58 721.426 517.58 714.13C517.58 706.834 498.861 700.92 475.77 700.92C452.679 700.92 433.96 706.834 433.96 714.13C433.96 721.426 452.679 727.34 475.77 727.34Z" fill="#E20A29"/>
<path d="M485.76 732.91C485.76 737.92 481.7 741.99 476.68 741.99C471.67 741.99 467.6 737.93 467.6 732.91" fill="#E20A29"/>
<path d="M440.49 728.32C437.62 732.43 431.95 733.43 427.85 730.55C423.74 727.68 422.74 722.01 425.62 717.91" fill="#E20A29"/>
<path d="M513.7 728.25C516.58 732.35 522.24 733.35 526.35 730.47C530.45 727.59 531.45 721.93 528.57 717.82" fill="#E20A29"/>
<path d="M500.8 731.18C501.37 736.16 497.78 740.66 492.8 741.22C487.82 741.78 483.32 738.2 482.76 733.22" fill="#E20A29"/>
<path d="M516.53 726.79C517.89 731.62 515.08 736.63 510.26 737.99C505.43 739.35 500.42 736.54 499.06 731.72" fill="#E20A29"/>
<path d="M453.51 731.39C452.94 736.37 456.53 740.87 461.51 741.43C466.49 742 470.99 738.41 471.55 733.43" fill="#E20A29"/>
<path d="M437.78 727C436.42 731.83 439.23 736.84 444.05 738.2C448.88 739.56 453.89 736.75 455.25 731.93" fill="#E20A29"/>
<path d="M464.29 775.54L463.93 780.96H463.75C463.93 777.49 462.02 775.72 459.7 775.72C457.61 775.72 457.07 776.94 456.75 778.92L456.09 783.15C458.99 783.15 460.47 781.95 460.96 779.64H461.14L459.59 786.91H459.39C459.86 784.74 458.88 783.35 456.06 783.33L455.54 786.66C454.64 792.4 448.56 793.32 446.07 793.32C443.01 793.32 440.8 791.77 440.8 788.82C440.8 786.28 442.92 784.5 445.44 784.5C447.53 784.5 449.87 785.83 449.87 788.08C449.87 789.72 448.63 790.87 447.01 790.87C445.39 790.87 444.56 789.59 444.96 788.21C446.31 788.19 447.05 787.15 447.05 786.21C447.05 785.44 446.6 784.72 445.27 784.72C443.13 784.72 441.71 786.41 441.71 788.77C441.71 791.31 443.15 793.09 446.05 793.09C448.46 793.09 450.37 791.13 450.96 787.24L452.13 779.57C452.58 776.6 455.87 775.97 457.78 775.88V775.86C454.81 775.86 452.38 773.65 449.57 773.65C446.37 773.65 446.58 776.82 448.69 776.82C449.3 776.82 449.93 776.53 450.27 775.92C451.22 776.37 451.53 777.14 451.53 777.86C451.53 779.62 450.09 780.49 448.63 780.49C447.03 780.49 445.37 779.48 445.37 777.41C445.37 775.09 447.1 773.43 449.58 773.43C451.02 773.43 452.35 773.99 453.65 774.53C455 775.09 456.33 775.63 457.79 775.63C458.29 775.63 458.53 775.43 458.53 775.11C458.53 774.79 458.3 774.64 458.06 774.64C457.9 774.64 457.79 774.71 457.68 774.82C457.41 774.64 457.32 774.35 457.32 774.12C457.32 773.42 457.95 773.04 458.56 773.04C459.17 773.04 459.75 773.4 459.75 774.14C459.75 774.88 459.25 775.12 458.65 775.53H464.3L464.29 775.54Z" fill="#E20A29"/>
<path d="M474.34 786.39C473.84 789.23 473.8 790.82 474.79 791.21V791.3C474.21 791.41 473.67 791.46 473.12 791.46C471.21 791.46 469.52 790.65 470.19 787.84L471.02 784.37L470.93 784.35C469.51 789.95 467.78 791.48 465.75 791.48C463.39 791.48 462.55 789.36 462.55 787.29C462.55 783.17 466.11 779.28 470.18 779.28C471.49 779.28 472.36 780.2 473.67 780.2C474.23 780.2 475 780 475.52 779.41L474.33 786.39H474.34ZM466.64 788.46C466.64 789.38 466.84 790.24 467.43 790.24C468.78 790.24 470.27 786.8 470.87 783.42L471.12 782.05C471.3 781.06 471.5 779.51 470.31 779.51C468.19 779.51 466.64 784.87 466.64 788.47V788.46Z" fill="#E20A29"/>
<path d="M488.06 786.39C487.59 789.23 487.52 790.82 488.51 791.21V791.3C487.93 791.41 487.39 791.46 486.84 791.46C484.93 791.46 483.37 790.7 483.82 787.84L484.74 782.08C484.92 781.02 484.87 780.5 484.31 780.5C483.07 780.5 481.56 783.13 480.73 786.49C480.35 788.04 479.72 790.83 480.48 791.22V791.31C479.69 791.42 479.06 791.49 478.52 791.49C476.74 791.49 475.93 790.73 476.43 787.96L477.65 781.14C477.81 780.26 477.45 780.15 476.7 780.31V780.22C477.49 779.77 479.06 779.34 480.14 779.34C481.42 779.34 481.99 779.84 481.63 781.34L480.39 786.43H480.48C481.99 780.69 484.19 779.3 486.22 779.3C489.03 779.3 488.85 781.66 488.58 783.22L488.04 786.42L488.06 786.39Z" fill="#E20A29"/>
<path d="M491.14 779.68H490.13L490.17 779.45C493.41 779.45 495.17 778.39 495.73 775.2H495.96L495.24 779.45H496.82L496.77 779.68H495.22L494.1 786.5C493.6 789.56 493.58 790.82 494.8 791.2V791.29C493.99 791.4 493.45 791.45 492.91 791.45C491 791.45 489.44 790.69 489.89 787.83L491.15 779.68H491.14Z" fill="#E20A29"/>
<path d="M507.66 786.39C507.16 789.23 507.12 790.82 508.11 791.21V791.3C507.53 791.41 506.99 791.46 506.44 791.46C504.53 791.46 502.84 790.65 503.51 787.84L504.34 784.37L504.25 784.35C502.83 789.95 501.1 791.48 499.07 791.48C496.71 791.48 495.87 789.36 495.87 787.29C495.87 783.17 499.43 779.28 503.5 779.28C504.81 779.28 505.68 780.2 506.99 780.2C507.55 780.2 508.32 780 508.84 779.41L507.65 786.39H507.66ZM499.96 788.46C499.96 789.38 500.16 790.24 500.75 790.24C502.1 790.24 503.59 786.8 504.19 783.42L504.44 782.05C504.62 781.06 504.82 779.51 503.63 779.51C501.51 779.51 499.96 784.87 499.96 788.47V788.46Z" fill="#E20A29"/>
<path d="M441.12 820.28C439.99 820.28 439.23 820.75 438.6 821.47L438.44 821.36C440.4 819.13 441.28 818.21 441.68 815.37L442.42 810.24C443.21 804.75 449.15 800.52 451.99 800.52C453.57 800.52 454.24 801.51 454.24 802.43C454.24 803.8 453.16 804.52 452.15 804.52C451.47 804.52 450.73 804.18 450.55 803.4C451.13 803.18 451.41 802.7 451.41 802.25C451.41 801.71 451.03 801.21 450.37 801.21C448.73 801.21 447.89 804.36 447.65 805.87L446.5 813.05C445.8 817.37 442.67 816.72 439.43 820.52L439.45 820.54C441.32 818.81 442.92 817.73 444.87 817.73C449.51 817.73 454.55 821.06 458.42 821.06C459.39 821.06 460.2 820.77 460.74 820.07L460.83 820.11C459.7 823.51 457.39 824.59 455 824.59C450.21 824.59 444.2 820.27 441.11 820.27L441.12 820.28Z" fill="#E20A29"/>
<path d="M450.9 813.61C450.9 809.69 453.92 806.27 458.21 806.27C460.06 806.29 462.62 806.74 462.62 808.84C462.62 810.51 460.37 812.13 455.31 811.2L455.35 811C458.01 811.2 459.29 809.29 459.29 807.89C459.29 807.08 458.98 806.49 458.21 806.49C456.32 806.49 455.06 809.51 455.06 811.94C455.06 814.37 456.28 815.7 458.1 815.74C459.29 815.76 460.89 815.4 461.9 814.01L462.06 814.08C460.53 816.85 458.1 818.47 455.47 818.47C452.84 818.47 450.9 816.6 450.9 813.61Z" fill="#E20A29"/>
<path d="M463.46 814.94L464.68 808.12C464.84 807.24 464.48 807.13 463.73 807.29V807.2C464.52 806.75 466.09 806.32 467.17 806.32C468.45 806.32 469.02 806.82 468.66 808.32L467.42 813.41H467.51C469.02 807.67 471.22 806.28 473.02 806.28C475.83 806.28 475.68 808.67 475.32 810.2L474.55 813.42H474.64C476.15 807.68 478.35 806.29 480.15 806.29C482.96 806.29 482.78 808.65 482.51 810.21L481.97 813.41C481.5 816.25 481.43 817.84 482.42 818.23V818.32C481.84 818.43 481.29 818.48 480.75 818.48C478.84 818.48 477.28 817.72 477.73 814.86L478.65 809.1C478.83 808.04 478.78 807.52 478.22 807.52C477.21 807.52 475.7 810.15 474.87 813.51C474.49 815.06 473.86 817.85 474.62 818.24V818.33C473.83 818.44 473.2 818.51 472.66 818.51C470.88 818.51 470.12 817.75 470.57 814.98L471.52 809.11C471.7 808.05 471.65 807.53 471.09 807.53C470.08 807.53 468.57 810.16 467.74 813.52C467.36 815.07 466.73 817.86 467.49 818.25V818.34C466.7 818.45 466.07 818.52 465.53 818.52C463.75 818.52 462.94 817.76 463.44 814.99L463.46 814.94Z" fill="#E20A29"/>
<path d="M496.49 811.39C496.49 815.13 493.11 818.48 489.11 818.48C485.89 818.48 483.66 816.34 483.66 813.37C483.66 809.52 486.97 806.28 491.02 806.28C494.26 806.28 496.49 808.42 496.49 811.39ZM492.37 809.07C492.37 807.74 492.12 806.5 491 806.5C488.52 806.5 487.78 813.39 487.78 815.73C487.78 817.06 488.03 818.25 489.13 818.25C491.63 818.25 492.37 811.72 492.37 809.07Z" fill="#E20A29"/>
<path d="M509.09 813.39C508.62 816.23 508.55 817.82 509.54 818.21V818.3C508.96 818.41 508.42 818.46 507.87 818.46C505.96 818.46 504.4 817.7 504.85 814.84L505.77 809.08C505.95 808.02 505.9 807.5 505.34 807.5C504.1 807.5 502.59 810.13 501.76 813.49C501.38 815.04 500.75 817.83 501.51 818.22V818.31C500.72 818.42 500.09 818.49 499.55 818.49C497.77 818.49 496.96 817.73 497.46 814.96L498.68 808.14C498.84 807.26 498.48 807.15 497.73 807.31V807.22C498.52 806.77 500.09 806.34 501.17 806.34C502.45 806.34 503.02 806.84 502.66 808.34L501.42 813.43H501.51C503.02 807.69 505.22 806.3 507.25 806.3C510.06 806.3 509.88 808.66 509.61 810.22L509.07 813.42L509.09 813.39Z" fill="#E20A29"/>
<path d="M539.85 713.82L548.35 879.72H631.98L642.8 713.82H539.85Z" fill="white" stroke="#E20A29" stroke-miterlimit="10"/>
<path d="M591.32 732.84C619.752 732.84 642.8 724.325 642.8 713.82C642.8 703.316 619.752 694.8 591.32 694.8C562.888 694.8 539.84 703.316 539.84 713.82C539.84 724.325 562.888 732.84 591.32 732.84Z" fill="white" stroke="#E20A29" stroke-miterlimit="10"/>
<path d="M590.16 727.34C613.251 727.34 631.97 721.426 631.97 714.13C631.97 706.834 613.251 700.92 590.16 700.92C567.069 700.92 548.35 706.834 548.35 714.13C548.35 721.426 567.069 727.34 590.16 727.34Z" fill="#E20A29"/>
<path d="M600.15 732.91C600.15 737.92 596.09 741.99 591.07 741.99C586.06 741.99 581.99 737.93 581.99 732.91" fill="#E20A29"/>
<path d="M554.88 728.32C552.01 732.43 546.34 733.43 542.24 730.55C538.13 727.68 537.13 722.01 540.01 717.91" fill="#E20A29"/>
<path d="M628.09 728.25C630.97 732.35 636.63 733.35 640.74 730.47C644.84 727.59 645.84 721.93 642.96 717.82" fill="#E20A29"/>
<path d="M615.18 731.18C615.75 736.16 612.16 740.66 607.18 741.22C602.2 741.78 597.7 738.2 597.14 733.22" fill="#E20A29"/>
<path d="M630.91 726.79C632.27 731.62 629.46 736.63 624.64 737.99C619.81 739.35 614.8 736.54 613.44 731.72" fill="#E20A29"/>
<path d="M567.9 731.39C567.33 736.37 570.92 740.87 575.9 741.43C580.88 742 585.38 738.41 585.94 733.43" fill="#E20A29"/>
<path d="M552.17 727C550.81 731.83 553.62 736.84 558.44 738.2C563.27 739.56 568.28 736.75 569.64 731.93" fill="#E20A29"/>
<path d="M578.67 775.54L578.31 780.96H578.13C578.31 777.49 576.4 775.72 574.08 775.72C571.99 775.72 571.45 776.94 571.13 778.92L570.47 783.15C573.37 783.15 574.85 781.95 575.34 779.64H575.52L573.97 786.91H573.77C574.24 784.74 573.26 783.35 570.44 783.33L569.92 786.66C569.02 792.4 562.94 793.32 560.45 793.32C557.39 793.32 555.18 791.77 555.18 788.82C555.18 786.28 557.3 784.5 559.82 784.5C561.91 784.5 564.25 785.83 564.25 788.08C564.25 789.72 563.01 790.87 561.39 790.87C559.77 790.87 558.94 789.59 559.34 788.21C560.69 788.19 561.43 787.15 561.43 786.21C561.43 785.44 560.98 784.72 559.65 784.72C557.51 784.72 556.09 786.41 556.09 788.77C556.09 791.31 557.53 793.09 560.43 793.09C562.84 793.09 564.75 791.13 565.34 787.24L566.51 779.57C566.96 776.6 570.25 775.97 572.16 775.88V775.86C569.19 775.86 566.76 773.65 563.95 773.65C560.75 773.65 560.96 776.82 563.07 776.82C563.68 776.82 564.31 776.53 564.65 775.92C565.6 776.37 565.91 777.14 565.91 777.86C565.91 779.62 564.47 780.49 563.01 780.49C561.41 780.49 559.75 779.48 559.75 777.41C559.75 775.09 561.48 773.43 563.96 773.43C565.4 773.43 566.73 773.99 568.03 774.53C569.38 775.09 570.71 775.63 572.17 775.63C572.67 775.63 572.91 775.43 572.91 775.11C572.91 774.79 572.68 774.64 572.44 774.64C572.28 774.64 572.17 774.71 572.06 774.82C571.79 774.64 571.7 774.35 571.7 774.12C571.7 773.42 572.33 773.04 572.94 773.04C573.55 773.04 574.13 773.4 574.13 774.14C574.13 774.88 573.63 775.12 573.03 775.53H578.68L578.67 775.54Z" fill="#E20A29"/>
<path d="M588.73 786.39C588.23 789.23 588.19 790.82 589.18 791.21V791.3C588.6 791.41 588.06 791.46 587.51 791.46C585.6 791.46 583.91 790.65 584.58 787.84L585.41 784.37L585.32 784.35C583.9 789.95 582.17 791.48 580.14 791.48C577.78 791.48 576.94 789.36 576.94 787.29C576.94 783.17 580.5 779.28 584.57 779.28C585.88 779.28 586.75 780.2 588.06 780.2C588.62 780.2 589.39 780 589.91 779.41L588.72 786.39H588.73ZM581.03 788.46C581.03 789.38 581.23 790.24 581.82 790.24C583.17 790.24 584.66 786.8 585.26 783.42L585.51 782.05C585.69 781.06 585.89 779.51 584.7 779.51C582.58 779.51 581.03 784.87 581.03 788.47V788.46Z" fill="#E20A29"/>
<path d="M602.45 786.39C601.98 789.23 601.91 790.82 602.9 791.21V791.3C602.32 791.41 601.78 791.46 601.23 791.46C599.32 791.46 597.76 790.7 598.21 787.84L599.13 782.08C599.31 781.02 599.26 780.5 598.7 780.5C597.46 780.5 595.95 783.13 595.12 786.49C594.74 788.04 594.11 790.83 594.87 791.22V791.31C594.08 791.42 593.45 791.49 592.91 791.49C591.13 791.49 590.32 790.73 590.82 787.96L592.04 781.14C592.2 780.26 591.84 780.15 591.09 780.31V780.22C591.88 779.77 593.45 779.34 594.53 779.34C595.81 779.34 596.38 779.84 596.02 781.34L594.78 786.43H594.87C596.38 780.69 598.58 779.3 600.61 779.3C603.42 779.3 603.24 781.66 602.97 783.22L602.43 786.42L602.45 786.39Z" fill="#E20A29"/>
<path d="M605.53 779.68H604.52L604.56 779.45C607.8 779.45 609.56 778.39 610.12 775.2H610.35L609.63 779.45H611.21L611.16 779.68H609.61L608.49 786.5C607.99 789.56 607.97 790.82 609.19 791.2V791.29C608.38 791.4 607.84 791.45 607.3 791.45C605.39 791.45 603.83 790.69 604.28 787.83L605.54 779.68H605.53Z" fill="#E20A29"/>
<path d="M622.05 786.39C621.55 789.23 621.51 790.82 622.5 791.21V791.3C621.92 791.41 621.38 791.46 620.83 791.46C618.92 791.46 617.23 790.65 617.9 787.84L618.73 784.37L618.64 784.35C617.22 789.95 615.49 791.48 613.46 791.48C611.1 791.48 610.26 789.36 610.26 787.29C610.26 783.17 613.82 779.28 617.89 779.28C619.2 779.28 620.07 780.2 621.38 780.2C621.94 780.2 622.71 780 623.23 779.41L622.04 786.39H622.05ZM614.35 788.46C614.35 789.38 614.55 790.24 615.14 790.24C616.49 790.24 617.98 786.8 618.58 783.42L618.83 782.05C619.01 781.06 619.21 779.51 618.02 779.51C615.9 779.51 614.35 784.87 614.35 788.47V788.46Z" fill="#E20A29"/>
<path d="M555.5 820.28C554.37 820.28 553.61 820.75 552.98 821.47L552.82 821.36C554.78 819.13 555.66 818.21 556.06 815.37L556.8 810.24C557.59 804.75 563.53 800.52 566.37 800.52C567.95 800.52 568.62 801.51 568.62 802.43C568.62 803.8 567.54 804.52 566.53 804.52C565.85 804.52 565.11 804.18 564.93 803.4C565.51 803.18 565.79 802.7 565.79 802.25C565.79 801.71 565.41 801.21 564.75 801.21C563.11 801.21 562.27 804.36 562.03 805.87L560.88 813.05C560.18 817.37 557.05 816.72 553.81 820.52L553.83 820.54C555.7 818.81 557.3 817.73 559.25 817.73C563.89 817.73 568.93 821.06 572.8 821.06C573.77 821.06 574.58 820.77 575.12 820.07L575.21 820.11C574.08 823.51 571.77 824.59 569.38 824.59C564.59 824.59 558.58 820.27 555.49 820.27L555.5 820.28Z" fill="#E20A29"/>
<path d="M565.29 813.61C565.29 809.69 568.31 806.27 572.6 806.27C574.45 806.29 577.01 806.74 577.01 808.84C577.01 810.51 574.76 812.13 569.7 811.2L569.74 811C572.4 811.2 573.68 809.29 573.68 807.89C573.68 807.08 573.37 806.49 572.6 806.49C570.71 806.49 569.45 809.51 569.45 811.94C569.45 814.37 570.67 815.7 572.49 815.74C573.68 815.76 575.28 815.4 576.29 814.01L576.45 814.08C574.92 816.85 572.49 818.47 569.86 818.47C567.23 818.47 565.29 816.6 565.29 813.61Z" fill="#E20A29"/>
<path d="M577.85 814.94L579.07 808.12C579.23 807.24 578.87 807.13 578.12 807.29V807.2C578.91 806.75 580.48 806.32 581.56 806.32C582.84 806.32 583.41 806.82 583.05 808.32L581.81 813.41H581.9C583.41 807.67 585.61 806.28 587.41 806.28C590.22 806.28 590.07 808.67 589.71 810.2L588.94 813.42H589.03C590.54 807.68 592.74 806.29 594.54 806.29C597.35 806.29 597.17 808.65 596.9 810.21L596.36 813.41C595.89 816.25 595.82 817.84 596.81 818.23V818.32C596.23 818.43 595.68 818.48 595.14 818.48C593.23 818.48 591.67 817.72 592.12 814.86L593.04 809.1C593.22 808.04 593.17 807.52 592.61 807.52C591.6 807.52 590.09 810.15 589.26 813.51C588.88 815.06 588.25 817.85 589.01 818.24V818.33C588.22 818.44 587.59 818.51 587.05 818.51C585.27 818.51 584.51 817.75 584.96 814.98L585.91 809.11C586.09 808.05 586.04 807.53 585.48 807.53C584.47 807.53 582.96 810.16 582.13 813.52C581.75 815.07 581.12 817.86 581.88 818.25V818.34C581.09 818.45 580.46 818.52 579.92 818.52C578.14 818.52 577.33 817.76 577.83 814.99L577.85 814.94Z" fill="#E20A29"/>
<path d="M610.88 811.39C610.88 815.13 607.5 818.48 603.5 818.48C600.28 818.48 598.05 816.34 598.05 813.37C598.05 809.52 601.36 806.28 605.41 806.28C608.65 806.28 610.88 808.42 610.88 811.39ZM606.76 809.07C606.76 807.74 606.51 806.5 605.39 806.5C602.91 806.5 602.17 813.39 602.17 815.73C602.17 817.06 602.42 818.25 603.52 818.25C606.02 818.25 606.76 811.72 606.76 809.07Z" fill="#E20A29"/>
<path d="M623.48 813.39C623.01 816.23 622.94 817.82 623.93 818.21V818.3C623.35 818.41 622.81 818.46 622.26 818.46C620.35 818.46 618.79 817.7 619.24 814.84L620.16 809.08C620.34 808.02 620.29 807.5 619.73 807.5C618.49 807.5 616.98 810.13 616.15 813.49C615.77 815.04 615.14 817.83 615.9 818.22V818.31C615.11 818.42 614.48 818.49 613.94 818.49C612.16 818.49 611.35 817.73 611.85 814.96L613.07 808.14C613.23 807.26 612.87 807.15 612.12 807.31V807.22C612.91 806.77 614.48 806.34 615.56 806.34C616.84 806.34 617.41 806.84 617.05 808.34L615.81 813.43H615.9C617.41 807.69 619.61 806.3 621.64 806.3C624.45 806.3 624.27 808.66 624 810.22L623.46 813.42L623.48 813.39Z" fill="#E20A29"/>
<path d="M655.17 714.78L663.68 880.67H747.3L758.13 714.78H655.17Z" fill="white" stroke="#E20A29" stroke-miterlimit="10"/>
<path d="M706.65 733.8C735.082 733.8 758.13 725.284 758.13 714.78C758.13 704.276 735.082 695.76 706.65 695.76C678.218 695.76 655.17 704.276 655.17 714.78C655.17 725.284 678.218 733.8 706.65 733.8Z" fill="white" stroke="#E20A29" stroke-miterlimit="10"/>
<path d="M705.49 728.3C728.581 728.3 747.3 722.386 747.3 715.09C747.3 707.794 728.581 701.88 705.49 701.88C682.399 701.88 663.68 707.794 663.68 715.09C663.68 722.386 682.399 728.3 705.49 728.3Z" fill="#E20A29"/>
<path d="M715.48 733.87C715.48 738.88 711.42 742.95 706.4 742.95C701.39 742.95 697.32 738.89 697.32 733.87" fill="#E20A29"/>
<path d="M670.21 729.28C667.34 733.39 661.67 734.39 657.57 731.51C653.46 728.64 652.46 722.97 655.34 718.87" fill="#E20A29"/>
<path d="M743.42 729.2C746.3 733.3 751.96 734.3 756.07 731.42C760.17 728.54 761.17 722.88 758.29 718.77" fill="#E20A29"/>
<path d="M730.51 732.14C731.08 737.12 727.49 741.62 722.51 742.18C717.53 742.74 713.03 739.16 712.47 734.18" fill="#E20A29"/>
<path d="M746.24 727.75C747.6 732.58 744.79 737.59 739.97 738.95C735.14 740.31 730.13 737.5 728.77 732.68" fill="#E20A29"/>
<path d="M683.22 732.35C682.65 737.33 686.24 741.83 691.22 742.39C696.2 742.96 700.7 739.37 701.26 734.39" fill="#E20A29"/>
<path d="M667.49 727.96C666.13 732.79 668.94 737.8 673.76 739.16C678.59 740.52 683.6 737.71 684.96 732.89" fill="#E20A29"/>
<path d="M694 776.5L693.64 781.92H693.46C693.64 778.45 691.73 776.68 689.41 776.68C687.32 776.68 686.78 777.9 686.46 779.88L685.8 784.11C688.7 784.11 690.18 782.91 690.67 780.6H690.85L689.3 787.87H689.1C689.57 785.7 688.59 784.31 685.77 784.29L685.25 787.62C684.35 793.36 678.27 794.28 675.78 794.28C672.72 794.28 670.51 792.73 670.51 789.78C670.51 787.24 672.63 785.46 675.15 785.46C677.24 785.46 679.58 786.79 679.58 789.04C679.58 790.68 678.34 791.83 676.72 791.83C675.1 791.83 674.27 790.55 674.67 789.17C676.02 789.15 676.76 788.11 676.76 787.17C676.76 786.4 676.31 785.68 674.98 785.68C672.84 785.68 671.42 787.37 671.42 789.73C671.42 792.27 672.86 794.05 675.76 794.05C678.17 794.05 680.08 792.09 680.67 788.2L681.84 780.53C682.29 777.56 685.58 776.93 687.49 776.84V776.82C684.52 776.82 682.09 774.61 679.28 774.61C676.08 774.61 676.29 777.78 678.4 777.78C679.01 777.78 679.64 777.49 679.98 776.88C680.93 777.33 681.24 778.1 681.24 778.82C681.24 780.58 679.8 781.45 678.34 781.45C676.74 781.45 675.08 780.44 675.08 778.37C675.08 776.05 676.81 774.39 679.29 774.39C680.73 774.39 682.06 774.95 683.36 775.49C684.71 776.05 686.04 776.59 687.5 776.59C688 776.59 688.24 776.39 688.24 776.07C688.24 775.75 688.01 775.6 687.77 775.6C687.61 775.6 687.5 775.67 687.39 775.78C687.12 775.6 687.03 775.31 687.03 775.08C687.03 774.38 687.66 774 688.27 774C688.88 774 689.46 774.36 689.46 775.1C689.46 775.84 688.96 776.08 688.36 776.49H694.01L694 776.5Z" fill="#E20A29"/>
<path d="M704.06 787.35C703.56 790.19 703.52 791.78 704.51 792.17V792.26C703.93 792.37 703.39 792.42 702.84 792.42C700.93 792.42 699.24 791.61 699.91 788.8L700.74 785.33L700.65 785.31C699.23 790.91 697.5 792.44 695.47 792.44C693.11 792.44 692.27 790.32 692.27 788.25C692.27 784.13 695.83 780.24 699.9 780.24C701.21 780.24 702.08 781.16 703.39 781.16C703.95 781.16 704.72 780.96 705.24 780.37L704.05 787.35H704.06ZM696.36 789.42C696.36 790.34 696.56 791.2 697.15 791.2C698.5 791.2 699.99 787.76 700.59 784.38L700.84 783.01C701.02 782.02 701.22 780.47 700.03 780.47C697.91 780.47 696.36 785.83 696.36 789.43V789.42Z" fill="#E20A29"/>
<path d="M717.78 787.35C717.31 790.19 717.24 791.78 718.23 792.17V792.26C717.65 792.37 717.11 792.42 716.56 792.42C714.65 792.42 713.09 791.66 713.54 788.8L714.46 783.04C714.64 781.98 714.59 781.46 714.03 781.46C712.79 781.46 711.28 784.09 710.45 787.45C710.07 789 709.44 791.79 710.2 792.18V792.27C709.41 792.38 708.78 792.45 708.24 792.45C706.46 792.45 705.65 791.69 706.15 788.92L707.37 782.1C707.53 781.22 707.17 781.11 706.42 781.27V781.18C707.21 780.73 708.78 780.3 709.86 780.3C711.14 780.3 711.71 780.8 711.35 782.3L710.11 787.39H710.2C711.71 781.65 713.91 780.26 715.94 780.26C718.75 780.26 718.57 782.62 718.3 784.18L717.76 787.38L717.78 787.35Z" fill="#E20A29"/>
<path d="M720.86 780.64H719.85L719.89 780.41C723.13 780.41 724.89 779.35 725.45 776.16H725.68L724.96 780.41H726.54L726.49 780.64H724.94L723.82 787.46C723.32 790.52 723.3 791.78 724.52 792.16V792.25C723.71 792.36 723.17 792.41 722.63 792.41C720.72 792.41 719.16 791.65 719.61 788.79L720.87 780.64H720.86Z" fill="#E20A29"/>
<path d="M737.38 787.35C736.88 790.19 736.84 791.78 737.83 792.17V792.26C737.25 792.37 736.71 792.42 736.16 792.42C734.25 792.42 732.56 791.61 733.23 788.8L734.06 785.33L733.97 785.31C732.55 790.91 730.82 792.44 728.79 792.44C726.43 792.44 725.59 790.32 725.59 788.25C725.59 784.13 729.15 780.24 733.22 780.24C734.53 780.24 735.4 781.16 736.71 781.16C737.27 781.16 738.04 780.96 738.56 780.37L737.37 787.35H737.38ZM729.68 789.42C729.68 790.34 729.88 791.2 730.47 791.2C731.82 791.2 733.31 787.76 733.91 784.38L734.16 783.01C734.34 782.02 734.54 780.47 733.35 780.47C731.23 780.47 729.68 785.83 729.68 789.43V789.42Z" fill="#E20A29"/>
<path d="M670.83 821.23C669.7 821.23 668.94 821.7 668.31 822.42L668.15 822.31C670.11 820.08 670.99 819.16 671.39 816.32L672.13 811.19C672.92 805.7 678.86 801.47 681.7 801.47C683.28 801.47 683.95 802.46 683.95 803.38C683.95 804.75 682.87 805.47 681.86 805.47C681.18 805.47 680.44 805.13 680.26 804.35C680.84 804.12 681.12 803.65 681.12 803.2C681.12 802.66 680.74 802.16 680.08 802.16C678.44 802.16 677.6 805.31 677.36 806.82L676.21 814C675.51 818.32 672.38 817.67 669.14 821.47L669.16 821.49C671.03 819.76 672.63 818.68 674.58 818.68C679.22 818.68 684.26 822.01 688.13 822.01C689.1 822.01 689.91 821.72 690.45 821.02L690.54 821.06C689.41 824.46 687.1 825.54 684.71 825.54C679.92 825.54 673.91 821.22 670.82 821.22L670.83 821.23Z" fill="#E20A29"/>
<path d="M680.62 814.57C680.62 810.65 683.64 807.23 687.93 807.23C689.78 807.25 692.34 807.7 692.34 809.8C692.34 811.47 690.09 813.09 685.03 812.16L685.07 811.96C687.73 812.16 689.01 810.25 689.01 808.85C689.01 808.04 688.7 807.45 687.93 807.45C686.04 807.45 684.78 810.47 684.78 812.9C684.78 815.33 686 816.66 687.82 816.7C689.01 816.72 690.61 816.36 691.62 814.97L691.78 815.04C690.25 817.81 687.82 819.43 685.19 819.43C682.56 819.43 680.62 817.56 680.62 814.57Z" fill="#E20A29"/>
<path d="M693.17 815.9L694.39 809.08C694.55 808.2 694.19 808.09 693.44 808.25V808.16C694.23 807.71 695.8 807.28 696.88 807.28C698.16 807.28 698.73 807.78 698.37 809.28L697.13 814.37H697.22C698.73 808.63 700.93 807.24 702.73 807.24C705.54 807.24 705.39 809.63 705.03 811.16L704.26 814.38H704.35C705.86 808.64 708.06 807.25 709.86 807.25C712.67 807.25 712.49 809.61 712.22 811.17L711.68 814.37C711.21 817.21 711.14 818.8 712.13 819.19V819.28C711.55 819.39 711 819.44 710.46 819.44C708.55 819.44 706.99 818.68 707.44 815.82L708.36 810.06C708.54 809 708.49 808.48 707.93 808.48C706.92 808.48 705.41 811.11 704.58 814.47C704.2 816.02 703.57 818.81 704.33 819.2V819.29C703.54 819.4 702.91 819.47 702.37 819.47C700.59 819.47 699.83 818.71 700.28 815.94L701.23 810.07C701.41 809.01 701.36 808.49 700.8 808.49C699.79 808.49 698.28 811.12 697.45 814.48C697.07 816.03 696.44 818.82 697.2 819.21V819.3C696.41 819.41 695.78 819.48 695.24 819.48C693.46 819.48 692.65 818.72 693.15 815.95L693.17 815.9Z" fill="#E20A29"/>
<path d="M726.21 812.34C726.21 816.08 722.83 819.43 718.83 819.43C715.61 819.43 713.38 817.29 713.38 814.32C713.38 810.47 716.69 807.23 720.74 807.23C723.98 807.23 726.21 809.37 726.21 812.34ZM722.09 810.02C722.09 808.69 721.84 807.45 720.72 807.45C718.24 807.45 717.5 814.34 717.5 816.68C717.5 818.01 717.75 819.2 718.85 819.2C721.35 819.2 722.09 812.67 722.09 810.02Z" fill="#E20A29"/>
<path d="M738.81 814.35C738.34 817.19 738.27 818.78 739.26 819.17V819.26C738.68 819.37 738.14 819.42 737.59 819.42C735.68 819.42 734.12 818.66 734.57 815.8L735.49 810.04C735.67 808.98 735.62 808.46 735.06 808.46C733.82 808.46 732.31 811.09 731.48 814.45C731.1 816 730.47 818.79 731.23 819.18V819.27C730.44 819.38 729.81 819.45 729.27 819.45C727.49 819.45 726.68 818.69 727.18 815.92L728.4 809.1C728.56 808.22 728.2 808.11 727.45 808.27V808.18C728.24 807.73 729.81 807.3 730.89 807.3C732.17 807.3 732.74 807.8 732.38 809.3L731.14 814.39H731.23C732.74 808.65 734.94 807.26 736.97 807.26C739.78 807.26 739.6 809.62 739.33 811.18L738.79 814.38L738.81 814.35Z" fill="#E20A29"/>
<path d="M769.54 714.78L778.04 880.67H861.67L872.49 714.78H769.54Z" fill="white" stroke="#E20A29" stroke-miterlimit="10"/>
<path d="M821.01 733.8C849.442 733.8 872.49 725.284 872.49 714.78C872.49 704.276 849.442 695.76 821.01 695.76C792.578 695.76 769.53 704.276 769.53 714.78C769.53 725.284 792.578 733.8 821.01 733.8Z" fill="white" stroke="#E20A29" stroke-miterlimit="10"/>
<path d="M819.85 728.3C842.941 728.3 861.66 722.386 861.66 715.09C861.66 707.794 842.941 701.88 819.85 701.88C796.759 701.88 778.04 707.794 778.04 715.09C778.04 722.386 796.759 728.3 819.85 728.3Z" fill="#E20A29"/>
<path d="M829.84 733.87C829.84 738.88 825.78 742.95 820.76 742.95C815.75 742.95 811.68 738.89 811.68 733.87" fill="#E20A29"/>
<path d="M784.57 729.28C781.7 733.39 776.03 734.39 771.93 731.51C767.82 728.64 766.82 722.97 769.7 718.87" fill="#E20A29"/>
<path d="M857.78 729.2C860.66 733.3 866.32 734.3 870.43 731.42C874.53 728.54 875.53 722.88 872.65 718.77" fill="#E20A29"/>
<path d="M844.87 732.14C845.44 737.12 841.85 741.62 836.87 742.18C831.89 742.74 827.39 739.16 826.83 734.18" fill="#E20A29"/>
<path d="M860.6 727.75C861.96 732.58 859.15 737.59 854.33 738.95C849.5 740.31 844.49 737.5 843.13 732.68" fill="#E20A29"/>
<path d="M797.59 732.35C797.02 737.33 800.61 741.83 805.59 742.39C810.57 742.96 815.07 739.37 815.63 734.39" fill="#E20A29"/>
<path d="M781.86 727.96C780.5 732.79 783.31 737.8 788.13 739.16C792.96 740.52 797.97 737.71 799.33 732.89" fill="#E20A29"/>
<path d="M808.37 776.5L808.01 781.92H807.83C808.01 778.45 806.1 776.68 803.78 776.68C801.69 776.68 801.15 777.9 800.83 779.88L800.17 784.11C803.07 784.11 804.55 782.91 805.04 780.6H805.22L803.67 787.87H803.47C803.94 785.7 802.96 784.31 800.14 784.29L799.62 787.62C798.72 793.36 792.64 794.28 790.15 794.28C787.09 794.28 784.88 792.73 784.88 789.78C784.88 787.24 787 785.46 789.52 785.46C791.61 785.46 793.95 786.79 793.95 789.04C793.95 790.68 792.71 791.83 791.09 791.83C789.47 791.83 788.64 790.55 789.04 789.17C790.39 789.15 791.13 788.11 791.13 787.17C791.13 786.4 790.68 785.68 789.35 785.68C787.21 785.68 785.79 787.37 785.79 789.73C785.79 792.27 787.23 794.05 790.13 794.05C792.54 794.05 794.45 792.09 795.04 788.2L796.21 780.53C796.66 777.56 799.95 776.93 801.86 776.84V776.82C798.89 776.82 796.46 774.61 793.65 774.61C790.45 774.61 790.66 777.78 792.77 777.78C793.38 777.78 794.01 777.49 794.35 776.88C795.3 777.33 795.61 778.1 795.61 778.82C795.61 780.58 794.17 781.45 792.71 781.45C791.11 781.45 789.45 780.44 789.45 778.37C789.45 776.05 791.18 774.39 793.66 774.39C795.1 774.39 796.43 774.95 797.73 775.49C799.08 776.05 800.41 776.59 801.87 776.59C802.37 776.59 802.61 776.39 802.61 776.07C802.61 775.75 802.38 775.6 802.14 775.6C801.98 775.6 801.87 775.67 801.76 775.78C801.49 775.6 801.4 775.31 801.4 775.08C801.4 774.38 802.03 774 802.64 774C803.25 774 803.83 774.36 803.83 775.1C803.83 775.84 803.33 776.08 802.73 776.49H808.38L808.37 776.5Z" fill="#E20A29"/>
<path d="M818.42 787.35C817.92 790.19 817.88 791.78 818.87 792.17V792.26C818.29 792.37 817.75 792.42 817.2 792.42C815.29 792.42 813.6 791.61 814.27 788.8L815.1 785.33L815.01 785.31C813.59 790.91 811.86 792.44 809.83 792.44C807.47 792.44 806.63 790.32 806.63 788.25C806.63 784.13 810.19 780.24 814.26 780.24C815.57 780.24 816.44 781.16 817.75 781.16C818.31 781.16 819.08 780.96 819.6 780.37L818.41 787.35H818.42ZM810.72 789.42C810.72 790.34 810.92 791.2 811.51 791.2C812.86 791.2 814.35 787.76 814.95 784.38L815.2 783.01C815.38 782.02 815.58 780.47 814.39 780.47C812.27 780.47 810.72 785.83 810.72 789.43V789.42Z" fill="#E20A29"/>
<path d="M832.14 787.35C831.67 790.19 831.6 791.78 832.59 792.17V792.26C832.01 792.37 831.47 792.42 830.92 792.42C829.01 792.42 827.45 791.66 827.9 788.8L828.82 783.04C829 781.98 828.95 781.46 828.39 781.46C827.15 781.46 825.64 784.09 824.81 787.45C824.43 789 823.8 791.79 824.56 792.18V792.27C823.77 792.38 823.14 792.45 822.6 792.45C820.82 792.45 820.01 791.69 820.51 788.92L821.73 782.1C821.89 781.22 821.53 781.11 820.78 781.27V781.18C821.57 780.73 823.14 780.3 824.22 780.3C825.5 780.3 826.07 780.8 825.71 782.3L824.47 787.39H824.56C826.07 781.65 828.27 780.26 830.3 780.26C833.11 780.26 832.93 782.62 832.66 784.18L832.12 787.38L832.14 787.35Z" fill="#E20A29"/>
<path d="M835.22 780.64H834.21L834.25 780.41C837.49 780.41 839.25 779.35 839.81 776.16H840.04L839.32 780.41H840.9L840.85 780.64H839.3L838.18 787.46C837.68 790.52 837.66 791.78 838.88 792.16V792.25C838.07 792.36 837.53 792.41 836.99 792.41C835.08 792.41 833.52 791.65 833.97 788.79L835.23 780.64H835.22Z" fill="#E20A29"/>
<path d="M851.74 787.35C851.24 790.19 851.2 791.78 852.19 792.17V792.26C851.61 792.37 851.07 792.42 850.52 792.42C848.61 792.42 846.92 791.61 847.59 788.8L848.42 785.33L848.33 785.31C846.91 790.91 845.18 792.44 843.15 792.44C840.79 792.44 839.95 790.32 839.95 788.25C839.95 784.13 843.51 780.24 847.58 780.24C848.89 780.24 849.76 781.16 851.07 781.16C851.63 781.16 852.4 780.96 852.92 780.37L851.73 787.35H851.74ZM844.04 789.42C844.04 790.34 844.24 791.2 844.83 791.2C846.18 791.2 847.67 787.76 848.27 784.38L848.52 783.01C848.7 782.02 848.9 780.47 847.71 780.47C845.59 780.47 844.04 785.83 844.04 789.43V789.42Z" fill="#E20A29"/>
<path d="M785.2 821.23C784.07 821.23 783.31 821.7 782.68 822.42L782.52 822.31C784.48 820.08 785.36 819.16 785.76 816.32L786.5 811.19C787.29 805.7 793.23 801.47 796.07 801.47C797.65 801.47 798.32 802.46 798.32 803.38C798.32 804.75 797.24 805.47 796.23 805.47C795.55 805.47 794.81 805.13 794.63 804.35C795.21 804.12 795.49 803.65 795.49 803.2C795.49 802.66 795.11 802.16 794.45 802.16C792.81 802.16 791.97 805.31 791.73 806.82L790.58 814C789.88 818.32 786.75 817.67 783.51 821.47L783.53 821.49C785.4 819.76 787 818.68 788.95 818.68C793.59 818.68 798.63 822.01 802.5 822.01C803.47 822.01 804.28 821.72 804.82 821.02L804.91 821.06C803.78 824.46 801.47 825.54 799.08 825.54C794.29 825.54 788.28 821.22 785.19 821.22L785.2 821.23Z" fill="#E20A29"/>
<path d="M794.98 814.57C794.98 810.65 798 807.23 802.29 807.23C804.14 807.25 806.7 807.7 806.7 809.8C806.7 811.47 804.45 813.09 799.39 812.16L799.43 811.96C802.09 812.16 803.37 810.25 803.37 808.85C803.37 808.04 803.06 807.45 802.29 807.45C800.4 807.45 799.14 810.47 799.14 812.9C799.14 815.33 800.36 816.66 802.18 816.7C803.37 816.72 804.97 816.36 805.98 814.97L806.14 815.04C804.61 817.81 802.18 819.43 799.55 819.43C796.92 819.43 794.98 817.56 794.98 814.57Z" fill="#E20A29"/>
<path d="M807.54 815.9L808.76 809.08C808.92 808.2 808.56 808.09 807.81 808.25V808.16C808.6 807.71 810.17 807.28 811.25 807.28C812.53 807.28 813.1 807.78 812.74 809.28L811.5 814.37H811.59C813.1 808.63 815.3 807.24 817.1 807.24C819.91 807.24 819.76 809.63 819.4 811.16L818.63 814.38H818.72C820.23 808.64 822.43 807.25 824.23 807.25C827.04 807.25 826.86 809.61 826.59 811.17L826.05 814.37C825.58 817.21 825.51 818.8 826.5 819.19V819.28C825.92 819.39 825.37 819.44 824.83 819.44C822.92 819.44 821.36 818.68 821.81 815.82L822.73 810.06C822.91 809 822.86 808.48 822.3 808.48C821.29 808.48 819.78 811.11 818.95 814.47C818.57 816.02 817.94 818.81 818.7 819.2V819.29C817.91 819.4 817.28 819.47 816.74 819.47C814.96 819.47 814.2 818.71 814.65 815.94L815.6 810.07C815.78 809.01 815.73 808.49 815.17 808.49C814.16 808.49 812.65 811.12 811.82 814.48C811.44 816.03 810.81 818.82 811.57 819.21V819.3C810.78 819.41 810.15 819.48 809.61 819.48C807.83 819.48 807.02 818.72 807.52 815.95L807.54 815.9Z" fill="#E20A29"/>
<path d="M840.57 812.34C840.57 816.08 837.19 819.43 833.19 819.43C829.97 819.43 827.74 817.29 827.74 814.32C827.74 810.47 831.05 807.23 835.1 807.23C838.34 807.23 840.57 809.37 840.57 812.34ZM836.45 810.02C836.45 808.69 836.2 807.45 835.08 807.45C832.6 807.45 831.86 814.34 831.86 816.68C831.86 818.01 832.11 819.2 833.21 819.2C835.71 819.2 836.45 812.67 836.45 810.02Z" fill="#E20A29"/>
<path d="M853.17 814.35C852.7 817.19 852.63 818.78 853.62 819.17V819.26C853.04 819.37 852.5 819.42 851.95 819.42C850.04 819.42 848.48 818.66 848.93 815.8L849.85 810.04C850.03 808.98 849.98 808.46 849.42 808.46C848.18 808.46 846.67 811.09 845.84 814.45C845.46 816 844.83 818.79 845.59 819.18V819.27C844.8 819.38 844.17 819.45 843.63 819.45C841.85 819.45 841.04 818.69 841.54 815.92L842.76 809.1C842.92 808.22 842.56 808.11 841.81 808.27V808.18C842.6 807.73 844.17 807.3 845.25 807.3C846.53 807.3 847.1 807.8 846.74 809.3L845.5 814.39H845.59C847.1 808.65 849.3 807.26 851.33 807.26C854.14 807.26 853.96 809.62 853.69 811.18L853.15 814.38L853.17 814.35Z" fill="#E20A29"/>
<path d="M365.74 208.71H357.52V714.13H365.74V208.71Z" fill="#E20A29" stroke="white" stroke-miterlimit="10"/>
<path d="M479.32 362.59H471.1V714.12H479.32V362.59Z" fill="#E20A29" stroke="white" stroke-miterlimit="10"/>
<path d="M593.71 413.3H585.49V714.13H593.71V413.3Z" fill="#E20A29" stroke="white" stroke-miterlimit="10"/>
<path d="M709.04 578.27H700.82V715.08H709.04V578.27Z" fill="#E20A29" stroke="white" stroke-miterlimit="10"/>
<path d="M823.4 633.49H815.18V715.08H823.4V633.49Z" fill="#E20A29" stroke="white" stroke-miterlimit="10"/>
</g>
<defs>
<clipPath id="clip0_51_1099">
<rect width="1080" height="1080" fill="white" transform="translate(0.5)"/>
</clipPath>
</defs>
</svg>
