<svg width="1080" height="1080" viewBox="0 0 1080 1080" fill="none" xmlns="http://www.w3.org/2000/svg">
<path d="M1077.49 0.0700073H0V1077.56H1077.49V0.0700073Z" fill="#FFE1F1"/>
<path d="M660.2 859.99L493.11 762.99L636.97 891.91C601.62 931.37 550.26 956.18 493.11 956.18C386.42 956.18 299.93 869.69 299.93 762.98C299.93 656.27 386.42 569.8 493.11 569.8C599.8 569.8 686.29 656.29 686.29 762.98C686.29 798.33 676.79 831.48 660.2 859.98V859.99Z" fill="white" stroke="#E20A29" stroke-width="2.34" stroke-miterlimit="10"/>
<path d="M563.37 423.11C570.075 423.11 575.51 421.212 575.51 418.87C575.51 416.528 570.075 414.63 563.37 414.63C556.665 414.63 551.23 416.528 551.23 418.87C551.23 421.212 556.665 423.11 563.37 423.11Z" fill="#FFDFEF"/>
<path d="M346.74 474.98C356.94 490.64 372.94 501.61 389.01 510.61C426.05 530.49 467.91 539.26 509.36 544.13C523.28 545.69 537.24 546.71 551.22 547.54C539.54 547.37 527.85 547.07 516.2 546.11C463.65 541.8 406.76 530.34 365.05 496.11C358.02 489.98 351.26 483.19 346.73 474.98H346.74Z" fill="black"/>
<path d="M648.87 481.61C648.87 481.61 857.61 625.8 733.33 728.37C733.33 728.37 662 784.61 575.5 696.77L533.84 613.86C533.84 613.86 474.82 574.15 479.91 541.59C485 509.03 648.87 481.61 648.87 481.61Z" fill="white" stroke="#E20A29" stroke-width="2" stroke-miterlimit="10"/>
<path d="M622.18 435.17C600.13 352.97 518.6 387.05 518.6 387.05C482.51 374.35 456.45 383.04 456.45 383.04C456.45 383.04 430.39 319.55 400.98 345.62C400.98 345.62 404.17 421.16 369.57 428.49C327.44 447.65 351.53 485.96 351.53 485.96C351.53 485.96 398.51 552.43 547.07 555.59C547.07 555.59 615.09 561.09 648.58 529.12C682.07 497.15 622.18 435.17 622.18 435.17Z" fill="#E20A29"/>
<path d="M704.42 802.24C708.89 806.1 703.78 813.17 698.79 810.02C677.55 796.61 656.31 767.28 645.36 730.04C630.92 680.94 672.88 675.86 676.89 675.49C677.11 675.47 677.3 675.46 677.52 675.47C680.41 675.57 702.05 677.05 730.25 698.2C758.18 719.15 760.55 739.93 760.75 743.08C760.77 743.37 760.81 743.63 760.88 743.92C762.57 750.56 781.6 832.6 699.31 855.87C699.31 855.87 673.43 862.71 636.26 821C588.77 767.69 549.07 749.06 544.27 746.93C543.91 746.77 543.6 746.58 543.28 746.34C538.82 742.87 506.51 716.58 532.7 700.84C533.97 700.08 535.51 699.9 536.9 700.41C541.29 702.01 553 707.25 578.65 723.99C613.52 746.73 651.42 781.6 651.42 781.6C651.42 781.6 563.37 706.98 496.84 668.79C495.79 668.19 495.02 667.23 494.66 666.07C492.21 658.33 484.45 628.77 510.56 632.79C511.46 632.93 512.31 633.35 512.99 633.95L639.29 746.12L704.42 802.26V802.24Z" fill="#E20A29"/>
<path d="M479.57 547.54C479.57 547.54 439.35 554.85 439.35 580.44V596.89C439.35 596.89 406.45 587.75 410.1 618.83C413.76 649.91 444.69 618.83 444.69 618.83C444.69 618.83 431.75 662.7 444.69 662.7C457.63 662.7 464.94 617 464.94 617C464.94 617 464.94 666.35 496.02 653.56C527.1 640.76 479.57 547.54 479.57 547.54Z" fill="white" stroke="#E20A29" stroke-width="2" stroke-miterlimit="10"/>
<path d="M527.32 650.2C527.32 650.2 591.72 679.38 693.35 643.16C693.35 643.16 742.66 617 707.44 578.76C707.44 578.76 671.22 542.54 645.05 556.62C645.05 556.62 593.73 599.89 550.46 583.79C550.46 583.79 499.74 553.6 457.68 566.68C415.62 579.76 395.5 599.89 395.5 599.89C395.5 599.89 371.35 621.02 388.46 626.05C405.57 631.08 418.65 615.99 418.65 615.99L470.97 594.86C470.97 594.86 403.55 627.06 392.48 644.17C381.41 661.28 409.59 674.36 409.59 674.36C409.59 674.36 477.7 618.06 512.23 637.13L527.32 650.21V650.2Z" fill="#E20A29"/>
<path d="M551.23 491.52C578.364 491.52 600.36 469.524 600.36 442.39C600.36 415.256 578.364 393.26 551.23 393.26C524.096 393.26 502.1 415.256 502.1 442.39C502.1 469.524 524.096 491.52 551.23 491.52Z" fill="white"/>
<path d="M390.32 434.89C415.383 434.89 435.7 414.573 435.7 389.51C435.7 364.447 415.383 344.13 390.32 344.13C365.257 344.13 344.94 364.447 344.94 389.51C344.94 414.573 365.257 434.89 390.32 434.89Z" fill="white" stroke="#E20A29" stroke-width="2" stroke-miterlimit="10"/>
<path d="M301.72 201.64C301.72 193.46 308.58 187.7 316.76 187.7C323.55 187.7 331.14 192.01 331.14 199.31C331.14 204.64 327.12 208.36 321.87 208.36C316.62 208.36 313.91 204.2 315.23 199.75C319.61 199.68 322.02 196.32 322.02 193.25C322.02 190.77 320.56 188.43 316.25 188.43C309.32 188.43 304.72 193.9 304.72 201.64C304.72 209.82 310.93 217.04 324.14 217.04C337.35 217.04 343.05 210.62 343.05 203.46C343.05 189.96 315.31 188.57 315.31 172.22C315.31 162.07 325.68 156.45 336.48 156.45C346.19 156.45 354 160.17 354 167.55C354 173.83 349.26 176.67 345.02 176.67C341.37 176.67 337.43 174.26 338.38 169.01C341.96 168.21 343.56 165.65 343.56 163.02C343.56 160.17 341.88 157.18 336.55 157.18C330.71 157.18 326.84 160.25 326.84 165.28C326.84 176.45 353.56 178.49 353.56 194.84C353.56 208.13 341.08 217.76 324.14 217.76C308.74 217.76 301.73 210.17 301.73 201.63L301.72 201.64Z" fill="#E20A29"/>
<path d="M398.81 187.34C398.81 199.46 387.86 210.33 374.87 210.33C364.43 210.33 357.2 203.4 357.2 193.76C357.2 181.28 367.93 170.77 381.07 170.77C391.58 170.77 398.81 177.7 398.81 187.34ZM385.45 179.82C385.45 175.51 384.65 171.5 381 171.5C372.97 171.5 370.56 193.84 370.56 201.43C370.56 205.74 371.36 209.61 374.94 209.61C383.04 209.61 385.45 188.44 385.45 179.83V179.82Z" fill="#E20A29"/>
<path d="M416.03 189.16C416.03 197.26 419.97 201.35 425.88 201.5C429.75 201.57 434.93 200.41 438.22 195.88L438.73 196.1C433.77 205.08 425.88 210.33 417.34 210.33C408.8 210.33 402.52 204.27 402.52 194.56C402.52 181.86 412.3 170.76 426.24 170.76C434.71 170.76 440.33 174.19 440.33 180.1C440.33 184.63 436.97 187.84 432.81 187.84C429.74 187.84 426.53 185.94 426.82 181.2C428.21 180.62 430.47 178.94 430.47 175.87C430.47 173.24 429.01 171.49 426.38 171.49C420.1 171.49 416.01 181.27 416.01 189.16H416.03Z" fill="#E20A29"/>
<path d="M463.92 200.26C462.9 194.49 462.31 190.55 459.39 190.55V190.26C464.35 188.58 470.92 183.54 470.92 177.34C470.92 175.59 470.34 174.71 469.02 174.71C465.01 174.71 460.11 183.25 457.41 194.13C456.17 199.17 454.12 208.22 456.61 209.46V209.75C454.06 210.12 452.01 210.33 450.26 210.33C444.49 210.33 442.01 207.85 443.47 198.87L450.19 157.92C450.63 155.07 449.53 154.71 447.12 155.22V154.93C449.67 153.47 454.78 152.08 458.29 152.08C462.45 152.08 464.06 153.61 463.11 158.58L456.32 193.91H456.61C461.5 175.3 468.65 170.77 475.22 170.77C481.79 170.77 483.62 174.78 483.62 177.48C483.62 185.8 472.96 188.06 460.48 190.26V190.33C463.84 189.97 466.9 189.89 469.31 190.26C475.66 191.21 477.27 196.68 478.73 201.65C480.04 206.1 480.85 208.73 483.69 209.46V209.75C480.99 210.26 478 210.77 475.15 210.77C469.16 210.77 465.44 208.87 463.91 200.26H463.92Z" fill="#E20A29"/>
<path d="M483.49 194.56C483.49 181.86 493.27 170.76 507.21 170.76C513.2 170.83 521.52 172.29 521.52 179.08C521.52 184.48 514.22 189.74 497.8 186.75L497.95 186.09C506.56 186.75 510.72 180.54 510.72 176.02C510.72 173.39 509.7 171.49 507.22 171.49C501.09 171.49 497 181.27 497 189.16C497 197.05 500.94 201.35 506.85 201.5C510.72 201.57 515.9 200.41 519.19 195.88L519.7 196.1C514.74 205.08 506.85 210.33 498.31 210.33C489.77 210.33 483.49 204.27 483.49 194.56Z" fill="#E20A29"/>
<path d="M524.22 198.87L528.16 176.75C528.67 173.9 527.5 173.54 525.09 174.05V173.76C527.64 172.3 532.76 170.91 536.26 170.91C540.42 170.91 542.25 172.52 541.08 177.41L537.07 193.91H537.36C542.25 175.37 547.58 170.48 554.73 170.48C561.37 170.48 563.93 175.15 563.93 179.31C563.93 184.86 560.13 188.95 554.88 188.95C550.72 188.95 547.73 186.4 547.8 182.16C550.5 181.8 553.13 179.75 553.13 176.76C553.13 174.35 551.96 173.26 550.28 173.26C545.75 173.26 541.3 181.51 538.16 194.14C536.92 199.18 534.87 208.23 537.36 209.47V209.76C534.81 210.13 532.76 210.34 531.01 210.34C525.24 210.34 522.61 207.86 524.22 198.88V198.87Z" fill="#E20A29"/>
<path d="M560.43 217.85C560.43 214.2 563.06 211.21 567.07 211.21C570.43 211.21 573.35 213.69 573.13 217.78C571.23 218.07 569.48 219.75 569.48 221.87C569.48 223.77 570.79 226.1 575.1 226.1C581.96 226.1 582.77 219.82 583.64 215.59L589.41 187.27L589.12 187.2C584.52 205.38 578.9 210.34 572.33 210.34C564.66 210.34 561.96 203.48 561.96 196.76C561.96 183.4 573.49 170.85 586.71 170.85C590.94 170.85 593.79 173.77 598.03 173.77C599.86 173.77 602.34 173.11 604.02 171.22L597.6 209.62C595.85 220.28 587.96 226.85 575.12 226.85C566.21 226.85 560.45 223.42 560.45 217.87L560.43 217.85ZM588.9 184.2L589.7 179.75C590.28 176.54 590.94 171.57 587.07 171.57C580.21 171.57 575.17 188.87 575.17 200.55C575.17 203.54 575.83 206.32 577.72 206.32C582.1 206.32 586.92 195.15 588.89 184.2H588.9Z" fill="#E20A29"/>
<path d="M607 198.87L610.94 176.75C611.45 173.9 610.28 173.54 607.87 174.05V173.76C610.42 172.3 615.54 170.91 619.04 170.91C623.2 170.91 625.03 172.52 623.86 177.41L619.85 193.91H620.14C625.03 175.37 630.36 170.48 637.51 170.48C644.15 170.48 646.71 175.15 646.71 179.31C646.71 184.86 642.91 188.95 637.66 188.95C633.5 188.95 630.51 186.4 630.58 182.16C633.28 181.8 635.91 179.75 635.91 176.76C635.91 174.35 634.74 173.26 633.06 173.26C628.53 173.26 624.08 181.51 620.94 194.14C619.7 199.18 617.65 208.23 620.14 209.47V209.76C617.59 210.13 615.54 210.34 613.79 210.34C608.02 210.34 605.39 207.86 607 198.88V198.87Z" fill="#E20A29"/>
<path d="M687.96 187.34C687.96 199.46 677.01 210.33 664.02 210.33C653.58 210.33 646.35 203.4 646.35 193.76C646.35 181.28 657.08 170.77 670.22 170.77C680.73 170.77 687.96 177.7 687.96 187.34ZM674.6 179.82C674.6 175.51 673.8 171.5 670.15 171.5C662.12 171.5 659.71 193.84 659.71 201.43C659.71 205.74 660.51 209.61 664.09 209.61C672.19 209.61 674.6 188.44 674.6 179.83V179.82Z" fill="#E20A29"/>
<path d="M689.93 196.75C689.93 183.39 700.59 170.11 717.6 170.84L717.53 171.28C707.6 171.06 703.15 188.87 703.15 200.55C703.15 203.54 703.81 206.32 705.7 206.32C710.08 206.32 715.04 195.15 716.8 184.13L720.89 157.92C721.33 155.07 720.23 154.71 717.82 155.22V154.93C720.37 153.47 725.49 152.08 728.99 152.08C733.15 152.08 734.83 153.47 733.95 158.58L728.11 193.84C727.09 200.19 726.36 208.22 729.57 209.46V209.75C727.67 210.12 725.92 210.26 724.17 210.26C717.96 210.26 712.49 207.63 714.68 198.51L717.38 187.27L717.09 187.2C712.49 205.38 706.87 210.34 700.3 210.34C692.63 210.34 689.93 203.48 689.93 196.76V196.75Z" fill="#E20A29"/>
<path d="M771.91 193.83C770.3 203.03 770.16 208.21 773.37 209.45V209.74C771.47 210.11 769.72 210.25 767.97 210.25C761.76 210.25 756.29 207.62 758.48 198.5L761.18 187.26L760.89 187.19C756.29 205.37 750.67 210.33 744.1 210.33C736.43 210.33 733.73 203.47 733.73 196.75C733.73 183.39 745.26 170.76 758.48 170.76C762.71 170.76 765.56 173.75 769.79 173.75C771.61 173.75 774.1 173.09 775.78 171.2L771.91 193.83ZM746.94 200.55C746.94 203.54 747.6 206.32 749.49 206.32C753.87 206.32 758.69 195.15 760.66 184.2L761.46 179.75C762.04 176.54 762.7 171.5 758.83 171.5C751.97 171.5 746.93 188.87 746.93 200.55H746.94Z" fill="#E20A29"/>
</svg>
