<svg width="1080" height="1080" viewBox="0 0 1080 1080" fill="none" xmlns="http://www.w3.org/2000/svg">
<g clip-path="url(#clip0_51_724)">
<path d="M1079.37 -1.38H1.88V1076.11H1079.37V-1.38Z" fill="#FFE1F1"/>
<path d="M778.89 670.27C787.589 670.27 794.64 663.219 794.64 654.52C794.64 645.822 787.589 638.77 778.89 638.77C770.192 638.77 763.14 645.822 763.14 654.52C763.14 663.219 770.192 670.27 778.89 670.27Z" fill="#E20A29"/>
<path d="M793 686.24C802.715 686.24 810.59 678.365 810.59 668.65C810.59 658.935 802.715 651.06 793 651.06C783.285 651.06 775.41 658.935 775.41 668.65C775.41 678.365 783.285 686.24 793 686.24Z" fill="#E20A29"/>
<path d="M773.98 654.52H751.71V661.78H773.98V654.52Z" fill="#E20A29"/>
<path d="M782.89 668.65H757.15V675.91H782.89V668.65Z" fill="#E20A29"/>
<path d="M312.04 636.44C312.04 636.44 254.54 658.52 263.86 892.54C263.86 892.54 282.86 895.28 282.86 926.09C282.86 926.09 623.72 962.86 777.65 919.72C777.65 919.72 786.8 648.98 730.84 636.44C674.88 623.9 312.04 636.44 312.04 636.44V636.44Z" stroke="#E20A29" stroke-width="5" stroke-miterlimit="10"/>
<path d="M304.17 883.66C304.17 883.66 241.44 799.53 333.11 661.78L304.17 883.66Z" fill="white"/>
<path d="M262.16 894.08C262.16 894.08 253.28 933.56 271.04 938.15C288.79 942.74 290.63 953.15 290.63 953.15C290.63 953.15 287.57 968.45 302.87 969.68C318.17 970.9 323.68 969.68 323.68 969.68C323.68 969.68 327.63 969.68 330.46 959.65C333.29 949.62 343.18 951.31 343.18 951.31C343.18 951.31 522.77 965.34 710.9 949.94C710.9 949.94 721.98 951.12 720.96 967.66C720.96 967.66 724.67 972.44 741.22 970.22C757.76 968 756.75 953.14 756.75 953.14C756.75 953.14 758.1 939.64 772.96 938.29C772.96 938.29 781.4 938.63 780.73 921.41L780.77 915.44C780.77 915.44 751.73 934.42 585.3 934.99C418.87 935.56 318.89 929.21 318.89 929.21C318.89 929.21 288.24 926.5 283.23 922.54C283.23 922.54 281.14 919.62 280.73 912.74C280.31 905.86 278.85 898.98 273.01 895.22C267.17 891.47 262.18 894.08 262.18 894.08H262.16Z" fill="#E20A29"/>
<path d="M335.63 639.77C335.63 639.77 592.14 642.04 706.58 639.77C706.58 639.77 753.73 643.19 709.7 628.37C665.67 613.55 381.39 620.96 381.39 620.96C381.39 620.96 267.4 632.13 335.63 639.77Z" fill="#E20A29"/>
<path d="M465.03 718.74C482.48 718.74 490.21 730.13 490.21 742.25C490.21 764 474.37 778.68 453.78 778.68C441.01 778.68 431.22 771.01 431.22 757.88C431.22 747.09 435.14 738.68 441.73 732.61C443.52 724.89 451.94 718.75 465.02 718.75L465.03 718.74ZM454.08 777.94C465.61 777.94 475.54 754.65 475.54 735.46C475.54 728.23 472.77 719.76 462.18 719.76C453.47 719.76 445.02 724.43 442.72 731.72C448.04 727.18 454.94 724.05 462.84 722.31V722.68C455.35 726.47 450.66 735.72 448.1 745.43C449.96 746.35 452.14 746.84 454.52 746.84C458.39 746.84 460.73 744.5 460.73 740.85C460.73 737.64 458.54 735.38 455.47 735.3C454.96 730.85 459.12 727.49 463.28 727.49C468.46 727.49 471.38 730.78 471.38 734.94C471.38 742.46 462.77 747.57 455.39 747.57C452.7 747.57 450.13 747.08 447.93 746.07C446.32 752.43 445.6 758.95 445.6 764.22C445.6 772.47 448.3 777.94 454.07 777.94H454.08Z" fill="#E20A29"/>
<path d="M492.11 760.87L498.75 720.28C499.19 717.43 498.09 717.07 495.68 717.58V717.29C498.23 715.83 503.35 714.44 506.85 714.44C511.01 714.44 512.54 715.97 511.67 720.94L505.54 756.27C503.93 765.47 504.08 770.58 507.29 771.82V772.11C505.39 772.48 503.64 772.62 501.89 772.62C495.69 772.62 490.58 770.14 492.11 760.87Z" fill="#E20A29"/>
<path d="M512.77 760.87L516.64 739.12C517.15 736.27 516.06 735.91 513.57 736.42V736.13C516.12 734.67 521.24 733.28 524.74 733.28C529.34 733.28 530.21 735.25 529.41 739.78L526.49 756.28C524.88 765.48 524.74 770.59 527.95 771.83V772.12C526.05 772.49 524.3 772.63 522.55 772.63C516.42 772.63 511.09 770.15 512.77 760.88V760.87ZM519.85 730.21C521.38 727.8 522.11 722.25 519.92 719.48C521.67 716.27 525.03 714.44 528.02 714.44C530.79 714.44 534.08 715.9 534.08 719.99C534.08 725.68 527.51 730.72 519.99 730.43L519.84 730.21H519.85Z" fill="#E20A29"/>
<path d="M553.28 762.62C552.26 756.85 551.67 752.91 548.75 752.91V752.62C553.71 750.94 560.28 745.9 560.28 739.7C560.28 737.95 559.7 737.07 558.38 737.07C554.36 737.07 549.47 745.61 546.77 756.49C545.53 761.53 543.49 770.58 545.97 771.82V772.11C543.42 772.48 541.37 772.69 539.62 772.69C533.85 772.69 531.37 770.21 532.83 761.23L539.55 720.28C539.99 717.43 538.89 717.07 536.48 717.58V717.29C539.03 715.83 544.15 714.44 547.65 714.44C551.81 714.44 553.42 715.97 552.47 720.94L545.68 756.27H545.97C550.86 737.66 558.01 733.13 564.59 733.13C571.17 733.13 572.98 737.14 572.98 739.84C572.98 748.16 562.32 750.42 549.84 752.62V752.69C553.2 752.33 556.26 752.25 558.67 752.62C565.02 753.57 566.63 759.04 568.09 764.01C569.4 768.46 570.21 771.09 573.05 771.82V772.11C570.35 772.62 567.36 773.13 564.51 773.13C558.52 773.13 554.8 771.23 553.27 762.62H553.28Z" fill="#E20A29"/>
<path d="M612.19 756.19C610.58 765.39 610.44 770.57 613.65 771.81V772.1C611.75 772.47 610 772.61 608.25 772.61C602.04 772.61 596.57 769.98 598.76 760.86L601.46 749.62L601.17 749.55C596.57 767.73 590.95 772.69 584.38 772.69C576.71 772.69 574.01 765.83 574.01 759.11C574.01 745.75 585.54 733.12 598.76 733.12C602.99 733.12 605.84 736.11 610.07 736.11C611.89 736.11 614.38 735.45 616.06 733.56L612.19 756.19ZM587.22 762.91C587.22 765.9 587.88 768.68 589.77 768.68C594.15 768.68 598.97 757.51 600.94 746.56L601.74 742.11C602.32 738.9 602.98 733.86 599.11 733.86C592.25 733.86 587.21 751.23 587.21 762.91H587.22Z" fill="#E20A29"/>
<path d="M367.72 850.22C366.7 844.45 366.11 840.51 363.19 840.51V840.22C368.15 838.54 374.72 833.5 374.72 827.3C374.72 825.55 374.14 824.67 372.82 824.67C368.81 824.67 363.91 833.21 361.21 844.09C359.97 849.13 357.92 858.18 360.41 859.42V859.71C357.86 860.08 355.81 860.29 354.06 860.29C348.29 860.29 345.81 857.81 347.27 848.83L353.99 807.88C354.43 805.03 353.33 804.67 350.92 805.18V804.89C353.47 803.43 358.58 802.04 362.09 802.04C366.25 802.04 367.86 803.57 366.91 808.54L360.12 843.87H360.41C365.3 825.26 372.45 820.73 379.02 820.73C385.59 820.73 387.42 824.74 387.42 827.44C387.42 835.76 376.76 838.02 364.28 840.22V840.29C367.64 839.93 370.7 839.85 373.11 840.22C379.46 841.17 381.07 846.64 382.53 851.61C383.84 856.06 384.65 858.69 387.49 859.42V859.71C384.79 860.22 381.8 860.73 378.95 860.73C372.96 860.73 369.24 858.83 367.71 850.22H367.72Z" fill="#E20A29"/>
<path d="M426.63 843.79C425.02 852.99 424.88 858.17 428.09 859.41V859.7C426.19 860.07 424.44 860.21 422.69 860.21C416.48 860.21 411.01 857.58 413.2 848.46L415.9 837.22L415.61 837.15C411.01 855.33 405.39 860.29 398.82 860.29C391.15 860.29 388.45 853.43 388.45 846.71C388.45 833.35 399.98 820.72 413.2 820.72C417.43 820.72 420.28 823.71 424.52 823.71C426.35 823.71 428.83 823.05 430.51 821.16L426.64 843.79H426.63ZM401.67 850.51C401.67 853.5 402.33 856.28 404.22 856.28C408.6 856.28 413.42 845.11 415.39 834.16L416.19 829.71C416.77 826.5 417.43 821.46 413.56 821.46C406.7 821.46 401.66 838.83 401.66 850.51H401.67Z" fill="#E20A29"/>
<path d="M436.63 822.04H433.34L433.49 821.31C444 821.31 449.7 817.88 451.52 807.51H452.25L449.91 821.31H455.02L454.87 822.04H449.83L446.18 844.16C444.57 854.09 444.5 858.18 448.44 859.42V859.71C445.81 860.08 444.06 860.22 442.31 860.22C436.1 860.22 431.07 857.74 432.53 848.47L436.62 822.05L436.63 822.04Z" fill="#E20A29"/>
<path d="M451.59 844.52C451.59 831.82 461.37 820.72 475.31 820.72C481.3 820.79 489.62 822.25 489.62 829.04C489.62 834.44 482.32 839.7 465.9 836.71L466.05 836.05C474.66 836.71 478.82 830.5 478.82 825.98C478.82 823.35 477.8 821.45 475.32 821.45C469.19 821.45 465.1 831.23 465.1 839.12C465.1 847.01 469.04 851.31 474.95 851.46C478.82 851.53 484 850.37 487.29 845.84L487.8 846.06C482.84 855.04 474.95 860.29 466.41 860.29C457.87 860.29 451.59 854.23 451.59 844.52Z" fill="#E20A29"/>
<path d="M489.56 867.81C489.56 864.16 492.19 861.17 496.2 861.17C499.56 861.17 502.48 863.65 502.26 867.74C500.36 868.03 498.61 869.71 498.61 871.83C498.61 873.73 499.92 876.06 504.23 876.06C511.09 876.06 511.9 869.78 512.77 865.55L518.54 837.23L518.25 837.16C513.65 855.34 508.03 860.3 501.46 860.3C493.79 860.3 491.09 853.44 491.09 846.72C491.09 833.36 502.62 820.81 515.84 820.81C520.07 820.81 522.92 823.73 527.15 823.73C528.97 823.73 531.46 823.07 533.14 821.18L526.72 859.58C524.97 870.24 517.08 876.81 504.24 876.81C495.33 876.81 489.57 873.38 489.57 867.83L489.56 867.81ZM518.03 834.16L518.83 829.71C519.41 826.5 520.07 821.53 516.2 821.53C509.34 821.53 504.3 838.83 504.3 850.51C504.3 853.5 504.96 856.28 506.85 856.28C511.23 856.28 516.05 845.11 518.02 834.16H518.03Z" fill="#E20A29"/>
<path d="M576.2 837.3C576.2 849.42 565.25 860.29 552.26 860.29C541.82 860.29 534.59 853.36 534.59 843.72C534.59 831.24 545.32 820.73 558.46 820.73C568.97 820.73 576.2 827.66 576.2 837.3ZM562.84 829.78C562.84 825.47 562.04 821.46 558.39 821.46C550.36 821.46 547.95 843.8 547.95 851.39C547.95 855.7 548.75 859.57 552.33 859.57C560.43 859.57 562.84 838.4 562.84 829.79V829.78Z" fill="#E20A29"/>
<path d="M579.42 848.83L583.36 826.71C583.87 823.86 582.7 823.5 580.29 824.01V823.72C582.84 822.26 587.96 820.87 591.46 820.87C595.62 820.87 597.45 822.48 596.28 827.37L592.27 843.87H592.56C597.45 825.33 602.78 820.44 609.93 820.44C616.57 820.44 619.13 825.11 619.13 829.27C619.13 834.82 615.33 838.91 610.08 838.91C605.92 838.91 602.93 836.36 603 832.12C605.7 831.76 608.33 829.71 608.33 826.72C608.33 824.31 607.16 823.22 605.48 823.22C600.95 823.22 596.5 831.47 593.36 844.1C592.12 849.14 590.08 858.19 592.56 859.43V859.72C590.01 860.09 587.96 860.3 586.21 860.3C580.44 860.3 577.82 857.82 579.42 848.84V848.83Z" fill="#E20A29"/>
<path d="M619.64 848.46L623.51 826.71C624.02 823.86 622.93 823.5 620.44 824.01V823.72C622.99 822.26 628.11 820.87 631.61 820.87C636.21 820.87 637.08 822.84 636.28 827.37L633.36 843.87C631.75 853.07 631.61 858.18 634.82 859.42V859.71C632.92 860.08 631.17 860.22 629.42 860.22C623.29 860.22 617.96 857.74 619.64 848.47V848.46ZM626.72 817.8C628.25 815.39 628.98 809.84 626.79 807.07C628.54 803.86 631.9 802.03 634.89 802.03C637.66 802.03 640.95 803.49 640.95 807.58C640.95 813.27 634.38 818.31 626.86 818.02L626.71 817.8H626.72Z" fill="#E20A29"/>
<path d="M639.28 844.52C639.28 831.82 649.06 820.72 663 820.72C668.99 820.79 677.31 822.25 677.31 829.04C677.31 834.44 670.01 839.7 653.59 836.71L653.74 836.05C662.35 836.71 666.51 830.5 666.51 825.98C666.51 823.35 665.49 821.45 663.01 821.45C656.88 821.45 652.79 831.23 652.79 839.12C652.79 847.01 656.73 851.31 662.64 851.46C666.51 851.53 671.69 850.37 674.98 845.84L675.49 846.06C670.53 855.04 662.64 860.29 654.1 860.29C645.56 860.29 639.28 854.23 639.28 844.52Z" fill="#E20A29"/>
<path d="M680.01 848.83L683.95 826.71C684.46 823.86 683.29 823.5 680.88 824.01V823.72C683.43 822.26 688.55 820.87 692.05 820.87C696.21 820.87 698.04 822.48 696.87 827.37L692.86 843.87H693.15C698.04 825.33 703.37 820.44 710.52 820.44C717.16 820.44 719.72 825.11 719.72 829.27C719.72 834.82 715.92 838.91 710.67 838.91C706.51 838.91 703.52 836.36 703.59 832.12C706.29 831.76 708.92 829.71 708.92 826.72C708.92 824.31 707.75 823.22 706.07 823.22C701.54 823.22 697.09 831.47 693.95 844.1C692.71 849.14 690.66 858.19 693.15 859.43V859.72C690.6 860.09 688.55 860.3 686.8 860.3C681.03 860.3 678.4 857.82 680.01 848.84V848.83Z" fill="#E20A29"/>
<path d="M425.68 436.71H350.91V526.04H425.68V436.71Z" fill="#E20A29"/>
<path d="M417.27 521.87C417.27 522.97 416.36 524.52 414.94 526.04H360.16C360.3 522.3 361.32 518.63 362.63 516.75C365.9 512.1 361.32 493.58 362.95 486.02C364.58 478.47 361.22 470.73 361.22 460.27C361.22 449.81 376.21 459.65 381.36 454.46C387.24 448.53 399.01 448.92 407.47 450.18C412.96 450.99 416.77 456.44 415.93 462.29C414.31 473.57 413.48 490.49 413.46 495.58C413.42 503.48 417.27 518.39 417.27 521.87Z" fill="white"/>
<path d="M375.86 478.22C376.589 478.22 377.18 477.629 377.18 476.9C377.18 476.171 376.589 475.58 375.86 475.58C375.131 475.58 374.54 476.171 374.54 476.9C374.54 477.629 375.131 478.22 375.86 478.22Z" fill="#E20A29"/>
<path d="M398.63 474.76C399.359 474.76 399.95 474.169 399.95 473.44C399.95 472.711 399.359 472.12 398.63 472.12C397.901 472.12 397.31 472.711 397.31 473.44C397.31 474.169 397.901 474.76 398.63 474.76Z" fill="#E20A29"/>
<path d="M388.08 484.92C388.809 484.92 389.4 484.329 389.4 483.6C389.4 482.871 388.809 482.28 388.08 482.28C387.351 482.28 386.76 482.871 386.76 483.6C386.76 484.329 387.351 484.92 388.08 484.92Z" fill="#E20A29"/>
<path d="M376.7 492.17C377.429 492.17 378.02 491.579 378.02 490.85C378.02 490.121 377.429 489.53 376.7 489.53C375.971 489.53 375.38 490.121 375.38 490.85C375.38 491.579 375.971 492.17 376.7 492.17Z" fill="#E20A29"/>
<path d="M399.47 488.72C400.199 488.72 400.79 488.129 400.79 487.4C400.79 486.671 400.199 486.08 399.47 486.08C398.741 486.08 398.15 486.671 398.15 487.4C398.15 488.129 398.741 488.72 399.47 488.72Z" fill="#E20A29"/>
<path d="M388.93 498.87C389.659 498.87 390.25 498.279 390.25 497.55C390.25 496.821 389.659 496.23 388.93 496.23C388.201 496.23 387.61 496.821 387.61 497.55C387.61 498.279 388.201 498.87 388.93 498.87Z" fill="#E20A29"/>
<path d="M377.32 506.13C378.049 506.13 378.64 505.539 378.64 504.81C378.64 504.081 378.049 503.49 377.32 503.49C376.591 503.49 376 504.081 376 504.81C376 505.539 376.591 506.13 377.32 506.13Z" fill="#E20A29"/>
<path d="M400.09 502.67C400.819 502.67 401.41 502.079 401.41 501.35C401.41 500.621 400.819 500.03 400.09 500.03C399.361 500.03 398.77 500.621 398.77 501.35C398.77 502.079 399.361 502.67 400.09 502.67Z" fill="#E20A29"/>
<path d="M389.55 512.83C390.279 512.83 390.87 512.239 390.87 511.51C390.87 510.781 390.279 510.19 389.55 510.19C388.821 510.19 388.23 510.781 388.23 511.51C388.23 512.239 388.821 512.83 389.55 512.83Z" fill="#E20A29"/>
<path d="M378.02 520.08C378.749 520.08 379.34 519.489 379.34 518.76C379.34 518.031 378.749 517.44 378.02 517.44C377.291 517.44 376.7 518.031 376.7 518.76C376.7 519.489 377.291 520.08 378.02 520.08Z" fill="#E20A29"/>
<path d="M400.79 516.63C401.519 516.63 402.11 516.039 402.11 515.31C402.11 514.581 401.519 513.99 400.79 513.99C400.061 513.99 399.47 514.581 399.47 515.31C399.47 516.039 400.061 516.63 400.79 516.63Z" fill="#E20A29"/>
<path d="M391.57 525.46C391.57 525.67 391.52 525.87 391.43 526.04H389.07C388.98 525.87 388.93 525.67 388.93 525.46C388.93 524.73 389.52 524.14 390.25 524.14C390.98 524.14 391.57 524.73 391.57 525.46Z" fill="#E20A29"/>
<path d="M387.61 470.96C388.339 470.96 388.93 470.369 388.93 469.64C388.93 468.911 388.339 468.32 387.61 468.32C386.881 468.32 386.29 468.911 386.29 469.64C386.29 470.369 386.881 470.96 387.61 470.96Z" fill="#E20A29"/>
<path d="M374.54 466.67C375.269 466.67 375.86 466.079 375.86 465.35C375.86 464.621 375.269 464.03 374.54 464.03C373.811 464.03 373.22 464.621 373.22 465.35C373.22 466.079 373.811 466.67 374.54 466.67Z" fill="#E20A29"/>
<path d="M398.77 460.81C399.499 460.81 400.09 460.219 400.09 459.49C400.09 458.761 399.499 458.17 398.77 458.17C398.041 458.17 397.45 458.761 397.45 459.49C397.45 460.219 398.041 460.81 398.77 460.81Z" fill="#E20A29"/>
<path d="M409 470.96C409.729 470.96 410.32 470.369 410.32 469.64C410.32 468.911 409.729 468.32 409 468.32C408.271 468.32 407.68 468.911 407.68 469.64C407.68 470.369 408.271 470.96 409 470.96Z" fill="#E20A29"/>
<path d="M409.85 484.92C410.579 484.92 411.17 484.329 411.17 483.6C411.17 482.871 410.579 482.28 409.85 482.28C409.121 482.28 408.53 482.871 408.53 483.6C408.53 484.329 409.121 484.92 409.85 484.92Z" fill="#E20A29"/>
<path d="M410.47 498.87C411.199 498.87 411.79 498.279 411.79 497.55C411.79 496.821 411.199 496.23 410.47 496.23C409.741 496.23 409.15 496.821 409.15 497.55C409.15 498.279 409.741 498.87 410.47 498.87Z" fill="#E20A29"/>
<path d="M411.48 512.83C412.209 512.83 412.8 512.239 412.8 511.51C412.8 510.781 412.209 510.19 411.48 510.19C410.751 510.19 410.16 510.781 410.16 511.51C410.16 512.239 410.751 512.83 411.48 512.83Z" fill="#E20A29"/>
<path d="M368.74 514.15C369.469 514.15 370.06 513.559 370.06 512.83C370.06 512.101 369.469 511.51 368.74 511.51C368.011 511.51 367.42 512.101 367.42 512.83C367.42 513.559 368.011 514.15 368.74 514.15Z" fill="#E20A29"/>
<path d="M367 484.92C367.729 484.92 368.32 484.329 368.32 483.6C368.32 482.871 367.729 482.28 367 482.28C366.271 482.28 365.68 482.871 365.68 483.6C365.68 484.329 366.271 484.92 367 484.92Z" fill="#E20A29"/>
<path d="M367.84 498.87C368.569 498.87 369.16 498.279 369.16 497.55C369.16 496.821 368.569 496.23 367.84 496.23C367.111 496.23 366.52 496.821 366.52 497.55C366.52 498.279 367.111 498.87 367.84 498.87Z" fill="#E20A29"/>
<path d="M367 472.29C367.729 472.29 368.32 471.699 368.32 470.97C368.32 470.241 367.729 469.65 367 469.65C366.271 469.65 365.68 470.241 365.68 470.97C365.68 471.699 366.271 472.29 367 472.29Z" fill="#E20A29"/>
<path d="M357.79 436.79C358.47 439.12 358.48 441.48 357.79 443.81C357.1 441.48 357.11 439.12 357.79 436.79Z" fill="#FFE1F1"/>
<path d="M364.67 436.79C365.35 439.12 365.36 441.48 364.67 443.81C363.98 441.48 363.99 439.12 364.67 436.79Z" fill="#FFE1F1"/>
<path d="M370.84 436.79C371.52 439.12 371.53 441.48 370.84 443.81C370.15 441.48 370.16 439.12 370.84 436.79Z" fill="#FFE1F1"/>
<path d="M377.72 436.79C378.4 439.12 378.41 441.48 377.72 443.81C377.03 441.48 377.04 439.12 377.72 436.79Z" fill="#FFE1F1"/>
<path d="M384.85 436.79C385.53 439.12 385.54 441.48 384.85 443.81C384.16 441.48 384.17 439.12 384.85 436.79Z" fill="#FFE1F1"/>
<path d="M391.73 436.79C392.41 439.12 392.42 441.48 391.73 443.81C391.04 441.48 391.05 439.12 391.73 436.79Z" fill="#FFE1F1"/>
<path d="M397.9 436.79C398.58 439.12 398.59 441.48 397.9 443.81C397.21 441.48 397.22 439.12 397.9 436.79Z" fill="#FFE1F1"/>
<path d="M404.78 436.79C405.46 439.12 405.47 441.48 404.78 443.81C404.09 441.48 404.1 439.12 404.78 436.79Z" fill="#FFE1F1"/>
<path d="M411.91 436.92C412.59 439.25 412.6 441.61 411.91 443.94C411.22 441.61 411.23 439.25 411.91 436.92Z" fill="#FFE1F1"/>
<path d="M418.79 436.92C419.47 439.25 419.48 441.61 418.79 443.94C418.1 441.61 418.11 439.25 418.79 436.92Z" fill="#FFE1F1"/>
<path d="M418.83 511.94C421.16 511.26 423.52 511.25 425.85 511.94C423.52 512.63 421.16 512.62 418.83 511.94Z" fill="#FFE1F1"/>
<path d="M418.83 505.05C421.16 504.37 423.52 504.36 425.85 505.05C423.52 505.74 421.16 505.73 418.83 505.05Z" fill="#FFE1F1"/>
<path d="M418.83 498.89C421.16 498.21 423.52 498.2 425.85 498.89C423.52 499.58 421.16 499.57 418.83 498.89Z" fill="#FFE1F1"/>
<path d="M418.83 492C421.16 491.32 423.52 491.31 425.85 492C423.52 492.69 421.16 492.68 418.83 492Z" fill="#FFE1F1"/>
<path d="M418.83 484.88C421.16 484.2 423.52 484.19 425.85 484.88C423.52 485.57 421.16 485.56 418.83 484.88Z" fill="#FFE1F1"/>
<path d="M418.83 477.99C421.16 477.31 423.52 477.3 425.85 477.99C423.52 478.68 421.16 478.67 418.83 477.99Z" fill="#FFE1F1"/>
<path d="M418.83 471.83C421.16 471.15 423.52 471.14 425.85 471.83C423.52 472.52 421.16 472.51 418.83 471.83Z" fill="#FFE1F1"/>
<path d="M418.83 464.94C421.16 464.26 423.52 464.25 425.85 464.94C423.52 465.63 421.16 465.62 418.83 464.94Z" fill="#FFE1F1"/>
<path d="M418.97 457.82C421.3 457.14 423.66 457.13 425.99 457.82C423.66 458.51 421.3 458.5 418.97 457.82Z" fill="#FFE1F1"/>
<path d="M418.97 450.93C421.3 450.25 423.66 450.24 425.99 450.93C423.66 451.62 421.3 451.61 418.97 450.93Z" fill="#FFE1F1"/>
<path d="M351.01 511.91C353.34 511.23 355.7 511.22 358.03 511.91C355.7 512.6 353.34 512.59 351.01 511.91Z" fill="#FFE1F1"/>
<path d="M351.01 505.02C353.34 504.34 355.7 504.33 358.03 505.02C355.7 505.71 353.34 505.7 351.01 505.02Z" fill="#FFE1F1"/>
<path d="M351.01 498.85C353.34 498.17 355.7 498.16 358.03 498.85C355.7 499.54 353.34 499.53 351.01 498.85Z" fill="#FFE1F1"/>
<path d="M351.01 491.97C353.34 491.29 355.7 491.28 358.03 491.97C355.7 492.66 353.34 492.65 351.01 491.97Z" fill="#FFE1F1"/>
<path d="M351.01 484.85C353.34 484.17 355.7 484.16 358.03 484.85C355.7 485.54 353.34 485.53 351.01 484.85Z" fill="#FFE1F1"/>
<path d="M351.01 477.96C353.34 477.28 355.7 477.27 358.03 477.96C355.7 478.65 353.34 478.64 351.01 477.96Z" fill="#FFE1F1"/>
<path d="M351.01 471.79C353.34 471.11 355.7 471.1 358.03 471.79C355.7 472.48 353.34 472.47 351.01 471.79Z" fill="#FFE1F1"/>
<path d="M351.01 464.91C353.34 464.23 355.7 464.22 358.03 464.91C355.7 465.6 353.34 465.59 351.01 464.91Z" fill="#FFE1F1"/>
<path d="M351.15 457.79C353.48 457.11 355.84 457.1 358.17 457.79C355.84 458.48 353.48 458.47 351.15 457.79Z" fill="#FFE1F1"/>
<path d="M351.15 450.9C353.48 450.22 355.84 450.21 358.17 450.9C355.84 451.59 353.48 451.58 351.15 450.9Z" fill="#FFE1F1"/>
<path d="M351.08 525.68C353.41 525 355.77 524.99 358.1 525.68C355.77 526.37 353.41 526.36 351.08 525.68Z" fill="#FFE1F1"/>
<path d="M351.08 518.79C353.41 518.11 355.77 518.1 358.1 518.79C355.77 519.48 353.41 519.47 351.08 518.79Z" fill="#FFE1F1"/>
<path d="M418.9 525.71C421.23 525.03 423.59 525.02 425.92 525.71C423.59 526.4 421.23 526.39 418.9 525.71Z" fill="#FFE1F1"/>
<path d="M418.9 518.83C421.23 518.15 423.59 518.14 425.92 518.83C423.59 519.52 421.23 519.51 418.9 518.83Z" fill="#FFE1F1"/>
<path d="M387.61 459.11C388.339 459.11 388.93 458.519 388.93 457.79C388.93 457.061 388.339 456.47 387.61 456.47C386.881 456.47 386.29 457.061 386.29 457.79C386.29 458.519 386.881 459.11 387.61 459.11Z" fill="#E20A29"/>
<path d="M407.68 525.46C408.409 525.46 409 524.869 409 524.14C409 523.411 408.409 522.82 407.68 522.82C406.951 522.82 406.36 523.411 406.36 524.14C406.36 524.869 406.951 525.46 407.68 525.46Z" fill="#E20A29"/>
<path d="M524.45 422.11H449.67V526.04H524.45V422.11Z" fill="#E20A29"/>
<path d="M480.12 439.86C474.98 445.05 459.99 435.21 459.99 445.67C459.99 456.13 463.35 463.87 461.72 471.42C460.09 478.97 464.67 497.5 461.4 502.14C458.14 506.79 456.73 522.38 465.98 522.96C475.23 523.54 495.91 513.08 501.35 515.99C506.79 518.9 516.04 510.76 516.04 507.27C516.04 503.78 512.19 488.87 512.23 480.98C512.25 475.89 513.08 458.97 514.7 447.68C515.54 441.83 511.73 436.39 506.25 435.57C497.79 434.31 486.02 433.92 480.13 439.86H480.12Z" fill="white"/>
<path d="M474.62 463.61C475.349 463.61 475.94 463.019 475.94 462.29C475.94 461.561 475.349 460.97 474.62 460.97C473.891 460.97 473.3 461.561 473.3 462.29C473.3 463.019 473.891 463.61 474.62 463.61Z" fill="#E20A29"/>
<path d="M497.39 460.16C498.119 460.16 498.71 459.569 498.71 458.84C498.71 458.111 498.119 457.52 497.39 457.52C496.661 457.52 496.07 458.111 496.07 458.84C496.07 459.569 496.661 460.16 497.39 460.16Z" fill="#E20A29"/>
<path d="M486.85 470.31C487.579 470.31 488.17 469.719 488.17 468.99C488.17 468.261 487.579 467.67 486.85 467.67C486.121 467.67 485.53 468.261 485.53 468.99C485.53 469.719 486.121 470.31 486.85 470.31Z" fill="#E20A29"/>
<path d="M475.47 477.57C476.199 477.57 476.79 476.979 476.79 476.25C476.79 475.521 476.199 474.93 475.47 474.93C474.741 474.93 474.15 475.521 474.15 476.25C474.15 476.979 474.741 477.57 475.47 477.57Z" fill="#E20A29"/>
<path d="M498.24 474.11C498.969 474.11 499.56 473.519 499.56 472.79C499.56 472.061 498.969 471.47 498.24 471.47C497.511 471.47 496.92 472.061 496.92 472.79C496.92 473.519 497.511 474.11 498.24 474.11Z" fill="#E20A29"/>
<path d="M487.7 484.27C488.429 484.27 489.02 483.679 489.02 482.95C489.02 482.221 488.429 481.63 487.7 481.63C486.971 481.63 486.38 482.221 486.38 482.95C486.38 483.679 486.971 484.27 487.7 484.27Z" fill="#E20A29"/>
<path d="M476.09 491.52C476.819 491.52 477.41 490.929 477.41 490.2C477.41 489.471 476.819 488.88 476.09 488.88C475.361 488.88 474.77 489.471 474.77 490.2C474.77 490.929 475.361 491.52 476.09 491.52Z" fill="#E20A29"/>
<path d="M498.86 488.06C499.589 488.06 500.18 487.469 500.18 486.74C500.18 486.011 499.589 485.42 498.86 485.42C498.131 485.42 497.54 486.011 497.54 486.74C497.54 487.469 498.131 488.06 498.86 488.06Z" fill="#E20A29"/>
<path d="M488.32 498.22C489.049 498.22 489.64 497.629 489.64 496.9C489.64 496.171 489.049 495.58 488.32 495.58C487.591 495.58 487 496.171 487 496.9C487 497.629 487.591 498.22 488.32 498.22Z" fill="#E20A29"/>
<path d="M476.79 505.48C477.519 505.48 478.11 504.889 478.11 504.16C478.11 503.431 477.519 502.84 476.79 502.84C476.061 502.84 475.47 503.431 475.47 504.16C475.47 504.889 476.061 505.48 476.79 505.48Z" fill="#E20A29"/>
<path d="M499.56 502.02C500.289 502.02 500.88 501.429 500.88 500.7C500.88 499.971 500.289 499.38 499.56 499.38C498.831 499.38 498.24 499.971 498.24 500.7C498.24 501.429 498.831 502.02 499.56 502.02Z" fill="#E20A29"/>
<path d="M489.02 512.17C489.749 512.17 490.34 511.579 490.34 510.85C490.34 510.121 489.749 509.53 489.02 509.53C488.291 509.53 487.7 510.121 487.7 510.85C487.7 511.579 488.291 512.17 489.02 512.17Z" fill="#E20A29"/>
<path d="M486.37 456.36C487.099 456.36 487.69 455.769 487.69 455.04C487.69 454.311 487.099 453.72 486.37 453.72C485.641 453.72 485.05 454.311 485.05 455.04C485.05 455.769 485.641 456.36 486.37 456.36Z" fill="#E20A29"/>
<path d="M473.3 452.06C474.029 452.06 474.62 451.469 474.62 450.74C474.62 450.011 474.029 449.42 473.3 449.42C472.571 449.42 471.98 450.011 471.98 450.74C471.98 451.469 472.571 452.06 473.3 452.06Z" fill="#E20A29"/>
<path d="M497.54 446.2C498.269 446.2 498.86 445.609 498.86 444.88C498.86 444.151 498.269 443.56 497.54 443.56C496.811 443.56 496.22 444.151 496.22 444.88C496.22 445.609 496.811 446.2 497.54 446.2Z" fill="#E20A29"/>
<path d="M507.77 456.36C508.499 456.36 509.09 455.769 509.09 455.04C509.09 454.311 508.499 453.72 507.77 453.72C507.041 453.72 506.45 454.311 506.45 455.04C506.45 455.769 507.041 456.36 507.77 456.36Z" fill="#E20A29"/>
<path d="M508.62 470.31C509.349 470.31 509.94 469.719 509.94 468.99C509.94 468.261 509.349 467.67 508.62 467.67C507.891 467.67 507.3 468.261 507.3 468.99C507.3 469.719 507.891 470.31 508.62 470.31Z" fill="#E20A29"/>
<path d="M509.24 484.27C509.969 484.27 510.56 483.679 510.56 482.95C510.56 482.221 509.969 481.63 509.24 481.63C508.511 481.63 507.92 482.221 507.92 482.95C507.92 483.679 508.511 484.27 509.24 484.27Z" fill="#E20A29"/>
<path d="M510.25 498.22C510.979 498.22 511.57 497.629 511.57 496.9C511.57 496.171 510.979 495.58 510.25 495.58C509.521 495.58 508.93 496.171 508.93 496.9C508.93 497.629 509.521 498.22 510.25 498.22Z" fill="#E20A29"/>
<path d="M467.51 499.54C468.239 499.54 468.83 498.949 468.83 498.22C468.83 497.491 468.239 496.9 467.51 496.9C466.781 496.9 466.19 497.491 466.19 498.22C466.19 498.949 466.781 499.54 467.51 499.54Z" fill="#E20A29"/>
<path d="M468.83 516.93C469.559 516.93 470.15 516.339 470.15 515.61C470.15 514.881 469.559 514.29 468.83 514.29C468.101 514.29 467.51 514.881 467.51 515.61C467.51 516.339 468.101 516.93 468.83 516.93Z" fill="#E20A29"/>
<path d="M465.77 470.31C466.499 470.31 467.09 469.719 467.09 468.99C467.09 468.261 466.499 467.67 465.77 467.67C465.041 467.67 464.45 468.261 464.45 468.99C464.45 469.719 465.041 470.31 465.77 470.31Z" fill="#E20A29"/>
<path d="M466.61 484.27C467.339 484.27 467.93 483.679 467.93 482.95C467.93 482.221 467.339 481.63 466.61 481.63C465.881 481.63 465.29 482.221 465.29 482.95C465.29 483.679 465.881 484.27 466.61 484.27Z" fill="#E20A29"/>
<path d="M465.77 457.68C466.499 457.68 467.09 457.089 467.09 456.36C467.09 455.631 466.499 455.04 465.77 455.04C465.041 455.04 464.45 455.631 464.45 456.36C464.45 457.089 465.041 457.68 465.77 457.68Z" fill="#E20A29"/>
<path d="M456.55 422.18C457.23 424.51 457.24 426.87 456.55 429.2C455.86 426.87 455.87 424.51 456.55 422.18Z" fill="#FFE1F1"/>
<path d="M463.44 422.18C464.12 424.51 464.13 426.87 463.44 429.2C462.75 426.87 462.76 424.51 463.44 422.18Z" fill="#FFE1F1"/>
<path d="M469.6 422.18C470.28 424.51 470.29 426.87 469.6 429.2C468.91 426.87 468.92 424.51 469.6 422.18Z" fill="#FFE1F1"/>
<path d="M476.49 422.18C477.17 424.51 477.18 426.87 476.49 429.2C475.8 426.87 475.81 424.51 476.49 422.18Z" fill="#FFE1F1"/>
<path d="M483.61 422.18C484.29 424.51 484.3 426.87 483.61 429.2C482.92 426.87 482.93 424.51 483.61 422.18Z" fill="#FFE1F1"/>
<path d="M490.5 422.18C491.18 424.51 491.19 426.87 490.5 429.2C489.81 426.87 489.82 424.51 490.5 422.18Z" fill="#FFE1F1"/>
<path d="M496.67 422.18C497.35 424.51 497.36 426.87 496.67 429.2C495.98 426.87 495.99 424.51 496.67 422.18Z" fill="#FFE1F1"/>
<path d="M503.55 422.18C504.23 424.51 504.24 426.87 503.55 429.2C502.86 426.87 502.87 424.51 503.55 422.18Z" fill="#FFE1F1"/>
<path d="M510.67 422.32C511.35 424.65 511.36 427.01 510.67 429.34C509.98 427.01 509.99 424.65 510.67 422.32Z" fill="#FFE1F1"/>
<path d="M517.56 422.32C518.24 424.65 518.25 427.01 517.56 429.34C516.87 427.01 516.88 424.65 517.56 422.32Z" fill="#FFE1F1"/>
<path d="M517.6 497.33C519.93 496.65 522.29 496.64 524.62 497.33C522.29 498.02 519.93 498.01 517.6 497.33Z" fill="#FFE1F1"/>
<path d="M517.6 490.45C519.93 489.77 522.29 489.76 524.62 490.45C522.29 491.14 519.93 491.13 517.6 490.45Z" fill="#FFE1F1"/>
<path d="M517.6 484.28C519.93 483.6 522.29 483.59 524.62 484.28C522.29 484.97 519.93 484.96 517.6 484.28Z" fill="#FFE1F1"/>
<path d="M517.6 477.4C519.93 476.72 522.29 476.71 524.62 477.4C522.29 478.09 519.93 478.08 517.6 477.4Z" fill="#FFE1F1"/>
<path d="M517.6 470.27C519.93 469.59 522.29 469.58 524.62 470.27C522.29 470.96 519.93 470.95 517.6 470.27Z" fill="#FFE1F1"/>
<path d="M517.6 463.39C519.93 462.71 522.29 462.7 524.62 463.39C522.29 464.08 519.93 464.07 517.6 463.39Z" fill="#FFE1F1"/>
<path d="M517.6 457.22C519.93 456.54 522.29 456.53 524.62 457.22C522.29 457.91 519.93 457.9 517.6 457.22Z" fill="#FFE1F1"/>
<path d="M517.6 450.34C519.93 449.66 522.29 449.65 524.62 450.34C522.29 451.03 519.93 451.02 517.6 450.34Z" fill="#FFE1F1"/>
<path d="M517.73 443.21C520.06 442.53 522.42 442.52 524.75 443.21C522.42 443.9 520.06 443.89 517.73 443.21Z" fill="#FFE1F1"/>
<path d="M517.73 436.33C520.06 435.65 522.42 435.64 524.75 436.33C522.42 437.02 520.06 437.01 517.73 436.33Z" fill="#FFE1F1"/>
<path d="M449.77 497.3C452.1 496.62 454.46 496.61 456.79 497.3C454.46 497.99 452.1 497.98 449.77 497.3Z" fill="#FFE1F1"/>
<path d="M449.77 490.41C452.1 489.73 454.46 489.72 456.79 490.41C454.46 491.1 452.1 491.09 449.77 490.41Z" fill="#FFE1F1"/>
<path d="M449.77 484.25C452.1 483.57 454.46 483.56 456.79 484.25C454.46 484.94 452.1 484.93 449.77 484.25Z" fill="#FFE1F1"/>
<path d="M449.77 477.36C452.1 476.68 454.46 476.67 456.79 477.36C454.46 478.05 452.1 478.04 449.77 477.36Z" fill="#FFE1F1"/>
<path d="M449.77 470.24C452.1 469.56 454.46 469.55 456.79 470.24C454.46 470.93 452.1 470.92 449.77 470.24Z" fill="#FFE1F1"/>
<path d="M449.77 463.35C452.1 462.67 454.46 462.66 456.79 463.35C454.46 464.04 452.1 464.03 449.77 463.35Z" fill="#FFE1F1"/>
<path d="M449.77 457.19C452.1 456.51 454.46 456.5 456.79 457.19C454.46 457.88 452.1 457.87 449.77 457.19Z" fill="#FFE1F1"/>
<path d="M449.77 450.3C452.1 449.62 454.46 449.61 456.79 450.3C454.46 450.99 452.1 450.98 449.77 450.3Z" fill="#FFE1F1"/>
<path d="M449.91 443.18C452.24 442.5 454.6 442.49 456.93 443.18C454.6 443.87 452.24 443.86 449.91 443.18Z" fill="#FFE1F1"/>
<path d="M449.91 436.29C452.24 435.61 454.6 435.6 456.93 436.29C454.6 436.98 452.24 436.97 449.91 436.29Z" fill="#FFE1F1"/>
<path d="M449.7 518.19C452.03 517.51 454.39 517.5 456.72 518.19C454.39 518.88 452.03 518.87 449.7 518.19Z" fill="#FFE1F1"/>
<path d="M449.84 511.07C452.17 510.39 454.53 510.38 456.86 511.07C454.53 511.76 452.17 511.75 449.84 511.07Z" fill="#FFE1F1"/>
<path d="M449.84 504.19C452.17 503.51 454.53 503.5 456.86 504.19C454.53 504.88 452.17 504.87 449.84 504.19Z" fill="#FFE1F1"/>
<path d="M517.53 518.23C519.86 517.55 522.22 517.54 524.55 518.23C522.22 518.92 519.86 518.91 517.53 518.23Z" fill="#FFE1F1"/>
<path d="M517.67 511.11C520 510.43 522.36 510.42 524.69 511.11C522.36 511.8 520 511.79 517.67 511.11Z" fill="#FFE1F1"/>
<path d="M517.67 504.22C520 503.54 522.36 503.53 524.69 504.22C522.36 504.91 520 504.9 517.67 504.22Z" fill="#FFE1F1"/>
<path d="M456.5 526.04C455.83 525.81 455.82 525.51 456.5 525.28C457.18 525.51 457.17 525.81 456.5 526.04Z" fill="#FFE1F1"/>
<path d="M463.38 526.04C462.71 525.81 462.7 525.51 463.38 525.28C464.06 525.51 464.05 525.81 463.38 526.04Z" fill="#FFE1F1"/>
<path d="M469.55 526.04C468.88 525.81 468.87 525.51 469.55 525.28C470.23 525.51 470.22 525.81 469.55 526.04Z" fill="#FFE1F1"/>
<path d="M476.43 526.04C475.76 525.81 475.75 525.51 476.43 525.28C477.11 525.51 477.1 525.81 476.43 526.04Z" fill="#FFE1F1"/>
<path d="M483.56 526.04C482.89 525.81 482.88 525.51 483.56 525.28C484.24 525.51 484.23 525.81 483.56 526.04Z" fill="#FFE1F1"/>
<path d="M490.44 526.04C489.77 525.81 489.76 525.51 490.44 525.28C491.12 525.51 491.11 525.81 490.44 526.04Z" fill="#FFE1F1"/>
<path d="M496.61 526.04C495.94 525.81 495.93 525.51 496.61 525.28C497.29 525.51 497.28 525.81 496.61 526.04Z" fill="#FFE1F1"/>
<path d="M503.49 526.04C502.82 525.81 502.81 525.51 503.49 525.28C504.17 525.51 504.16 525.81 503.49 526.04Z" fill="#FFE1F1"/>
<path d="M510.62 526.04C509.95 525.85 509.94 525.61 510.62 525.42C511.3 525.61 511.29 525.85 510.62 526.04Z" fill="#FFE1F1"/>
<path d="M517.5 526.04C516.83 525.85 516.82 525.61 517.5 525.42C518.18 525.61 518.17 525.85 517.5 526.04Z" fill="#FFE1F1"/>
<path d="M486.37 444.5C487.099 444.5 487.69 443.909 487.69 443.18C487.69 442.451 487.099 441.86 486.37 441.86C485.641 441.86 485.05 442.451 485.05 443.18C485.05 443.909 485.641 444.5 486.37 444.5Z" fill="#E20A29"/>
<path d="M506.45 510.85C507.179 510.85 507.77 510.259 507.77 509.53C507.77 508.801 507.179 508.21 506.45 508.21C505.721 508.21 505.13 508.801 505.13 509.53C505.13 510.259 505.721 510.85 506.45 510.85Z" fill="#E20A29"/>
<path d="M622.66 208.9H547.88V319.24H622.66V208.9Z" fill="#E20A29"/>
<path d="M578.33 226.65C573.19 231.84 558.2 222 558.2 232.46C558.2 242.92 561.56 250.66 559.93 258.21C558.3 265.76 562.88 284.29 559.61 288.93C556.34 293.57 554.94 309.17 564.19 309.75C573.44 310.33 594.12 299.87 599.56 302.78C605 305.69 614.25 297.55 614.25 294.06C614.25 290.57 610.4 275.66 610.44 267.77C610.46 262.68 611.29 245.76 612.91 234.47C613.75 228.62 609.94 223.18 604.46 222.36C596 221.1 584.23 220.71 578.34 226.65H578.33Z" fill="white"/>
<path d="M572.84 250.4C573.569 250.4 574.16 249.809 574.16 249.08C574.16 248.351 573.569 247.76 572.84 247.76C572.111 247.76 571.52 248.351 571.52 249.08C571.52 249.809 572.111 250.4 572.84 250.4Z" fill="#E20A29"/>
<path d="M595.61 246.95C596.339 246.95 596.93 246.359 596.93 245.63C596.93 244.901 596.339 244.31 595.61 244.31C594.881 244.31 594.29 244.901 594.29 245.63C594.29 246.359 594.881 246.95 595.61 246.95Z" fill="#E20A29"/>
<path d="M585.07 257.1C585.799 257.1 586.39 256.509 586.39 255.78C586.39 255.051 585.799 254.46 585.07 254.46C584.341 254.46 583.75 255.051 583.75 255.78C583.75 256.509 584.341 257.1 585.07 257.1Z" fill="#E20A29"/>
<path d="M573.68 264.36C574.409 264.36 575 263.769 575 263.04C575 262.311 574.409 261.72 573.68 261.72C572.951 261.72 572.36 262.311 572.36 263.04C572.36 263.769 572.951 264.36 573.68 264.36Z" fill="#E20A29"/>
<path d="M596.45 260.9C597.179 260.9 597.77 260.309 597.77 259.58C597.77 258.851 597.179 258.26 596.45 258.26C595.721 258.26 595.13 258.851 595.13 259.58C595.13 260.309 595.721 260.9 596.45 260.9Z" fill="#E20A29"/>
<path d="M585.91 271.06C586.639 271.06 587.23 270.469 587.23 269.74C587.23 269.011 586.639 268.42 585.91 268.42C585.181 268.42 584.59 269.011 584.59 269.74C584.59 270.469 585.181 271.06 585.91 271.06Z" fill="#E20A29"/>
<path d="M574.3 278.31C575.029 278.31 575.62 277.719 575.62 276.99C575.62 276.261 575.029 275.67 574.3 275.67C573.571 275.67 572.98 276.261 572.98 276.99C572.98 277.719 573.571 278.31 574.3 278.31Z" fill="#E20A29"/>
<path d="M597.07 274.85C597.799 274.85 598.39 274.259 598.39 273.53C598.39 272.801 597.799 272.21 597.07 272.21C596.341 272.21 595.75 272.801 595.75 273.53C595.75 274.259 596.341 274.85 597.07 274.85Z" fill="#E20A29"/>
<path d="M586.53 285.01C587.259 285.01 587.85 284.419 587.85 283.69C587.85 282.961 587.259 282.37 586.53 282.37C585.801 282.37 585.21 282.961 585.21 283.69C585.21 284.419 585.801 285.01 586.53 285.01Z" fill="#E20A29"/>
<path d="M575 292.27C575.729 292.27 576.32 291.679 576.32 290.95C576.32 290.221 575.729 289.63 575 289.63C574.271 289.63 573.68 290.221 573.68 290.95C573.68 291.679 574.271 292.27 575 292.27Z" fill="#E20A29"/>
<path d="M597.77 288.81C598.499 288.81 599.09 288.219 599.09 287.49C599.09 286.761 598.499 286.17 597.77 286.17C597.041 286.17 596.45 286.761 596.45 287.49C596.45 288.219 597.041 288.81 597.77 288.81Z" fill="#E20A29"/>
<path d="M587.23 298.96C587.959 298.96 588.55 298.369 588.55 297.64C588.55 296.911 587.959 296.32 587.23 296.32C586.501 296.32 585.91 296.911 585.91 297.64C585.91 298.369 586.501 298.96 587.23 298.96Z" fill="#E20A29"/>
<path d="M584.59 243.15C585.319 243.15 585.91 242.559 585.91 241.83C585.91 241.101 585.319 240.51 584.59 240.51C583.861 240.51 583.27 241.101 583.27 241.83C583.27 242.559 583.861 243.15 584.59 243.15Z" fill="#E20A29"/>
<path d="M571.52 238.85C572.249 238.85 572.84 238.259 572.84 237.53C572.84 236.801 572.249 236.21 571.52 236.21C570.791 236.21 570.2 236.801 570.2 237.53C570.2 238.259 570.791 238.85 571.52 238.85Z" fill="#E20A29"/>
<path d="M595.75 232.99C596.479 232.99 597.07 232.399 597.07 231.67C597.07 230.941 596.479 230.35 595.75 230.35C595.021 230.35 594.43 230.941 594.43 231.67C594.43 232.399 595.021 232.99 595.75 232.99Z" fill="#E20A29"/>
<path d="M605.99 243.15C606.719 243.15 607.31 242.559 607.31 241.83C607.31 241.101 606.719 240.51 605.99 240.51C605.261 240.51 604.67 241.101 604.67 241.83C604.67 242.559 605.261 243.15 605.99 243.15Z" fill="#E20A29"/>
<path d="M606.83 257.1C607.559 257.1 608.15 256.509 608.15 255.78C608.15 255.051 607.559 254.46 606.83 254.46C606.101 254.46 605.51 255.051 605.51 255.78C605.51 256.509 606.101 257.1 606.83 257.1Z" fill="#E20A29"/>
<path d="M607.45 271.06C608.179 271.06 608.77 270.469 608.77 269.74C608.77 269.011 608.179 268.42 607.45 268.42C606.721 268.42 606.13 269.011 606.13 269.74C606.13 270.469 606.721 271.06 607.45 271.06Z" fill="#E20A29"/>
<path d="M608.46 285.01C609.189 285.01 609.78 284.419 609.78 283.69C609.78 282.961 609.189 282.37 608.46 282.37C607.731 282.37 607.14 282.961 607.14 283.69C607.14 284.419 607.731 285.01 608.46 285.01Z" fill="#E20A29"/>
<path d="M565.72 286.33C566.449 286.33 567.04 285.739 567.04 285.01C567.04 284.281 566.449 283.69 565.72 283.69C564.991 283.69 564.4 284.281 564.4 285.01C564.4 285.739 564.991 286.33 565.72 286.33Z" fill="#E20A29"/>
<path d="M567.05 303.72C567.779 303.72 568.37 303.129 568.37 302.4C568.37 301.671 567.779 301.08 567.05 301.08C566.321 301.08 565.73 301.671 565.73 302.4C565.73 303.129 566.321 303.72 567.05 303.72Z" fill="#E20A29"/>
<path d="M563.98 257.1C564.709 257.1 565.3 256.509 565.3 255.78C565.3 255.051 564.709 254.46 563.98 254.46C563.251 254.46 562.66 255.051 562.66 255.78C562.66 256.509 563.251 257.1 563.98 257.1Z" fill="#E20A29"/>
<path d="M564.83 271.06C565.559 271.06 566.15 270.469 566.15 269.74C566.15 269.011 565.559 268.42 564.83 268.42C564.101 268.42 563.51 269.011 563.51 269.74C563.51 270.469 564.101 271.06 564.83 271.06Z" fill="#E20A29"/>
<path d="M563.98 244.47C564.709 244.47 565.3 243.879 565.3 243.15C565.3 242.421 564.709 241.83 563.98 241.83C563.251 241.83 562.66 242.421 562.66 243.15C562.66 243.879 563.251 244.47 563.98 244.47Z" fill="#E20A29"/>
<path d="M554.77 208.97C555.45 211.3 555.46 213.66 554.77 215.99C554.08 213.66 554.09 211.3 554.77 208.97Z" fill="#FFE1F1"/>
<path d="M561.66 208.97C562.34 211.3 562.35 213.66 561.66 215.99C560.97 213.66 560.98 211.3 561.66 208.97Z" fill="#FFE1F1"/>
<path d="M567.82 208.97C568.5 211.3 568.51 213.66 567.82 215.99C567.13 213.66 567.14 211.3 567.82 208.97Z" fill="#FFE1F1"/>
<path d="M574.71 208.97C575.39 211.3 575.4 213.66 574.71 215.99C574.02 213.66 574.03 211.3 574.71 208.97Z" fill="#FFE1F1"/>
<path d="M581.83 208.97C582.51 211.3 582.52 213.66 581.83 215.99C581.14 213.66 581.15 211.3 581.83 208.97Z" fill="#FFE1F1"/>
<path d="M588.72 208.97C589.4 211.3 589.41 213.66 588.72 215.99C588.03 213.66 588.04 211.3 588.72 208.97Z" fill="#FFE1F1"/>
<path d="M594.88 208.97C595.56 211.3 595.57 213.66 594.88 215.99C594.19 213.66 594.2 211.3 594.88 208.97Z" fill="#FFE1F1"/>
<path d="M601.77 208.97C602.45 211.3 602.46 213.66 601.77 215.99C601.08 213.66 601.09 211.3 601.77 208.97Z" fill="#FFE1F1"/>
<path d="M608.89 209.11C609.57 211.44 609.58 213.8 608.89 216.13C608.2 213.8 608.21 211.44 608.89 209.11Z" fill="#FFE1F1"/>
<path d="M615.78 209.11C616.46 211.44 616.47 213.8 615.78 216.13C615.09 213.8 615.1 211.44 615.78 209.11Z" fill="#FFE1F1"/>
<path d="M615.81 284.12C618.14 283.44 620.5 283.43 622.83 284.12C620.5 284.81 618.14 284.8 615.81 284.12Z" fill="#FFE1F1"/>
<path d="M615.81 277.24C618.14 276.56 620.5 276.55 622.83 277.24C620.5 277.93 618.14 277.92 615.81 277.24Z" fill="#FFE1F1"/>
<path d="M615.81 271.07C618.14 270.39 620.5 270.38 622.83 271.07C620.5 271.76 618.14 271.75 615.81 271.07Z" fill="#FFE1F1"/>
<path d="M615.81 264.19C618.14 263.51 620.5 263.5 622.83 264.19C620.5 264.88 618.14 264.87 615.81 264.19Z" fill="#FFE1F1"/>
<path d="M615.81 257.06C618.14 256.38 620.5 256.37 622.83 257.06C620.5 257.75 618.14 257.74 615.81 257.06Z" fill="#FFE1F1"/>
<path d="M615.81 250.18C618.14 249.5 620.5 249.49 622.83 250.18C620.5 250.87 618.14 250.86 615.81 250.18Z" fill="#FFE1F1"/>
<path d="M615.81 244.01C618.14 243.33 620.5 243.32 622.83 244.01C620.5 244.7 618.14 244.69 615.81 244.01Z" fill="#FFE1F1"/>
<path d="M615.81 237.13C618.14 236.45 620.5 236.44 622.83 237.13C620.5 237.82 618.14 237.81 615.81 237.13Z" fill="#FFE1F1"/>
<path d="M615.95 230C618.28 229.32 620.64 229.31 622.97 230C620.64 230.69 618.28 230.68 615.95 230Z" fill="#FFE1F1"/>
<path d="M615.95 223.12C618.28 222.44 620.64 222.43 622.97 223.12C620.64 223.81 618.28 223.8 615.95 223.12Z" fill="#FFE1F1"/>
<path d="M547.99 284.09C550.32 283.41 552.68 283.4 555.01 284.09C552.68 284.78 550.32 284.77 547.99 284.09Z" fill="#FFE1F1"/>
<path d="M547.99 277.2C550.32 276.52 552.68 276.51 555.01 277.2C552.68 277.89 550.32 277.88 547.99 277.2Z" fill="#FFE1F1"/>
<path d="M547.99 271.04C550.32 270.36 552.68 270.35 555.01 271.04C552.68 271.73 550.32 271.72 547.99 271.04Z" fill="#FFE1F1"/>
<path d="M547.99 264.15C550.32 263.47 552.68 263.46 555.01 264.15C552.68 264.84 550.32 264.83 547.99 264.15Z" fill="#FFE1F1"/>
<path d="M547.99 257.03C550.32 256.35 552.68 256.34 555.01 257.03C552.68 257.72 550.32 257.71 547.99 257.03Z" fill="#FFE1F1"/>
<path d="M547.99 250.14C550.32 249.46 552.68 249.45 555.01 250.14C552.68 250.83 550.32 250.82 547.99 250.14Z" fill="#FFE1F1"/>
<path d="M547.99 243.98C550.32 243.3 552.68 243.29 555.01 243.98C552.68 244.67 550.32 244.66 547.99 243.98Z" fill="#FFE1F1"/>
<path d="M547.99 237.09C550.32 236.41 552.68 236.4 555.01 237.09C552.68 237.78 550.32 237.77 547.99 237.09Z" fill="#FFE1F1"/>
<path d="M548.13 229.97C550.46 229.29 552.82 229.28 555.15 229.97C552.82 230.66 550.46 230.65 548.13 229.97Z" fill="#FFE1F1"/>
<path d="M548.13 223.08C550.46 222.4 552.82 222.39 555.15 223.08C552.82 223.77 550.46 223.76 548.13 223.08Z" fill="#FFE1F1"/>
<path d="M547.92 304.98C550.25 304.3 552.61 304.29 554.94 304.98C552.61 305.67 550.25 305.66 547.92 304.98Z" fill="#FFE1F1"/>
<path d="M548.06 297.86C550.39 297.18 552.75 297.17 555.08 297.86C552.75 298.55 550.39 298.54 548.06 297.86Z" fill="#FFE1F1"/>
<path d="M548.06 290.98C550.39 290.3 552.75 290.29 555.08 290.98C552.75 291.67 550.39 291.66 548.06 290.98Z" fill="#FFE1F1"/>
<path d="M615.74 305.02C618.07 304.34 620.43 304.33 622.76 305.02C620.43 305.71 618.07 305.7 615.74 305.02Z" fill="#FFE1F1"/>
<path d="M615.88 297.9C618.21 297.22 620.57 297.21 622.9 297.9C620.57 298.59 618.21 298.58 615.88 297.9Z" fill="#FFE1F1"/>
<path d="M615.88 291.01C618.21 290.33 620.57 290.32 622.9 291.01C620.57 291.7 618.21 291.69 615.88 291.01Z" fill="#FFE1F1"/>
<path d="M554.71 312.07C555.39 314.4 555.4 316.76 554.71 319.09C554.02 316.76 554.03 314.4 554.71 312.07Z" fill="#FFE1F1"/>
<path d="M561.59 312.07C562.27 314.4 562.28 316.76 561.59 319.09C560.9 316.76 560.91 314.4 561.59 312.07Z" fill="#FFE1F1"/>
<path d="M567.76 312.07C568.44 314.4 568.45 316.76 567.76 319.09C567.07 316.76 567.08 314.4 567.76 312.07Z" fill="#FFE1F1"/>
<path d="M574.64 312.07C575.32 314.4 575.33 316.76 574.64 319.09C573.95 316.76 573.96 314.4 574.64 312.07Z" fill="#FFE1F1"/>
<path d="M581.77 312.07C582.45 314.4 582.46 316.76 581.77 319.09C581.08 316.76 581.09 314.4 581.77 312.07Z" fill="#FFE1F1"/>
<path d="M588.65 312.07C589.33 314.4 589.34 316.76 588.65 319.09C587.96 316.76 587.97 314.4 588.65 312.07Z" fill="#FFE1F1"/>
<path d="M594.82 312.07C595.5 314.4 595.51 316.76 594.82 319.09C594.13 316.76 594.14 314.4 594.82 312.07Z" fill="#FFE1F1"/>
<path d="M601.7 312.07C602.38 314.4 602.39 316.76 601.7 319.09C601.01 316.76 601.02 314.4 601.7 312.07Z" fill="#FFE1F1"/>
<path d="M608.83 312.21C609.51 314.54 609.52 316.9 608.83 319.23C608.14 316.9 608.15 314.54 608.83 312.21Z" fill="#FFE1F1"/>
<path d="M615.71 312.21C616.39 314.54 616.4 316.9 615.71 319.23C615.02 316.9 615.03 314.54 615.71 312.21Z" fill="#FFE1F1"/>
<path d="M584.59 231.29C585.319 231.29 585.91 230.699 585.91 229.97C585.91 229.241 585.319 228.65 584.59 228.65C583.861 228.65 583.27 229.241 583.27 229.97C583.27 230.699 583.861 231.29 584.59 231.29Z" fill="#E20A29"/>
<path d="M604.67 297.64C605.399 297.64 605.99 297.049 605.99 296.32C605.99 295.591 605.399 295 604.67 295C603.941 295 603.35 295.591 603.35 296.32C603.35 297.049 603.941 297.64 604.67 297.64Z" fill="#E20A29"/>
<path d="M720.18 306.77H645.4V417.11H720.18V306.77Z" fill="#E20A29"/>
<path d="M675.85 324.52C670.71 329.71 655.72 319.87 655.72 330.33C655.72 340.79 659.08 348.53 657.45 356.08C655.82 363.63 660.4 382.16 657.13 386.8C653.86 391.44 652.46 407.04 661.71 407.62C670.96 408.2 691.64 397.74 697.08 400.65C702.52 403.56 711.77 395.42 711.77 391.93C711.77 388.44 707.92 373.53 707.96 365.64C707.98 360.55 708.81 343.63 710.43 332.34C711.27 326.49 707.46 321.05 701.98 320.23C693.52 318.97 681.75 318.58 675.86 324.52H675.85Z" fill="white"/>
<path d="M670.36 348.28C671.089 348.28 671.68 347.689 671.68 346.96C671.68 346.231 671.089 345.64 670.36 345.64C669.631 345.64 669.04 346.231 669.04 346.96C669.04 347.689 669.631 348.28 670.36 348.28Z" fill="#E20A29"/>
<path d="M693.13 344.82C693.859 344.82 694.45 344.229 694.45 343.5C694.45 342.771 693.859 342.18 693.13 342.18C692.401 342.18 691.81 342.771 691.81 343.5C691.81 344.229 692.401 344.82 693.13 344.82Z" fill="#E20A29"/>
<path d="M682.59 354.97C683.319 354.97 683.91 354.379 683.91 353.65C683.91 352.921 683.319 352.33 682.59 352.33C681.861 352.33 681.27 352.921 681.27 353.65C681.27 354.379 681.861 354.97 682.59 354.97Z" fill="#E20A29"/>
<path d="M671.2 362.23C671.929 362.23 672.52 361.639 672.52 360.91C672.52 360.181 671.929 359.59 671.2 359.59C670.471 359.59 669.88 360.181 669.88 360.91C669.88 361.639 670.471 362.23 671.2 362.23Z" fill="#E20A29"/>
<path d="M693.97 358.77C694.699 358.77 695.29 358.179 695.29 357.45C695.29 356.721 694.699 356.13 693.97 356.13C693.241 356.13 692.65 356.721 692.65 357.45C692.65 358.179 693.241 358.77 693.97 358.77Z" fill="#E20A29"/>
<path d="M683.43 368.93C684.159 368.93 684.75 368.339 684.75 367.61C684.75 366.881 684.159 366.29 683.43 366.29C682.701 366.29 682.11 366.881 682.11 367.61C682.11 368.339 682.701 368.93 683.43 368.93Z" fill="#E20A29"/>
<path d="M671.82 376.18C672.549 376.18 673.14 375.589 673.14 374.86C673.14 374.131 672.549 373.54 671.82 373.54C671.091 373.54 670.5 374.131 670.5 374.86C670.5 375.589 671.091 376.18 671.82 376.18Z" fill="#E20A29"/>
<path d="M694.59 372.73C695.319 372.73 695.91 372.139 695.91 371.41C695.91 370.681 695.319 370.09 694.59 370.09C693.861 370.09 693.27 370.681 693.27 371.41C693.27 372.139 693.861 372.73 694.59 372.73Z" fill="#E20A29"/>
<path d="M684.05 382.88C684.779 382.88 685.37 382.289 685.37 381.56C685.37 380.831 684.779 380.24 684.05 380.24C683.321 380.24 682.73 380.831 682.73 381.56C682.73 382.289 683.321 382.88 684.05 382.88Z" fill="#E20A29"/>
<path d="M672.52 390.14C673.249 390.14 673.84 389.549 673.84 388.82C673.84 388.091 673.249 387.5 672.52 387.5C671.791 387.5 671.2 388.091 671.2 388.82C671.2 389.549 671.791 390.14 672.52 390.14Z" fill="#E20A29"/>
<path d="M695.29 386.68C696.019 386.68 696.61 386.089 696.61 385.36C696.61 384.631 696.019 384.04 695.29 384.04C694.561 384.04 693.97 384.631 693.97 385.36C693.97 386.089 694.561 386.68 695.29 386.68Z" fill="#E20A29"/>
<path d="M684.75 396.84C685.479 396.84 686.07 396.249 686.07 395.52C686.07 394.791 685.479 394.2 684.75 394.2C684.021 394.2 683.43 394.791 683.43 395.52C683.43 396.249 684.021 396.84 684.75 396.84Z" fill="#E20A29"/>
<path d="M682.11 341.02C682.839 341.02 683.43 340.429 683.43 339.7C683.43 338.971 682.839 338.38 682.11 338.38C681.381 338.38 680.79 338.971 680.79 339.7C680.79 340.429 681.381 341.02 682.11 341.02Z" fill="#E20A29"/>
<path d="M669.04 336.73C669.769 336.73 670.36 336.139 670.36 335.41C670.36 334.681 669.769 334.09 669.04 334.09C668.311 334.09 667.72 334.681 667.72 335.41C667.72 336.139 668.311 336.73 669.04 336.73Z" fill="#E20A29"/>
<path d="M693.27 330.86C693.999 330.86 694.59 330.269 694.59 329.54C694.59 328.811 693.999 328.22 693.27 328.22C692.541 328.22 691.95 328.811 691.95 329.54C691.95 330.269 692.541 330.86 693.27 330.86Z" fill="#E20A29"/>
<path d="M703.51 341.02C704.239 341.02 704.83 340.429 704.83 339.7C704.83 338.971 704.239 338.38 703.51 338.38C702.781 338.38 702.19 338.971 702.19 339.7C702.19 340.429 702.781 341.02 703.51 341.02Z" fill="#E20A29"/>
<path d="M704.35 354.97C705.079 354.97 705.67 354.379 705.67 353.65C705.67 352.921 705.079 352.33 704.35 352.33C703.621 352.33 703.03 352.921 703.03 353.65C703.03 354.379 703.621 354.97 704.35 354.97Z" fill="#E20A29"/>
<path d="M704.97 368.93C705.699 368.93 706.29 368.339 706.29 367.61C706.29 366.881 705.699 366.29 704.97 366.29C704.241 366.29 703.65 366.881 703.65 367.61C703.65 368.339 704.241 368.93 704.97 368.93Z" fill="#E20A29"/>
<path d="M705.98 382.88C706.709 382.88 707.3 382.289 707.3 381.56C707.3 380.831 706.709 380.24 705.98 380.24C705.251 380.24 704.66 380.831 704.66 381.56C704.66 382.289 705.251 382.88 705.98 382.88Z" fill="#E20A29"/>
<path d="M663.24 384.2C663.969 384.2 664.56 383.609 664.56 382.88C664.56 382.151 663.969 381.56 663.24 381.56C662.511 381.56 661.92 382.151 661.92 382.88C661.92 383.609 662.511 384.2 663.24 384.2Z" fill="#E20A29"/>
<path d="M664.57 401.6C665.299 401.6 665.89 401.009 665.89 400.28C665.89 399.551 665.299 398.96 664.57 398.96C663.841 398.96 663.25 399.551 663.25 400.28C663.25 401.009 663.841 401.6 664.57 401.6Z" fill="#E20A29"/>
<path d="M661.5 354.97C662.229 354.97 662.82 354.379 662.82 353.65C662.82 352.921 662.229 352.33 661.5 352.33C660.771 352.33 660.18 352.921 660.18 353.65C660.18 354.379 660.771 354.97 661.5 354.97Z" fill="#E20A29"/>
<path d="M662.35 368.93C663.079 368.93 663.67 368.339 663.67 367.61C663.67 366.881 663.079 366.29 662.35 366.29C661.621 366.29 661.03 366.881 661.03 367.61C661.03 368.339 661.621 368.93 662.35 368.93Z" fill="#E20A29"/>
<path d="M661.5 342.34C662.229 342.34 662.82 341.749 662.82 341.02C662.82 340.291 662.229 339.7 661.5 339.7C660.771 339.7 660.18 340.291 660.18 341.02C660.18 341.749 660.771 342.34 661.5 342.34Z" fill="#E20A29"/>
<path d="M652.29 306.84C652.97 309.17 652.98 311.53 652.29 313.86C651.6 311.53 651.61 309.17 652.29 306.84Z" fill="#FFE1F1"/>
<path d="M659.18 306.84C659.86 309.17 659.87 311.53 659.18 313.86C658.49 311.53 658.5 309.17 659.18 306.84Z" fill="#FFE1F1"/>
<path d="M665.34 306.84C666.02 309.17 666.03 311.53 665.34 313.86C664.65 311.53 664.66 309.17 665.34 306.84Z" fill="#FFE1F1"/>
<path d="M672.23 306.84C672.91 309.17 672.92 311.53 672.23 313.86C671.54 311.53 671.55 309.17 672.23 306.84Z" fill="#FFE1F1"/>
<path d="M679.35 306.84C680.03 309.17 680.04 311.53 679.35 313.86C678.66 311.53 678.67 309.17 679.35 306.84Z" fill="#FFE1F1"/>
<path d="M686.24 306.84C686.92 309.17 686.93 311.53 686.24 313.86C685.55 311.53 685.56 309.17 686.24 306.84Z" fill="#FFE1F1"/>
<path d="M692.4 306.84C693.08 309.17 693.09 311.53 692.4 313.86C691.71 311.53 691.72 309.17 692.4 306.84Z" fill="#FFE1F1"/>
<path d="M699.29 306.84C699.97 309.17 699.98 311.53 699.29 313.86C698.6 311.53 698.61 309.17 699.29 306.84Z" fill="#FFE1F1"/>
<path d="M706.41 306.98C707.09 309.31 707.1 311.67 706.41 314C705.72 311.67 705.73 309.31 706.41 306.98Z" fill="#FFE1F1"/>
<path d="M713.3 306.98C713.98 309.31 713.99 311.67 713.3 314C712.61 311.67 712.62 309.31 713.3 306.98Z" fill="#FFE1F1"/>
<path d="M713.33 382C715.66 381.32 718.02 381.31 720.35 382C718.02 382.69 715.66 382.68 713.33 382Z" fill="#FFE1F1"/>
<path d="M713.33 375.11C715.66 374.43 718.02 374.42 720.35 375.11C718.02 375.8 715.66 375.79 713.33 375.11Z" fill="#FFE1F1"/>
<path d="M713.33 368.94C715.66 368.26 718.02 368.25 720.35 368.94C718.02 369.63 715.66 369.62 713.33 368.94Z" fill="#FFE1F1"/>
<path d="M713.33 362.06C715.66 361.38 718.02 361.37 720.35 362.06C718.02 362.75 715.66 362.74 713.33 362.06Z" fill="#FFE1F1"/>
<path d="M713.33 354.94C715.66 354.26 718.02 354.25 720.35 354.94C718.02 355.63 715.66 355.62 713.33 354.94Z" fill="#FFE1F1"/>
<path d="M713.33 348.05C715.66 347.37 718.02 347.36 720.35 348.05C718.02 348.74 715.66 348.73 713.33 348.05Z" fill="#FFE1F1"/>
<path d="M713.33 341.88C715.66 341.2 718.02 341.19 720.35 341.88C718.02 342.57 715.66 342.56 713.33 341.88Z" fill="#FFE1F1"/>
<path d="M713.33 335C715.66 334.32 718.02 334.31 720.35 335C718.02 335.69 715.66 335.68 713.33 335Z" fill="#FFE1F1"/>
<path d="M713.47 327.88C715.8 327.2 718.16 327.19 720.49 327.88C718.16 328.57 715.8 328.56 713.47 327.88Z" fill="#FFE1F1"/>
<path d="M713.47 320.99C715.8 320.31 718.16 320.3 720.49 320.99C718.16 321.68 715.8 321.67 713.47 320.99Z" fill="#FFE1F1"/>
<path d="M645.51 381.96C647.84 381.28 650.2 381.27 652.53 381.96C650.2 382.65 647.84 382.64 645.51 381.96Z" fill="#FFE1F1"/>
<path d="M645.51 375.07C647.84 374.39 650.2 374.38 652.53 375.07C650.2 375.76 647.84 375.75 645.51 375.07Z" fill="#FFE1F1"/>
<path d="M645.51 368.91C647.84 368.23 650.2 368.22 652.53 368.91C650.2 369.6 647.84 369.59 645.51 368.91Z" fill="#FFE1F1"/>
<path d="M645.51 362.02C647.84 361.34 650.2 361.33 652.53 362.02C650.2 362.71 647.84 362.7 645.51 362.02Z" fill="#FFE1F1"/>
<path d="M645.51 354.9C647.84 354.22 650.2 354.21 652.53 354.9C650.2 355.59 647.84 355.58 645.51 354.9Z" fill="#FFE1F1"/>
<path d="M645.51 348.01C647.84 347.33 650.2 347.32 652.53 348.01C650.2 348.7 647.84 348.69 645.51 348.01Z" fill="#FFE1F1"/>
<path d="M645.51 341.85C647.84 341.17 650.2 341.16 652.53 341.85C650.2 342.54 647.84 342.53 645.51 341.85Z" fill="#FFE1F1"/>
<path d="M645.51 334.96C647.84 334.28 650.2 334.27 652.53 334.96C650.2 335.65 647.84 335.64 645.51 334.96Z" fill="#FFE1F1"/>
<path d="M645.65 327.84C647.98 327.16 650.34 327.15 652.67 327.84C650.34 328.53 647.98 328.52 645.65 327.84Z" fill="#FFE1F1"/>
<path d="M645.65 320.95C647.98 320.27 650.34 320.26 652.67 320.95C650.34 321.64 647.98 321.63 645.65 320.95Z" fill="#FFE1F1"/>
<path d="M645.44 402.86C647.77 402.18 650.13 402.17 652.46 402.86C650.13 403.55 647.77 403.54 645.44 402.86Z" fill="#FFE1F1"/>
<path d="M645.58 395.73C647.91 395.05 650.27 395.04 652.6 395.73C650.27 396.42 647.91 396.41 645.58 395.73Z" fill="#FFE1F1"/>
<path d="M645.58 388.85C647.91 388.17 650.27 388.16 652.6 388.85C650.27 389.54 647.91 389.53 645.58 388.85Z" fill="#FFE1F1"/>
<path d="M713.26 402.89C715.59 402.21 717.95 402.2 720.28 402.89C717.95 403.58 715.59 403.57 713.26 402.89Z" fill="#FFE1F1"/>
<path d="M713.4 395.77C715.73 395.09 718.09 395.08 720.42 395.77C718.09 396.46 715.73 396.45 713.4 395.77Z" fill="#FFE1F1"/>
<path d="M713.4 388.88C715.73 388.2 718.09 388.19 720.42 388.88C718.09 389.57 715.73 389.56 713.4 388.88Z" fill="#FFE1F1"/>
<path d="M652.23 409.95C652.91 412.28 652.92 414.64 652.23 416.97C651.54 414.64 651.55 412.28 652.23 409.95Z" fill="#FFE1F1"/>
<path d="M659.11 409.95C659.79 412.28 659.8 414.64 659.11 416.97C658.42 414.64 658.43 412.28 659.11 409.95Z" fill="#FFE1F1"/>
<path d="M665.28 409.95C665.96 412.28 665.97 414.64 665.28 416.97C664.59 414.64 664.6 412.28 665.28 409.95Z" fill="#FFE1F1"/>
<path d="M672.16 409.95C672.84 412.28 672.85 414.64 672.16 416.97C671.47 414.64 671.48 412.28 672.16 409.95Z" fill="#FFE1F1"/>
<path d="M679.29 409.95C679.97 412.28 679.98 414.64 679.29 416.97C678.6 414.64 678.61 412.28 679.29 409.95Z" fill="#FFE1F1"/>
<path d="M686.17 409.95C686.85 412.28 686.86 414.64 686.17 416.97C685.48 414.64 685.49 412.28 686.17 409.95Z" fill="#FFE1F1"/>
<path d="M692.34 409.95C693.02 412.28 693.03 414.64 692.34 416.97C691.65 414.64 691.66 412.28 692.34 409.95Z" fill="#FFE1F1"/>
<path d="M699.22 409.95C699.9 412.28 699.91 414.64 699.22 416.97C698.53 414.64 698.54 412.28 699.22 409.95Z" fill="#FFE1F1"/>
<path d="M706.35 410.08C707.03 412.41 707.04 414.77 706.35 417.1C705.66 414.77 705.67 412.41 706.35 410.08Z" fill="#FFE1F1"/>
<path d="M713.23 410.08C713.91 412.41 713.92 414.77 713.23 417.1C712.54 414.77 712.55 412.41 713.23 410.08Z" fill="#FFE1F1"/>
<path d="M682.11 329.16C682.839 329.16 683.43 328.569 683.43 327.84C683.43 327.111 682.839 326.52 682.11 326.52C681.381 326.52 680.79 327.111 680.79 327.84C680.79 328.569 681.381 329.16 682.11 329.16Z" fill="#E20A29"/>
<path d="M702.19 395.52C702.919 395.52 703.51 394.929 703.51 394.2C703.51 393.471 702.919 392.88 702.19 392.88C701.461 392.88 700.87 393.471 700.87 394.2C700.87 394.929 701.461 395.52 702.19 395.52Z" fill="#E20A29"/>
<path d="M272.13 525.54H763.03" stroke="#E20A29" stroke-miterlimit="10"/>
<path d="M272.13 525.54V516.76" stroke="#E20A29" stroke-miterlimit="10"/>
<path d="M763.03 525.54V516.76" stroke="#E20A29" stroke-miterlimit="10"/>
<path d="M272.13 525.54V174.57" stroke="#E20A29" stroke-miterlimit="10"/>
<path d="M272.13 525.54H284.4" stroke="#E20A29" stroke-miterlimit="10"/>
<path d="M272.13 455.34H284.4" stroke="#E20A29" stroke-miterlimit="10"/>
<path d="M272.13 385.15H284.4" stroke="#E20A29" stroke-miterlimit="10"/>
<path d="M272.13 314.96H284.4" stroke="#E20A29" stroke-miterlimit="10"/>
<path d="M272.13 244.76H284.4" stroke="#E20A29" stroke-miterlimit="10"/>
<path d="M272.13 174.57H284.4" stroke="#E20A29" stroke-miterlimit="10"/>
<path d="M366.06 546.59H374.09L374.07 546.77C372.35 546.77 372.09 547.94 371.66 550.73L371.13 554.04C370.69 556.8 369.5 560.16 366.14 560.16C364.14 560.16 363.04 558.87 363.04 557.47C363.04 556.07 364.1 555.03 365.43 555.03C366.53 555.03 367.5 555.74 367.52 557.17C366.6 557.38 366.14 558 366.14 558.78C366.14 559.33 366.42 559.79 367.06 559.79C368.14 559.79 368.9 558.87 368.9 557.81C368.9 556.17 366.93 555.03 367.06 552.71C366.33 553.88 364.89 554.64 362.97 554.64C359.13 554.64 356.9 551.83 356.9 547.88C356.9 542.09 361.09 536.7 368.14 536.7C370.88 536.7 373.34 537.87 373.34 540.2C373.34 542.18 371.85 543.07 370.51 543.07C369.36 543.07 368.12 542.31 368.42 540.66C369.55 540.41 370.05 539.6 370.05 538.77C370.05 537.87 369.52 536.93 368.16 536.93C364.27 536.93 361.51 544.73 361.51 549.14C361.51 552.41 362.43 554.04 364.43 554.04C365.24 554.04 366.32 553.58 367.1 552.25C367.81 547.95 367.97 546.78 366.04 546.78L366.06 546.6V546.59Z" fill="#E20A29"/>
<path d="M387.45 546.43C387.45 550.25 384 553.67 379.91 553.67C376.62 553.67 374.34 551.49 374.34 548.45C374.34 544.52 377.72 541.21 381.86 541.21C385.17 541.21 387.45 543.39 387.45 546.43ZM383.24 544.06C383.24 542.7 382.99 541.44 381.84 541.44C379.31 541.44 378.55 548.48 378.55 550.87C378.55 552.23 378.8 553.45 379.93 553.45C382.48 553.45 383.24 546.78 383.24 544.07V544.06Z" fill="#E20A29"/>
<path d="M388.07 549.4C388.07 545.19 391.43 541.01 396.78 541.24L396.76 541.38C393.63 541.31 392.23 546.92 392.23 550.6C392.23 551.54 392.44 552.42 393.03 552.42C394.41 552.42 395.97 548.9 396.53 545.43L397.82 537.17C397.96 536.27 397.61 536.16 396.85 536.32V536.23C397.65 535.77 399.26 535.33 400.37 535.33C401.68 535.33 402.21 535.77 401.93 537.38L400.09 548.49C399.77 550.49 399.54 553.02 400.55 553.41V553.5C399.95 553.61 399.4 553.66 398.85 553.66C396.9 553.66 395.17 552.83 395.86 549.96L396.71 546.42L396.62 546.4C395.17 552.13 393.4 553.69 391.33 553.69C388.91 553.69 388.06 551.53 388.06 549.41L388.07 549.4Z" fill="#E20A29"/>
<path d="M402.29 549.95L403.51 543.1C403.67 542.2 403.33 542.09 402.54 542.25V542.16C403.34 541.7 404.95 541.26 406.06 541.26C407.51 541.26 407.78 541.88 407.53 543.31L406.61 548.51C406.1 551.41 406.06 553.02 407.07 553.41V553.5C406.47 553.61 405.92 553.66 405.37 553.66C403.44 553.66 401.76 552.88 402.29 549.96V549.95ZM404.52 540.29C405 539.53 405.23 537.78 404.54 536.91C405.09 535.9 406.15 535.32 407.09 535.32C407.96 535.32 409 535.78 409 537.07C409 538.86 406.93 540.45 404.56 540.36L404.51 540.29H404.52Z" fill="#E20A29"/>
<path d="M408.01 551.15C408.01 550.18 408.84 549.24 409.99 549.24C410.79 549.24 411.69 549.75 411.65 550.78C411.07 550.94 410.66 551.56 410.66 552.21C410.66 552.86 411.21 553.45 412.91 553.45C413.99 553.45 416.17 553.17 416.17 551.73C416.17 548.9 409 549.41 409 545.48C409 542.63 412.47 541.23 415.39 541.23C417.28 541.23 419.69 541.69 419.69 543.46C419.69 544.47 418.91 545.16 417.97 545.16C417.17 545.16 416.36 544.68 416.36 543.73C416.87 543.59 417.3 543.11 417.3 542.56C417.3 541.82 416.5 541.46 415.35 541.46C414.09 541.46 412.54 541.92 412.54 543.18C412.54 546.08 419.6 545.23 419.6 549.18C419.6 552.31 415.85 553.69 412.84 553.69C410.61 553.69 408.01 553.02 408.01 551.16V551.15Z" fill="#E20A29"/>
<path d="M460.41 540.26C464.9 539.95 468.24 542.31 468.24 546.75C468.24 553.37 464.24 557.35 458.26 557.35C457.2 557.35 456.05 557.21 454.88 556.96V556.78C455.32 556.85 455.71 556.87 456.1 556.87C461.62 556.87 463.6 550.98 463.6 544.64C463.6 541.28 462.31 540.43 461 540.43C459.62 540.43 458.93 541.12 458.54 543.6L456.56 556.25H450.05L450.07 556.07C451.79 556.07 452.23 554.81 452.65 552.11L453.85 544.27C454.31 541.23 457.67 540.59 459.62 540.5V540.48C456.58 540.48 454.1 538.23 451.23 538.23C447.97 538.23 448.17 541.47 450.33 541.47C450.95 541.47 451.59 541.17 451.94 540.55C452.91 541.01 453.23 541.79 453.23 542.53C453.23 544.32 451.76 545.22 450.26 545.22C448.63 545.22 446.93 544.18 446.93 542.07C446.93 539.7 448.7 538 451.23 538C452.7 538 454.06 538.57 455.39 539.13C456.77 539.7 458.13 540.26 459.62 540.26C460.13 540.26 460.38 540.05 460.38 539.73C460.38 539.41 460.15 539.25 459.9 539.25C459.74 539.25 459.62 539.32 459.51 539.43C459.23 539.25 459.14 538.95 459.14 538.72C459.14 538.01 459.78 537.62 460.41 537.62C461.04 537.62 461.63 537.99 461.63 538.75C461.63 539.56 461.14 539.94 460.43 540.28L460.41 540.26Z" fill="#E20A29"/>
<path d="M469.21 552.83L470.45 545.86C470.61 544.96 470.24 544.85 469.48 545.01V544.92C470.28 544.46 471.89 544.02 473 544.02C474.31 544.02 474.88 544.53 474.52 546.07L473.26 551.27H473.35C474.89 545.43 476.57 543.89 478.82 543.89C480.91 543.89 481.72 545.36 481.72 546.67C481.72 548.42 480.52 549.71 478.87 549.71C477.56 549.71 476.62 548.91 476.64 547.57C477.49 547.45 478.32 546.81 478.32 545.87C478.32 545.11 477.95 544.77 477.42 544.77C475.99 544.77 474.59 547.37 473.6 551.35C473.21 552.94 472.56 555.79 473.35 556.18V556.27C472.55 556.38 471.9 556.45 471.35 556.45C469.53 556.45 468.71 555.67 469.21 552.84V552.83Z" fill="#E20A29"/>
<path d="M481.88 552.71L483.1 545.86C483.26 544.96 482.92 544.85 482.13 545.01V544.92C482.93 544.46 484.54 544.02 485.65 544.02C487.1 544.02 487.37 544.64 487.12 546.07L486.2 551.27C485.69 554.17 485.65 555.78 486.66 556.17V556.26C486.06 556.37 485.51 556.42 484.96 556.42C483.03 556.42 481.35 555.64 481.88 552.72V552.71ZM484.11 543.05C484.59 542.29 484.82 540.54 484.13 539.67C484.68 538.66 485.74 538.08 486.68 538.08C487.55 538.08 488.59 538.54 488.59 539.83C488.59 541.62 486.52 543.21 484.15 543.12L484.1 543.05H484.11Z" fill="#E20A29"/>
<path d="M492.32 549.77C492.32 552.32 493.56 553.61 495.42 553.66C496.64 553.68 498.27 553.32 499.31 551.89L499.47 551.96C497.91 554.79 495.42 556.44 492.73 556.44C490.04 556.44 488.06 554.53 488.06 551.47C488.06 547.47 491.14 543.97 495.53 543.97C498.2 543.97 499.97 545.05 499.97 546.91C499.97 548.34 498.91 549.35 497.6 549.35C496.63 549.35 495.62 548.75 495.71 547.26C496.15 547.08 496.86 546.55 496.86 545.58C496.86 544.75 496.4 544.2 495.57 544.2C493.59 544.2 492.3 547.28 492.3 549.77H492.32Z" fill="#E20A29"/>
<path d="M507.41 553.26C507.09 551.44 506.9 550.2 505.98 550.2V550.11C507.54 549.58 509.61 547.99 509.61 546.04C509.61 545.49 509.43 545.21 509.01 545.21C507.75 545.21 506.21 547.9 505.35 551.33C504.96 552.92 504.32 555.77 505.1 556.16V556.25C504.3 556.36 503.65 556.43 503.1 556.43C501.28 556.43 500.5 555.65 500.96 552.82L503.08 539.92C503.22 539.02 502.87 538.91 502.11 539.07V538.98C502.91 538.52 504.53 538.08 505.63 538.08C506.94 538.08 507.45 538.56 507.15 540.13L505.01 551.26H505.1C506.64 545.4 508.89 543.97 510.96 543.97C513.03 543.97 513.6 545.23 513.6 546.09C513.6 548.71 510.24 549.42 506.31 550.11V550.13C507.37 550.02 508.33 549.99 509.09 550.11C511.09 550.41 511.6 552.13 512.06 553.7C512.47 555.1 512.73 555.93 513.62 556.16V556.25C512.77 556.41 511.83 556.57 510.93 556.57C509.04 556.57 507.87 555.97 507.39 553.26H507.41Z" fill="#E20A29"/>
<path d="M525.97 551.24C525.46 554.14 525.42 555.77 526.43 556.16V556.25C525.83 556.36 525.28 556.41 524.73 556.41C522.78 556.41 521.05 555.58 521.74 552.71L522.59 549.17L522.5 549.15C521.05 554.88 519.28 556.44 517.21 556.44C514.79 556.44 513.94 554.28 513.94 552.16C513.94 547.95 517.57 543.97 521.73 543.97C523.06 543.97 523.96 544.91 525.29 544.91C525.87 544.91 526.65 544.7 527.18 544.11L525.96 551.24H525.97ZM518.11 553.36C518.11 554.3 518.32 555.18 518.91 555.18C520.29 555.18 521.81 551.66 522.43 548.21L522.68 546.81C522.86 545.8 523.07 544.21 521.85 544.21C519.69 544.21 518.1 549.68 518.1 553.36H518.11Z" fill="#E20A29"/>
<path d="M552.64 547.38C555.1 547.43 559.4 548.09 559.4 551.93C559.4 554.83 556.66 557.38 551.74 557.38C550.61 557.38 549.35 557.24 547.99 556.94V556.76C548.47 556.83 548.93 556.88 549.37 556.88C553.62 556.88 554.77 553.45 554.77 551.27C554.77 549.61 553.99 547.45 551.69 547.45L551.71 547.27C554.52 547.27 555.39 545.18 555.39 542.6C555.39 541.11 554.75 540.42 553.64 540.42C552.72 540.42 552.03 541.11 551.64 543.59L549.66 556.24H543.15L543.17 556.06C544.89 556.06 545.33 554.8 545.75 552.1L546.95 544.26C547.41 541.22 550.77 540.58 552.72 540.49V540.47C549.68 540.47 547.2 538.22 544.33 538.22C541.06 538.22 541.27 541.46 543.43 541.46C544.05 541.46 544.7 541.16 545.04 540.54C546.01 541 546.33 541.78 546.33 542.52C546.33 544.31 544.86 545.21 543.36 545.21C541.73 545.21 540.03 544.18 540.03 542.06C540.03 539.69 541.8 537.99 544.33 537.99C545.8 537.99 547.16 538.56 548.49 539.12C549.87 539.69 551.23 540.25 552.72 540.25C553.23 540.25 553.48 540.04 553.48 539.72C553.48 539.4 553.25 539.24 553 539.24C552.84 539.24 552.72 539.31 552.61 539.42C552.33 539.24 552.24 538.94 552.24 538.71C552.24 538 552.88 537.61 553.5 537.61C554.12 537.61 554.72 537.98 554.72 538.74C554.72 539.54 554.19 539.94 553.54 540.26C553.97 540.2 554.7 540.15 555.06 540.15C557.61 540.15 559.77 541.14 559.77 543.3C559.77 546.7 555.61 547.26 552.62 547.37V547.42L552.64 547.38Z" fill="#E20A29"/>
<path d="M572.49 551.22C571.98 554.12 571.94 555.75 572.95 556.14V556.23C572.35 556.34 571.8 556.39 571.25 556.39C569.29 556.39 567.57 555.56 568.26 552.69L569.11 549.15L569.02 549.13C567.57 554.86 565.8 556.42 563.73 556.42C561.31 556.42 560.46 554.26 560.46 552.14C560.46 547.93 564.09 543.95 568.25 543.95C569.58 543.95 570.48 544.89 571.81 544.89C572.39 544.89 573.17 544.68 573.7 544.09L572.48 551.22H572.49ZM564.63 553.34C564.63 554.28 564.84 555.16 565.43 555.16C566.81 555.16 568.33 551.64 568.95 548.19L569.2 546.79C569.38 545.78 569.59 544.19 568.37 544.19C566.21 544.19 564.62 549.66 564.62 553.34H564.63Z" fill="#E20A29"/>
<path d="M580.8 553.24C580.48 551.42 580.29 550.18 579.37 550.18V550.09C580.93 549.56 583 547.97 583 546.02C583 545.47 582.82 545.19 582.4 545.19C581.14 545.19 579.6 547.88 578.74 551.31C578.35 552.9 577.71 555.75 578.49 556.14V556.23C577.69 556.34 577.04 556.41 576.49 556.41C574.67 556.41 573.89 555.63 574.35 552.8L576.47 539.9C576.61 539 576.26 538.89 575.5 539.05V538.96C576.3 538.5 577.92 538.06 579.02 538.06C580.33 538.06 580.84 538.54 580.54 540.11L578.4 551.24H578.49C580.03 545.38 582.28 543.95 584.35 543.95C586.42 543.95 586.99 545.21 586.99 546.07C586.99 548.69 583.63 549.4 579.7 550.09V550.11C580.76 550 581.72 549.97 582.48 550.09C584.48 550.39 584.99 552.11 585.45 553.68C585.86 555.08 586.12 555.91 587.01 556.14V556.23C586.16 556.39 585.22 556.55 584.32 556.55C582.43 556.55 581.26 555.95 580.78 553.24H580.8Z" fill="#E20A29"/>
<path d="M586.96 551.45C586.96 547.45 590.04 543.95 594.43 543.95C596.32 543.97 598.94 544.43 598.94 546.57C598.94 548.27 596.64 549.93 591.47 548.98L591.52 548.77C594.23 548.98 595.54 547.02 595.54 545.6C595.54 544.77 595.22 544.17 594.44 544.17C592.51 544.17 591.22 547.25 591.22 549.74C591.22 552.23 592.46 553.58 594.32 553.63C595.54 553.65 597.17 553.29 598.21 551.86L598.37 551.93C596.81 554.76 594.32 556.41 591.63 556.41C588.94 556.41 586.96 554.5 586.96 551.44V551.45Z" fill="#E20A29"/>
<path d="M599.89 552.69L601.98 539.9C602.12 539 601.77 538.89 601.01 539.05V538.96C601.81 538.5 603.43 538.06 604.53 538.06C605.84 538.06 606.32 538.54 606.05 540.11L604.12 551.24C603.61 554.14 603.66 555.75 604.67 556.14V556.23C604.07 556.34 603.52 556.39 602.97 556.39C601.01 556.39 599.41 555.61 599.89 552.69Z" fill="#E20A29"/>
<path d="M605.62 553.89C605.62 552.92 606.45 551.98 607.6 551.98C608.4 551.98 609.3 552.49 609.26 553.52C608.68 553.68 608.27 554.3 608.27 554.95C608.27 555.6 608.82 556.19 610.52 556.19C611.6 556.19 613.78 555.91 613.78 554.47C613.78 551.64 606.61 552.15 606.61 548.22C606.61 545.37 610.08 543.97 613 543.97C614.89 543.97 617.3 544.43 617.3 546.2C617.3 547.21 616.52 547.9 615.58 547.9C614.78 547.9 613.97 547.42 613.97 546.47C614.48 546.33 614.91 545.85 614.91 545.3C614.91 544.56 614.11 544.2 612.96 544.2C611.7 544.2 610.15 544.66 610.15 545.92C610.15 548.82 617.21 547.97 617.21 551.92C617.21 555.05 613.46 556.43 610.45 556.43C608.22 556.43 605.62 555.76 605.62 553.9V553.89Z" fill="#E20A29"/>
<path d="M618.52 551.45C618.52 547.45 621.6 543.95 625.99 543.95C627.88 543.97 630.5 544.43 630.5 546.57C630.5 548.27 628.2 549.93 623.03 548.98L623.08 548.77C625.79 548.98 627.1 547.02 627.1 545.6C627.1 544.77 626.78 544.17 626 544.17C624.07 544.17 622.78 547.25 622.78 549.74C622.78 552.23 624.02 553.58 625.88 553.63C627.1 553.65 628.73 553.29 629.77 551.86L629.93 551.93C628.37 554.76 625.88 556.41 623.19 556.41C620.5 556.41 618.52 554.5 618.52 551.44V551.45Z" fill="#E20A29"/>
<path d="M641.54 552.83C641.54 550.25 643.7 548.44 646.28 548.44C648.42 548.44 650.81 549.8 650.81 552.1C650.81 553.78 649.55 554.95 647.89 554.95C646.23 554.95 645.38 553.64 645.8 552.24C647.18 552.22 647.94 551.16 647.94 550.19C647.94 549.41 647.48 548.67 646.12 548.67C643.94 548.67 642.49 550.39 642.49 552.83C642.49 555.41 644.45 557.68 648.61 557.68C652.77 557.68 654.57 555.66 654.57 553.4C654.57 549.15 645.83 548.71 645.83 543.56C645.83 540.36 649.09 538.59 652.5 538.59C655.56 538.59 658.02 539.76 658.02 542.09C658.02 544.07 656.52 544.97 655.19 544.97C654.04 544.97 652.8 544.21 653.1 542.55C654.23 542.3 654.73 541.49 654.73 540.66C654.73 539.76 654.2 538.82 652.52 538.82C650.68 538.82 649.46 539.79 649.46 541.37C649.46 544.89 657.88 545.53 657.88 550.68C657.88 554.86 653.95 557.9 648.61 557.9C643.76 557.9 641.55 555.51 641.55 552.82L641.54 552.83Z" fill="#E20A29"/>
<path d="M670.91 550.37C670.43 553.27 670.36 554.9 671.37 555.29V555.38C670.77 555.5 670.22 555.54 669.67 555.54C667.71 555.54 666.13 554.76 666.59 551.84L667.53 545.95C667.71 544.87 667.67 544.34 667.09 544.34C665.83 544.34 664.28 547.03 663.43 550.46C663.04 552.05 662.39 554.9 663.18 555.29V555.38C662.38 555.5 661.73 555.56 661.18 555.56C659.36 555.56 658.54 554.78 659.04 551.95L660.28 544.98C660.44 544.08 660.07 543.97 659.31 544.13V544.04C660.11 543.58 661.72 543.14 662.83 543.14C664.14 543.14 664.71 543.65 664.35 545.19L663.09 550.39H663.18C664.72 544.53 666.97 543.1 669.04 543.1C671.92 543.1 671.73 545.52 671.46 547.1L670.91 550.37Z" fill="#E20A29"/>
<path d="M684.71 550.37C684.2 553.27 684.16 554.9 685.17 555.29V555.38C684.57 555.5 684.02 555.54 683.47 555.54C681.52 555.54 679.79 554.71 680.48 551.84L681.33 548.3L681.24 548.28C679.79 554.01 678.02 555.57 675.95 555.57C673.53 555.57 672.68 553.41 672.68 551.29C672.68 547.08 676.31 543.1 680.47 543.1C681.8 543.1 682.7 544.04 684.03 544.04C684.61 544.04 685.39 543.83 685.92 543.23L684.7 550.36L684.71 550.37ZM676.85 552.49C676.85 553.43 677.06 554.31 677.65 554.31C679.03 554.31 680.55 550.79 681.17 547.34L681.42 545.94C681.6 544.93 681.81 543.34 680.59 543.34C678.43 543.34 676.84 548.81 676.84 552.49H676.85Z" fill="#E20A29"/>
<path d="M690.64 548.9C690.64 551.45 691.88 552.74 693.74 552.79C694.96 552.81 696.59 552.45 697.63 551.02L697.79 551.09C696.23 553.92 693.74 555.57 691.05 555.57C688.36 555.57 686.38 553.66 686.38 550.6C686.38 546.6 689.46 543.1 693.85 543.1C696.52 543.1 698.29 544.18 698.29 546.04C698.29 547.47 697.23 548.48 695.92 548.48C694.95 548.48 693.94 547.88 694.03 546.39C694.47 546.21 695.18 545.68 695.18 544.71C695.18 543.88 694.72 543.33 693.89 543.33C691.91 543.33 690.62 546.41 690.62 548.89L690.64 548.9Z" fill="#E20A29"/>
<path d="M705.73 552.39C705.41 550.57 705.22 549.33 704.3 549.33V549.24C705.86 548.71 707.93 547.12 707.93 545.17C707.93 544.62 707.75 544.34 707.33 544.34C706.07 544.34 704.53 547.03 703.67 550.46C703.28 552.05 702.64 554.9 703.42 555.29V555.38C702.62 555.5 701.97 555.56 701.42 555.56C699.6 555.56 698.82 554.78 699.28 551.95L701.4 539.05C701.54 538.15 701.19 538.04 700.43 538.2V538.11C701.23 537.65 702.85 537.21 703.95 537.21C705.26 537.21 705.77 537.69 705.47 539.26L703.33 550.39H703.42C704.96 544.53 707.21 543.1 709.28 543.1C711.35 543.1 711.92 544.36 711.92 545.22C711.92 547.84 708.56 548.55 704.63 549.24V549.26C705.69 549.14 706.65 549.12 707.41 549.24C709.41 549.54 709.92 551.26 710.38 552.83C710.79 554.23 711.05 555.06 711.94 555.29V555.38C711.09 555.54 710.15 555.7 709.25 555.7C707.36 555.7 706.19 555.1 705.71 552.39H705.73Z" fill="#E20A29"/>
<path d="M712.36 553.04C712.36 552.07 713.19 551.13 714.34 551.13C715.14 551.13 716.04 551.64 716 552.67C715.42 552.83 715.01 553.45 715.01 554.1C715.01 554.75 715.56 555.34 717.26 555.34C718.34 555.34 720.52 555.06 720.52 553.62C720.52 550.79 713.35 551.3 713.35 547.37C713.35 544.52 716.82 543.12 719.74 543.12C721.63 543.12 724.04 543.58 724.04 545.35C724.04 546.36 723.26 547.05 722.32 547.05C721.52 547.05 720.71 546.57 720.71 545.62C721.22 545.48 721.65 545 721.65 544.45C721.65 543.71 720.85 543.35 719.7 543.35C718.44 543.35 716.89 543.81 716.89 545.07C716.89 547.97 723.95 547.12 723.95 551.07C723.95 554.2 720.2 555.58 717.19 555.58C714.96 555.58 712.36 554.91 712.36 553.05V553.04Z" fill="#E20A29"/>
<path d="M212.94 179.06C212.53 181.7 212.27 183.02 214.6 183.02L214.58 183.2H205.24L205.26 183.02C207.51 183.02 207.74 181.85 208.18 179.06L209.39 171.46C208.56 172.31 207.61 173.06 206.64 173.61L206.59 173.47C209.23 172.04 211.17 169.24 212.29 167.1H214.82L212.93 179.06H212.94Z" fill="#E20A29"/>
<path d="M217.56 176.01C221.18 171.94 230.32 171.39 230.32 176.6C230.32 180.37 226.43 183.38 221.56 183.38C219.72 183.38 215.97 182.87 215.97 180.16C215.97 178.57 217.19 177.31 218.75 177.31C219.88 177.31 220.8 178.05 220.68 179.38C219.88 179.77 219.42 180.53 219.42 181.38C219.42 182.51 220.43 183.2 221.58 183.2C223.67 183.2 225.28 181.22 225.28 178.65C225.28 174.86 220.2 174.81 217.21 176.47L219 171.18C219.55 169.57 220.4 166.99 222.73 166.99C224.43 166.99 226.27 168.39 228.57 168.39C229.9 168.39 230.92 167.91 231.35 166.92L231.49 166.94C230.66 169.52 229.35 172.25 226.43 172.25C224.27 172.25 221.67 170.78 219.99 170.78C219.7 170.78 219.49 170.81 219.28 170.9L217.55 176L217.56 176.01Z" fill="#E20A29"/>
<path d="M232.07 176.74C232.07 171.34 236.14 166.92 241.13 166.92C245.22 166.92 247.59 169.73 247.59 173.57C247.59 178.97 243.52 183.39 238.53 183.39C234.46 183.39 232.07 180.61 232.07 176.74ZM242.74 170.3C242.74 168.12 242.21 167.1 241.11 167.1C239.09 167.1 236.95 173.75 236.95 180C236.95 182.16 237.46 183.2 238.56 183.2C240.58 183.2 242.75 176.55 242.75 170.3H242.74Z" fill="#E20A29"/>
<path d="M248.7 176.74C248.7 171.34 252.77 166.92 257.76 166.92C261.85 166.92 264.22 169.73 264.22 173.57C264.22 178.97 260.15 183.39 255.16 183.39C251.09 183.39 248.7 180.61 248.7 176.74ZM259.37 170.3C259.37 168.12 258.84 167.1 257.74 167.1C255.72 167.1 253.58 173.75 253.58 180C253.58 182.16 254.09 183.2 255.19 183.2C257.21 183.2 259.38 176.55 259.38 170.3H259.37Z" fill="#E20A29"/>
<path d="M224.8 307.3C228.94 307.3 231.01 309.99 231.01 313.72C231.01 319.38 227.01 323.77 221.88 323.77C219.95 323.77 216.75 323.2 216.75 320.64C216.75 318.94 217.9 317.7 219.49 317.7C220.69 317.7 221.58 318.39 221.47 319.77C220.85 320.09 220.23 320.71 220.23 321.79C220.23 322.87 221.13 323.58 221.91 323.58C223.39 323.58 224.86 320.56 225.64 316.54C221.62 318.44 217.22 317.03 217.22 313.51C217.22 309.99 220.69 307.3 224.81 307.3H224.8ZM225.67 316.32C226 314.53 226.2 312.55 226.2 310.56C226.2 308.44 225.72 307.48 224.77 307.48C223.18 307.48 221.78 310.58 221.78 314.15C221.78 317 223.27 317.47 225.66 316.32H225.67Z" fill="#E20A29"/>
<path d="M232.07 317.12C232.07 311.72 236.14 307.3 241.13 307.3C245.22 307.3 247.59 310.11 247.59 313.95C247.59 319.35 243.52 323.77 238.53 323.77C234.46 323.77 232.07 320.99 232.07 317.12ZM242.74 310.68C242.74 308.5 242.21 307.48 241.11 307.48C239.09 307.48 236.95 314.13 236.95 320.38C236.95 322.54 237.46 323.58 238.56 323.58C240.58 323.58 242.75 316.93 242.75 310.68H242.74Z" fill="#E20A29"/>
<path d="M248.7 317.12C248.7 311.72 252.77 307.3 257.76 307.3C261.85 307.3 264.22 310.11 264.22 313.95C264.22 319.35 260.15 323.77 255.16 323.77C251.09 323.77 248.7 320.99 248.7 317.12ZM259.37 310.68C259.37 308.5 258.84 307.48 257.74 307.48C255.72 307.48 253.58 314.13 253.58 320.38C253.58 322.54 254.09 323.58 255.19 323.58C257.21 323.58 259.38 316.93 259.38 310.68H259.37Z" fill="#E20A29"/>
<path d="M230.44 387.72C230.44 391.08 226.97 393.93 222.85 393.93C218.73 393.93 216.64 391.24 216.64 387.51C216.64 381.85 220.64 377.46 225.77 377.46C227.7 377.46 230.9 378.03 230.9 380.59C230.9 382.29 229.75 383.53 228.16 383.53C226.96 383.53 226.07 382.84 226.18 381.46C226.8 381.14 227.42 380.52 227.42 379.44C227.42 378.36 226.52 377.65 225.74 377.65C224.26 377.65 222.79 380.67 222.01 384.69C226.03 382.79 230.43 384.2 230.43 387.72H230.44ZM222.87 393.74C224.46 393.74 225.86 390.64 225.86 387.07C225.86 384.22 224.37 383.75 221.97 384.9C221.64 386.69 221.44 388.67 221.44 390.66C221.44 392.78 221.92 393.74 222.86 393.74H222.87Z" fill="#E20A29"/>
<path d="M232.07 387.29C232.07 381.89 236.14 377.47 241.13 377.47C245.22 377.47 247.59 380.28 247.59 384.12C247.59 389.52 243.52 393.94 238.53 393.94C234.46 393.94 232.07 391.16 232.07 387.29ZM242.74 380.85C242.74 378.67 242.21 377.65 241.11 377.65C239.09 377.65 236.95 384.3 236.95 390.55C236.95 392.71 237.46 393.75 238.56 393.75C240.58 393.75 242.75 387.1 242.75 380.85H242.74Z" fill="#E20A29"/>
<path d="M248.7 387.29C248.7 381.89 252.77 377.47 257.76 377.47C261.85 377.47 264.22 380.28 264.22 384.12C264.22 389.52 260.15 393.94 255.16 393.94C251.09 393.94 248.7 391.16 248.7 387.29ZM259.37 380.85C259.37 378.67 258.84 377.65 257.74 377.65C255.72 377.65 253.58 384.3 253.58 390.55C253.58 392.71 254.09 393.75 255.19 393.75C257.21 393.75 259.38 387.1 259.38 380.85H259.37Z" fill="#E20A29"/>
<path d="M216.16 460.79C216.16 459.18 217.38 457.92 218.94 457.92C220.07 457.92 220.99 458.66 220.87 459.99C220.06 460.38 219.6 461.14 219.6 462.08C219.6 463.23 220.47 463.8 221.83 463.8C223.62 463.8 224.91 461.41 224.91 458.1C224.91 456.61 224.38 455.39 222.45 455.39H221.69L221.74 455.21H222.48C224.57 455.21 226.27 452.77 226.27 449.78C226.27 448.45 225.69 447.71 224.55 447.71C222.94 447.71 221.91 448.72 221.91 449.94C221.91 450.52 222.21 450.93 222.62 451.14C222.32 452.43 221.22 453.07 220.18 453.07C219.21 453.07 218.34 452.54 218.34 451.32C218.34 449.04 220.85 447.53 224.59 447.53C227.74 447.53 230.73 448.13 230.73 450.57C230.73 453.26 228.15 454.96 223.56 455.28V455.33C226.6 455.33 229.91 455.91 229.91 458.66C229.91 461.88 226.69 463.99 221.82 463.99C219.93 463.99 216.16 463.51 216.16 460.79Z" fill="#E20A29"/>
<path d="M231.84 457.34C231.84 451.94 235.91 447.52 240.9 447.52C244.99 447.52 247.36 450.33 247.36 454.17C247.36 459.57 243.29 463.99 238.3 463.99C234.23 463.99 231.84 461.21 231.84 457.34ZM242.51 450.9C242.51 448.72 241.98 447.7 240.88 447.7C238.86 447.7 236.72 454.35 236.72 460.6C236.72 462.76 237.23 463.8 238.33 463.8C240.35 463.8 242.52 457.15 242.52 450.9H242.51Z" fill="#E20A29"/>
<path d="M248.47 457.34C248.47 451.94 252.54 447.52 257.53 447.52C261.62 447.52 263.99 450.33 263.99 454.17C263.99 459.57 259.92 463.99 254.93 463.99C250.86 463.99 248.47 461.21 248.47 457.34ZM259.14 450.9C259.14 448.72 258.61 447.7 257.51 447.7C255.49 447.7 253.35 454.35 253.35 460.6C253.35 462.76 253.86 463.8 254.96 463.8C256.98 463.8 259.15 457.15 259.15 450.9H259.14Z" fill="#E20A29"/>
<path d="M248.7 527.65C248.7 522.25 252.77 517.83 257.76 517.83C261.85 517.83 264.22 520.64 264.22 524.48C264.22 529.88 260.15 534.3 255.16 534.3C251.09 534.3 248.7 531.52 248.7 527.65ZM259.37 521.21C259.37 519.03 258.84 518.01 257.74 518.01C255.72 518.01 253.58 524.66 253.58 530.91C253.58 533.07 254.09 534.11 255.19 534.11C257.21 534.11 259.38 527.46 259.38 521.21H259.37Z" fill="#E20A29"/>
<path d="M213.23 249.52C212.82 252.16 212.56 253.48 214.89 253.48L214.87 253.66H205.53L205.55 253.48C207.8 253.48 208.03 252.31 208.47 249.52L209.68 241.92C208.85 242.77 207.9 243.52 206.93 244.07L206.88 243.93C209.52 242.5 211.46 239.7 212.58 237.56H215.11L213.22 249.52H213.23Z" fill="#E20A29"/>
<path d="M230.12 248.11L230.28 248.13C229.45 250.73 228.16 253.83 225.08 253.83C222.55 253.83 217.08 251.16 216.14 252.45C216.07 252.84 216 253.21 215.98 253.65H215.82C216.16 249.26 219.43 247.44 222.21 245.67C224.92 243.95 226.44 241.76 226.44 239.58C226.44 238.36 225.82 237.56 224.55 237.56C223.01 237.56 221.79 238.71 221.79 240.11C221.79 240.75 222.11 241.12 222.53 241.37C222.21 242.7 221.08 243.44 219.93 243.44C218.64 243.44 217.91 242.73 217.91 241.55C217.91 238.33 222.14 237.36 224.58 237.36C228.93 237.36 231.04 238.6 231.04 240.72C231.04 243.25 228.58 245.3 224.3 246.35C221.91 246.94 219.26 247.43 217.53 249.51C218.45 248.52 219.64 248.21 220.78 248.21C223.03 248.21 225.17 249.68 227.61 249.68C228.87 249.68 229.68 249.2 230.12 248.09V248.11Z" fill="#E20A29"/>
<path d="M231.61 247.19C231.61 241.79 235.68 237.37 240.67 237.37C244.76 237.37 247.13 240.18 247.13 244.02C247.13 249.42 243.06 253.84 238.07 253.84C234 253.84 231.61 251.06 231.61 247.19ZM242.28 240.75C242.28 238.57 241.75 237.55 240.65 237.55C238.63 237.55 236.49 244.2 236.49 250.45C236.49 252.61 237 253.65 238.1 253.65C240.12 253.65 242.29 247 242.29 240.75H242.28Z" fill="#E20A29"/>
<path d="M248.24 247.19C248.24 241.79 252.31 237.37 257.3 237.37C261.39 237.37 263.76 240.18 263.76 244.02C263.76 249.42 259.69 253.84 254.7 253.84C250.63 253.84 248.24 251.06 248.24 247.19ZM258.91 240.75C258.91 238.57 258.38 237.55 257.28 237.55C255.26 237.55 253.12 244.2 253.12 250.45C253.12 252.61 253.63 253.65 254.73 253.65C256.75 253.65 258.92 247 258.92 240.75H258.91Z" fill="#E20A29"/>
</g>
<defs>
<clipPath id="clip0_51_724">
<rect width="1080" height="1080" fill="white"/>
</clipPath>
</defs>
</svg>
