<svg width="1080" height="1080" viewBox="0 0 1080 1080" fill="none" xmlns="http://www.w3.org/2000/svg">
<g clip-path="url(#clip0_51_1266)">
<path d="M1076.86 -1.38H-0.629883V1076.11H1076.86V-1.38Z" fill="#FFE1F1"/>
<path d="M855.61 600.44C905.65 445.02 820.23 278.46 664.81 228.42C509.39 178.38 342.83 263.8 292.79 419.22L855.61 600.45V600.44Z" fill="#E20A29"/>
<path d="M354.16 381.86C354.16 381.86 384.88 269.72 567.69 255.89L354.16 381.86Z" fill="white"/>
<path d="M704.94 248.8C724.099 248.8 739.63 233.269 739.63 214.11C739.63 194.951 724.099 179.42 704.94 179.42C685.781 179.42 670.25 194.951 670.25 214.11C670.25 233.269 685.781 248.8 704.94 248.8Z" fill="#E20A29"/>
<path d="M837.51 879.38C500.2 871.71 316.12 885.23 253.44 884.76C234.27 884.62 228.76 886.6 228.76 886.6C228.76 886.6 223.74 892.71 251.1 890.27L285.15 908.51H796.78L811.72 888.34C811.72 888.34 877.38 880.28 837.51 879.37V879.38Z" fill="#E20A29"/>
<path d="M454.56 817.52C528.505 817.52 588.45 757.575 588.45 683.63C588.45 609.685 528.505 549.74 454.56 549.74C380.615 549.74 320.67 609.685 320.67 683.63C320.67 757.575 380.615 817.52 454.56 817.52Z" fill="#E20A29"/>
<path d="M435.19 579.09C435.19 573.74 439.53 569.41 444.87 569.41C450.21 569.41 454.55 573.75 454.55 579.09" fill="#FFE1F1"/>
<path d="M416.88 584.31C415.43 579.16 418.42 573.81 423.57 572.36C428.72 570.91 434.07 573.9 435.52 579.05" fill="#FFE1F1"/>
<path d="M399.92 591.78C397.74 586.9 399.94 581.17 404.82 578.99C409.7 576.81 415.43 579.01 417.61 583.89" fill="#FFE1F1"/>
<path d="M385.33 604.01C381.91 599.9 382.46 593.8 386.57 590.37C390.68 586.95 396.78 587.5 400.21 591.61" fill="#FFE1F1"/>
<path d="M372.19 616.82C368.41 613.04 368.41 606.91 372.19 603.13C375.97 599.35 382.1 599.35 385.88 603.13" fill="#FFE1F1"/>
<path d="M362.18 632.67C357.67 629.79 356.36 623.8 359.24 619.3C362.12 614.8 368.11 613.48 372.61 616.36" fill="#FFE1F1"/>
<path d="M353.75 649.53C348.96 647.16 347 641.35 349.37 636.55C351.74 631.76 357.55 629.8 362.35 632.17" fill="#FFE1F1"/>
<path d="M350.16 667.56C344.95 666.35 341.71 661.14 342.93 655.93C344.15 650.72 349.35 647.48 354.56 648.7" fill="#FFE1F1"/>
<path d="M474.8 787.94C475.32 793.26 471.43 798 466.11 798.52C460.79 799.04 456.05 795.15 455.53 789.83" fill="#FFE1F1"/>
<path d="M491.88 783.13C493.33 788.28 490.34 793.63 485.19 795.08C480.04 796.53 474.69 793.54 473.24 788.39" fill="#FFE1F1"/>
<path d="M508.84 775.66C511.02 780.54 508.82 786.27 503.94 788.45C499.06 790.63 493.33 788.43 491.15 783.55" fill="#FFE1F1"/>
<path d="M523.44 763.43C526.86 767.54 526.31 773.64 522.2 777.07C518.09 780.49 511.99 779.94 508.56 775.83" fill="#FFE1F1"/>
<path d="M536.57 750.62C540.35 754.4 540.35 760.53 536.57 764.31C532.79 768.09 526.66 768.09 522.88 764.31" fill="#FFE1F1"/>
<path d="M546.58 734.77C551.09 737.65 552.4 743.64 549.52 748.14C546.64 752.64 540.65 753.96 536.15 751.08" fill="#FFE1F1"/>
<path d="M555.02 717.91C559.81 720.28 561.77 726.09 559.4 730.89C557.03 735.68 551.22 737.64 546.42 735.27" fill="#FFE1F1"/>
<path d="M558.6 699.88C563.81 701.09 567.05 706.3 565.83 711.51C564.61 716.72 559.41 719.96 554.2 718.74" fill="#FFE1F1"/>
<path d="M351.46 703.97C346.15 704.64 341.31 700.89 340.64 695.58C339.97 690.27 343.72 685.43 349.03 684.76" fill="#FFE1F1"/>
<path d="M356.71 721.97C351.56 723.42 346.21 720.43 344.76 715.28C343.31 710.13 346.3 704.78 351.45 703.33" fill="#FFE1F1"/>
<path d="M364.18 738.93C359.3 741.11 353.57 738.91 351.39 734.03C349.21 729.15 351.41 723.42 356.29 721.24" fill="#FFE1F1"/>
<path d="M376.41 753.53C372.3 756.95 366.2 756.4 362.77 752.29C359.34 748.18 359.9 742.08 364.01 738.65" fill="#FFE1F1"/>
<path d="M389.22 766.66C385.44 770.44 379.31 770.44 375.53 766.66C371.75 762.88 371.75 756.75 375.53 752.97" fill="#FFE1F1"/>
<path d="M405.07 776.67C402.19 781.18 396.2 782.49 391.7 779.61C387.19 776.73 385.88 770.74 388.76 766.24" fill="#FFE1F1"/>
<path d="M421.93 785.11C419.56 789.9 413.75 791.86 408.95 789.49C404.15 787.12 402.2 781.31 404.57 776.51" fill="#FFE1F1"/>
<path d="M439.96 788.69C438.75 793.9 433.54 797.14 428.33 795.92C423.12 794.7 419.88 789.5 421.1 784.29" fill="#FFE1F1"/>
<path d="M348.65 686.11C343.31 685.79 339.24 681.21 339.56 675.87C339.88 670.53 344.46 666.46 349.8 666.78" fill="#FFE1F1"/>
<path d="M457.26 789.42C456.95 794.76 452.38 798.84 447.04 798.54C441.7 798.23 437.62 793.66 437.92 788.32" fill="#FFE1F1"/>
<path d="M554.59 649.08C559.75 647.68 565.07 650.72 566.48 655.88C567.88 661.04 564.84 666.36 559.68 667.77" fill="#FFE1F1"/>
<path d="M536.17 617.65C540.52 614.54 546.57 615.55 549.68 619.9C552.79 624.25 551.78 630.3 547.43 633.41" fill="#FFE1F1"/>
<path d="M523 604.3C526.84 600.58 532.97 600.67 536.69 604.51C540.41 608.35 540.32 614.48 536.48 618.2" fill="#FFE1F1"/>
<path d="M508.38 592.91C511.65 588.67 517.73 587.89 521.96 591.16C526.2 594.43 526.98 600.51 523.71 604.74" fill="#FFE1F1"/>
<path d="M490.69 585.87C492.68 580.91 498.32 578.5 503.28 580.49C508.24 582.48 510.65 588.12 508.66 593.08" fill="#FFE1F1"/>
<path d="M473.18 580.38C474.72 575.26 480.11 572.35 485.24 573.88C490.37 575.41 493.27 580.81 491.74 585.94" fill="#FFE1F1"/>
<path d="M454.48 579.09C454.88 573.76 459.52 569.75 464.86 570.15C470.2 570.55 474.2 575.19 473.8 580.53" fill="#FFE1F1"/>
<path d="M547.12 632.04C551.97 629.79 557.73 631.89 559.98 636.74C562.23 641.59 560.13 647.35 555.28 649.6" fill="#FFE1F1"/>
<path d="M454.58 683.62L553.7 721.67C532.69 776.42 471.27 803.76 416.52 782.74C361.77 761.73 334.43 700.31 355.45 645.56C371.42 603.95 410.01 577.43 454.57 577.43V683.61L454.58 683.62Z" fill="#E20A29"/>
<path d="M454.58 683.62V577.44C513.22 577.44 560.76 624.98 560.76 683.62C560.76 697.69 558.75 708.53 553.71 721.67L454.59 683.62H454.58Z" fill="white"/>
<path d="M560.45 683.8C565.78 684.27 569.72 688.96 569.25 694.29C568.78 699.62 564.09 703.56 558.76 703.09" fill="#FFE1F1"/>
<path d="M559.73 666.39C565.07 666.16 569.59 670.3 569.82 675.65C570.05 680.99 565.91 685.51 560.56 685.74" fill="#FFE1F1"/>
<path d="M483.94 701.2C483.59 701.73 483.16 702.22 482.6 702.66C481.58 703.48 480.18 704.11 478.27 704.43C472.99 705.29 464.82 705.88 456.91 705.65C456.58 705.65 456.25 705.63 455.92 705.62C450.03 705.4 444.36 704.72 440.21 703.33C430.31 700.03 426.78 692.98 426.78 689.9C426.78 686.82 427.66 681.54 429.86 677.35C432.06 673.17 440.2 659.52 440.2 659.52C440.2 659.52 449.92 647.58 461.56 655.23C462.17 655.63 462.78 656.09 463.41 656.6C464.39 657.42 465.39 658.38 466.39 659.51C480.04 674.92 484.66 693.41 484.66 693.41C484.66 693.41 484.74 693.64 484.82 694.04C484.94 694.59 485.1 695.47 485.12 696.48C485.15 697.93 484.91 699.68 483.92 701.18L483.94 701.2Z" fill="#E20A29" stroke="#FFE1F1" stroke-width="0.91" stroke-miterlimit="10"/>
<path d="M451.503 679.325C451.79 678.827 451.104 677.894 449.97 677.239C448.837 676.585 447.685 676.457 447.398 676.955C447.111 677.452 447.797 678.386 448.93 679.04C450.064 679.695 451.216 679.822 451.503 679.325Z" fill="#FFE1F1"/>
<path d="M465.113 678.285C465.4 677.787 464.714 676.853 463.581 676.199C462.447 675.544 461.295 675.417 461.008 675.915C460.721 676.412 461.407 677.346 462.541 678C463.674 678.655 464.826 678.782 465.113 678.285Z" fill="#FFE1F1"/>
<path d="M445.776 687.847C446.064 687.35 445.377 686.416 444.244 685.762C443.11 685.107 441.959 684.98 441.671 685.477C441.384 685.975 442.07 686.908 443.204 687.563C444.337 688.217 445.489 688.345 445.776 687.847Z" fill="#FFE1F1"/>
<path d="M459.387 686.807C459.674 686.31 458.988 685.376 457.854 684.721C456.721 684.067 455.569 683.94 455.282 684.437C454.995 684.934 455.681 685.868 456.814 686.523C457.948 687.177 459.099 687.304 459.387 686.807Z" fill="#FFE1F1"/>
<path d="M469.401 689.128C469.688 688.631 469.002 687.697 467.868 687.042C466.735 686.388 465.583 686.261 465.296 686.758C465.009 687.255 465.695 688.189 466.828 688.844C467.962 689.498 469.114 689.625 469.401 689.128Z" fill="#FFE1F1"/>
<path d="M463.286 698.793C463.573 698.296 462.887 697.362 461.753 696.707C460.62 696.053 459.468 695.926 459.181 696.423C458.893 696.92 459.58 697.854 460.713 698.509C461.847 699.163 462.998 699.29 463.286 698.793Z" fill="#FFE1F1"/>
<path d="M477.297 695.685C477.584 695.188 476.898 694.254 475.765 693.599C474.631 692.945 473.48 692.818 473.192 693.315C472.905 693.813 473.591 694.746 474.725 695.401C475.858 696.055 477.01 696.183 477.297 695.685Z" fill="#FFE1F1"/>
<path d="M458.833 669.962C459.12 669.464 458.434 668.531 457.301 667.876C456.167 667.222 455.015 667.094 454.728 667.592C454.441 668.089 455.127 669.023 456.261 669.678C457.394 670.332 458.546 670.459 458.833 669.962Z" fill="#FFE1F1"/>
<path d="M475.058 679.34C475.345 678.843 474.659 677.909 473.525 677.254C472.392 676.6 471.24 676.473 470.953 676.97C470.665 677.467 471.352 678.401 472.485 679.056C473.619 679.71 474.77 679.837 475.058 679.34Z" fill="#FFE1F1"/>
<path d="M470.513 669.957C470.8 669.459 470.114 668.525 468.981 667.871C467.847 667.217 466.695 667.089 466.408 667.587C466.121 668.084 466.807 669.018 467.941 669.672C469.074 670.327 470.226 670.454 470.513 669.957Z" fill="#FFE1F1"/>
<path d="M439.375 696.525C439.662 696.027 438.976 695.094 437.842 694.439C436.708 693.785 435.557 693.657 435.27 694.155C434.982 694.652 435.668 695.586 436.802 696.24C437.936 696.895 439.087 697.022 439.375 696.525Z" fill="#FFE1F1"/>
<path d="M452.985 695.474C453.272 694.977 452.586 694.043 451.453 693.389C450.319 692.734 449.168 692.607 448.88 693.104C448.593 693.602 449.279 694.536 450.413 695.19C451.546 695.845 452.698 695.972 452.985 695.474Z" fill="#FFE1F1"/>
<path d="M457.276 705.398C457.564 704.9 456.877 703.967 455.744 703.312C454.61 702.658 453.459 702.53 453.171 703.028C452.884 703.525 453.57 704.459 454.704 705.114C455.837 705.768 456.989 705.895 457.276 705.398Z" fill="#FFE1F1"/>
<path d="M482.501 687.848C482.788 687.351 482.102 686.417 480.968 685.762C479.835 685.108 478.683 684.981 478.396 685.478C478.109 685.975 478.795 686.909 479.928 687.564C481.062 688.218 482.214 688.345 482.501 687.848Z" fill="#FFE1F1"/>
<path d="M473.952 702.658C474.239 702.16 473.553 701.226 472.42 700.572C471.286 699.917 470.134 699.79 469.847 700.288C469.56 700.785 470.246 701.719 471.38 702.373C472.513 703.028 473.665 703.155 473.952 702.658Z" fill="#FFE1F1"/>
<path d="M485.14 696.5C484.97 696.43 484.8 696.34 484.62 696.24C483.49 695.59 482.8 694.65 483.09 694.15C483.31 693.77 484.02 693.75 484.84 694.05C484.96 694.6 485.12 695.48 485.14 696.49V696.5Z" fill="#FFE1F1"/>
<path d="M483.94 701.2C483.59 701.73 483.16 702.22 482.6 702.66C482.41 702.58 482.22 702.49 482.04 702.38C480.91 701.72 480.22 700.79 480.51 700.29C480.8 699.79 481.95 699.92 483.08 700.57C483.41 700.76 483.7 700.97 483.94 701.2Z" fill="#FFE1F1"/>
<path d="M463.669 657.6C463.956 657.103 463.27 656.169 462.136 655.515C461.003 654.86 459.851 654.733 459.564 655.23C459.277 655.728 459.963 656.662 461.096 657.316C462.23 657.971 463.382 658.098 463.669 657.6Z" fill="#FFE1F1"/>
<path d="M446.68 703.984C446.967 703.487 446.281 702.553 445.148 701.898C444.014 701.244 442.862 701.117 442.575 701.614C442.288 702.112 442.974 703.045 444.108 703.7C445.241 704.354 446.393 704.482 446.68 703.984Z" fill="#FFE1F1"/>
<path d="M428.41 679.19C428.41 679.19 426.35 687.06 430.74 690.87C430.74 690.87 429.86 681.9 432.56 680.13C432.56 680.13 432.85 685.38 435.73 687.91C435.73 687.91 439.25 680.67 437.99 674.92C437.99 674.92 442 675.48 447.48 673.79C447.48 673.79 443.05 668.49 443.03 667.74C443.03 667.43 452.66 668.33 454.76 663.97C454.76 663.97 448.66 659.67 445.7 659.93C445.7 659.93 447.73 653.17 455.67 655.87C455.67 655.87 452.63 651.73 446.12 653.76C439.61 655.79 428.4 679.19 428.4 679.19H428.41Z" fill="#FFE1F1"/>
<path d="M100.11 539.22C112.88 533.2 126.84 537.65 126.84 548.84C126.84 560.03 115.82 568.55 102.75 568.55C89.68 568.55 83.04 560.01 83.04 548.18C83.04 530.22 95.74 516.28 112.02 516.28C118.15 516.28 128.3 518.1 128.3 526.21C128.3 531.61 124.65 535.55 119.61 535.55C115.81 535.55 112.97 533.36 113.33 528.98C115.3 527.96 117.27 525.99 117.27 522.56C117.27 519.13 114.42 516.87 111.94 516.87C107.24 516.87 102.57 526.46 100.1 539.22H100.11ZM102.82 567.97C107.86 567.97 112.31 558.12 112.31 546.8C112.31 537.74 107.58 536.27 99.98 539.9C98.92 545.59 98.3 551.87 98.3 558.19C98.3 564.91 99.83 567.97 102.83 567.97H102.82Z" fill="#E20A29"/>
<path d="M158.89 516.29C172.03 516.29 178.6 524.83 178.6 536.66C178.6 554.62 165.9 568.56 149.62 568.56C143.49 568.56 133.34 566.73 133.34 558.63C133.34 553.23 136.99 549.29 142.03 549.29C145.83 549.29 148.67 551.48 148.31 555.86C146.34 556.88 144.37 558.85 144.37 562.28C144.37 565.71 147.22 567.97 149.7 567.97C154.4 567.97 159.07 558.38 161.54 545.62C148.77 551.64 134.81 547.19 134.81 535.99C134.81 524.79 145.83 516.28 158.9 516.28L158.89 516.29ZM161.66 544.94C162.72 539.25 163.34 532.97 163.34 526.65C163.34 519.93 161.81 516.87 158.81 516.87C153.77 516.87 149.32 526.72 149.32 538.04C149.32 547.1 154.05 548.58 161.65 544.94H161.66Z" fill="#E20A29"/>
<path d="M179.85 567.97L226.35 516.87H227.08L180.58 567.97H179.85ZM182.92 530.81C182.92 522.71 189.56 516.28 197.96 516.28C204.82 516.28 209.13 520.44 209.13 526.43C209.13 534.53 202.42 540.96 194.09 540.96C187.23 540.96 182.92 536.8 182.92 530.81ZM201.53 523.36C201.53 519.86 200.65 516.86 197.88 516.86C193.94 516.86 190.51 524.89 190.51 533.87C190.51 537.45 191.39 540.37 194.16 540.37C198.03 540.37 201.53 532.49 201.53 523.36ZM197.81 558.4C197.81 550.3 204.45 543.87 212.85 543.87C219.71 543.87 224.02 548.03 224.02 554.02C224.02 562.12 217.38 568.55 208.98 568.55C202.12 568.55 197.81 564.39 197.81 558.4ZM216.43 550.95C216.43 547.45 215.55 544.45 212.78 544.45C208.84 544.45 205.41 552.48 205.41 561.46C205.41 564.96 206.29 567.96 209.06 567.96C213 567.96 216.43 559.93 216.43 550.95Z" fill="#E20A29"/>
<path d="M226.43 539.93H377.62V574.05V640.37" stroke="#FFE1F1" stroke-miterlimit="10"/>
<path d="M226.43 539.93H377.62V551.33V573.48" stroke="#E20A29" stroke-miterlimit="10"/>
<path d="M377.62 600.4V603.57V609.73" stroke="#E20A29" stroke-width="0.99" stroke-miterlimit="10"/>
<path d="M671.59 798.37C671.59 793.26 675.46 789.25 680.42 789.25C684 789.25 686.92 791.59 686.55 795.82C684 797.06 682.54 799.47 682.54 802.46C682.54 806.11 685.31 807.93 689.62 807.93C695.31 807.93 699.4 800.34 699.4 789.83C699.4 785.08 697.72 781.22 691.59 781.22H689.18L689.33 780.64H691.67C698.31 780.64 703.71 772.9 703.71 763.41C703.71 759.18 701.88 756.84 698.24 756.84C693.13 756.84 689.85 760.05 689.85 763.92C689.85 765.74 690.8 767.06 692.11 767.72C691.16 771.81 687.66 773.85 684.37 773.85C681.3 773.85 678.53 772.17 678.53 768.3C678.53 761.07 686.49 756.26 698.39 756.26C708.39 756.26 717.88 758.16 717.88 765.9C717.88 774.44 709.7 779.84 695.1 780.86V781.01C704.74 781.01 715.25 782.84 715.25 791.59C715.25 801.81 705.03 808.53 689.55 808.53C683.56 808.53 671.59 807 671.59 798.38V798.37Z" fill="#E20A29"/>
<path d="M743.2 794.79C741.89 803.18 741.08 807.35 748.46 807.35L748.39 807.93H718.75L718.82 807.35C725.97 807.35 726.7 803.63 728.09 794.79L731.92 770.66C729.28 773.36 726.27 775.75 723.2 777.49L723.05 777.05C731.44 772.52 737.58 763.62 741.15 756.83H749.18L743.19 794.79H743.2Z" fill="#E20A29"/>
<path d="M753.79 807.93L800.29 756.83H801.02L754.52 807.93H753.79ZM756.86 770.77C756.86 762.67 763.5 756.24 771.9 756.24C778.76 756.24 783.07 760.4 783.07 766.39C783.07 774.49 776.35 780.92 768.03 780.92C761.17 780.92 756.86 776.76 756.86 770.77ZM775.48 763.32C775.48 759.82 774.6 756.82 771.83 756.82C767.89 756.82 764.46 764.85 764.46 773.83C764.46 777.41 765.34 780.33 768.11 780.33C771.98 780.33 775.48 772.45 775.48 763.32ZM771.76 798.36C771.76 790.26 778.4 783.83 786.8 783.83C793.66 783.83 797.97 787.99 797.97 793.98C797.97 802.08 791.33 808.51 782.93 808.51C776.07 808.51 771.76 804.35 771.76 798.36ZM790.37 790.91C790.37 787.41 789.49 784.41 786.72 784.41C782.78 784.41 779.35 792.44 779.35 801.42C779.35 804.92 780.23 807.92 783 807.92C786.94 807.92 790.37 799.89 790.37 790.91Z" fill="#E20A29"/>
<path d="M531.22 648.74H719.25V747.21" stroke="#E20A29" stroke-miterlimit="10"/>
<path d="M557.62 648.74H583.59" stroke="#FFE1F1" stroke-width="1.02" stroke-miterlimit="10"/>
<path d="M829.42 798.03C830.32 801.04 830.78 802.24 832.34 802.24L832.32 802.42H823.37L823.39 802.24C825.71 802.24 825.25 800.26 824.63 798.08L824.41 797.3H819.83C817.3 801.47 814.6 804.5 811.13 804.5C808 804.5 805.75 802.91 805.75 799.9C805.75 797.3 807.91 795.48 810.49 795.48C812.63 795.48 815.02 796.84 815.02 799.14C815.02 800.82 813.76 801.99 812.1 801.99C810.44 801.99 809.59 800.68 810.01 799.28C811.39 799.26 812.15 798.2 812.15 797.23C812.15 796.45 811.69 795.71 810.33 795.71C808.15 795.71 806.7 797.43 806.7 799.85C806.7 802.45 808.17 804.27 811.14 804.27C817.26 804.27 820.94 794.54 825.79 785.87L829.42 798.04V798.03ZM824.35 797.06L822.87 791.82C821.91 793.66 820.95 795.44 819.98 797.06H824.35Z" fill="#E20A29"/>
<path d="M832.83 798.86L833.89 792.08C834.03 791.18 833.68 791.07 832.92 791.23V791.14C833.72 790.68 835.33 790.24 836.44 790.24C837.75 790.24 838.3 790.75 838.05 792.29L836.99 798.61C836.62 800.77 836.58 801.74 837.63 801.74C840.18 801.74 843.68 797.67 843.68 794.89C843.68 793.85 843.15 793.39 842.37 793.39C841.73 793.39 841.15 793.69 840.9 794.36C839.82 794.22 839.18 793.3 839.18 792.29C839.18 791.07 840.26 790.15 841.55 790.15C842.93 790.15 844.15 791.23 844.15 793.6C844.15 798.22 839.76 802.61 835.53 802.61C833.39 802.61 832.43 801.48 832.84 798.86H832.83Z" fill="#E20A29"/>
<path d="M863.05 795.36C863.05 799.18 859.6 802.6 855.51 802.6C852.22 802.6 849.94 800.42 849.94 797.38C849.94 793.45 853.32 790.14 857.46 790.14C860.77 790.14 863.05 792.32 863.05 795.36ZM858.84 792.99C858.84 791.63 858.59 790.37 857.44 790.37C854.91 790.37 854.15 797.41 854.15 799.8C854.15 801.16 854.4 802.38 855.53 802.38C858.08 802.38 858.84 795.71 858.84 793V792.99Z" fill="#E20A29"/>
<path d="M875.93 797.41C875.45 800.31 875.38 801.94 876.39 802.33V802.42C875.79 802.54 875.24 802.58 874.69 802.58C872.73 802.58 871.15 801.8 871.61 798.88L872.55 792.99C872.73 791.91 872.69 791.38 872.11 791.38C870.85 791.38 869.3 794.07 868.45 797.5C868.06 799.09 867.41 801.94 868.2 802.33V802.42C867.4 802.54 866.75 802.6 866.2 802.6C864.38 802.6 863.56 801.82 864.06 798.99L865.3 792.02C865.46 791.12 865.09 791.01 864.33 791.17V791.08C865.13 790.62 866.74 790.18 867.85 790.18C869.16 790.18 869.73 790.69 869.37 792.23L868.11 797.43H868.2C869.74 791.57 871.99 790.14 874.06 790.14C876.94 790.14 876.75 792.55 876.48 794.14L875.93 797.41Z" fill="#E20A29"/>
<path d="M877.5 804.97C877.5 803.82 878.33 802.88 879.59 802.88C880.65 802.88 881.57 803.66 881.5 804.95C880.9 805.04 880.35 805.57 880.35 806.24C880.35 806.84 880.76 807.57 882.12 807.57C884.28 807.57 884.53 805.59 884.81 804.26L886.63 795.31H886.54C885 801.22 882.95 802.6 880.88 802.6C878.01 802.6 878.01 800.19 878.26 798.6L879.34 792.02C879.48 791.12 879.13 791.01 878.37 791.17V791.08C879.17 790.62 880.78 790.18 881.89 790.18C883 790.18 883.48 790.5 883.48 791.51C883.48 792.52 882.17 799.14 882.12 800.29C882.1 800.96 882.37 801.35 882.83 801.35C884.09 801.35 885.43 798.66 886.28 795.23C886.67 793.64 887.32 790.79 886.53 790.4V790.31C887.33 790.2 887.98 790.13 888.53 790.13C890.35 790.13 891.15 790.91 890.67 793.74L889.2 802.36C888.63 805.74 886.16 807.79 882.12 807.79C879.31 807.79 877.5 806.71 877.5 804.96V804.97Z" fill="#E20A29"/>
<path d="M893.35 790.55H892.32L892.37 790.32C895.68 790.32 897.47 789.24 898.05 785.97H898.28L897.54 790.32H899.15L899.1 790.55H897.51L896.36 797.52C895.85 800.65 895.83 801.94 897.07 802.33V802.42C896.24 802.54 895.69 802.58 895.14 802.58C893.18 802.58 891.6 801.8 892.06 798.88L893.35 790.56V790.55Z" fill="#E20A29"/>
<path d="M899.76 790.55H898.73L898.78 790.32C902.09 790.32 903.88 789.24 904.46 785.97H904.69L903.95 790.32H905.56L905.51 790.55H903.92L902.77 797.52C902.26 800.65 902.24 801.94 903.48 802.33V802.42C902.65 802.54 902.1 802.58 901.55 802.58C899.59 802.58 898.01 801.8 898.47 798.88L899.76 790.56V790.55Z" fill="#E20A29"/>
<path d="M905.03 798.88L906.25 792.03C906.41 791.13 906.07 791.02 905.28 791.18V791.09C906.08 790.63 907.69 790.19 908.8 790.19C910.25 790.19 910.52 790.81 910.27 792.24L909.35 797.44C908.84 800.34 908.8 801.95 909.81 802.34V802.43C909.21 802.55 908.66 802.59 908.11 802.59C906.18 802.59 904.5 801.81 905.03 798.89V798.88ZM907.26 789.22C907.74 788.46 907.97 786.71 907.28 785.84C907.83 784.83 908.89 784.25 909.83 784.25C910.7 784.25 911.74 784.71 911.74 786C911.74 787.79 909.67 789.38 907.3 789.29L907.25 789.22H907.26Z" fill="#E20A29"/>
<path d="M910.64 804.97C910.64 803.82 911.47 802.88 912.73 802.88C913.79 802.88 914.71 803.66 914.64 804.95C914.04 805.04 913.49 805.57 913.49 806.24C913.49 806.84 913.9 807.57 915.26 807.57C917.42 807.57 917.68 805.59 917.95 804.26L919.77 795.34L919.68 795.32C918.23 801.05 916.46 802.61 914.39 802.61C911.97 802.61 911.12 800.45 911.12 798.33C911.12 794.12 914.75 790.17 918.91 790.17C920.24 790.17 921.14 791.09 922.47 791.09C923.05 791.09 923.83 790.88 924.36 790.29L922.34 802.39C921.79 805.75 919.3 807.82 915.26 807.82C912.46 807.82 910.64 806.74 910.64 804.99V804.97ZM919.61 794.37L919.86 792.97C920.04 791.96 920.25 790.39 919.03 790.39C916.87 790.39 915.28 795.84 915.28 799.52C915.28 800.46 915.49 801.34 916.08 801.34C917.46 801.34 918.98 797.82 919.6 794.37H919.61Z" fill="#E20A29"/>
<path d="M937.02 797.41C936.54 800.31 936.47 801.94 937.48 802.33V802.42C936.88 802.54 936.33 802.58 935.78 802.58C933.82 802.58 932.24 801.8 932.7 798.88L933.64 792.99C933.82 791.91 933.78 791.38 933.2 791.38C931.94 791.38 930.4 794.07 929.54 797.5C929.15 799.09 928.51 801.94 929.29 802.33V802.42C928.49 802.54 927.84 802.6 927.29 802.6C925.47 802.6 924.69 801.82 925.15 798.99L927.27 786.09C927.41 785.19 927.06 785.08 926.3 785.24V785.15C927.1 784.69 928.72 784.25 929.82 784.25C931.13 784.25 931.64 784.73 931.34 786.3L929.2 797.43H929.29C930.83 791.57 933.08 790.14 935.15 790.14C938.02 790.14 937.84 792.55 937.56 794.14L937.01 797.41H937.02Z" fill="#E20A29"/>
<path d="M938.7 797.64C938.7 793.64 941.78 790.14 946.17 790.14C948.06 790.16 950.68 790.62 950.68 792.76C950.68 794.46 948.38 796.12 943.21 795.18L943.26 794.97C945.97 795.18 947.28 793.22 947.28 791.8C947.28 790.97 946.96 790.37 946.18 790.37C944.25 790.37 942.96 793.45 942.96 795.94C942.96 798.43 944.2 799.78 946.06 799.83C947.28 799.85 948.91 799.49 949.95 798.06L950.11 798.13C948.55 800.96 946.06 802.61 943.37 802.61C940.68 802.61 938.7 800.7 938.7 797.64Z" fill="#E20A29"/>
<path d="M952.71 790.55H951.68L951.73 790.32C955.04 790.32 956.83 789.24 957.41 785.97H957.64L956.9 790.32H958.51L958.46 790.55H956.87L955.72 797.52C955.21 800.65 955.19 801.94 956.43 802.33V802.42C955.6 802.54 955.05 802.58 954.5 802.58C952.54 802.58 950.96 801.8 951.42 798.88L952.71 790.56V790.55Z" fill="#E20A29"/>
<path d="M957.42 797.64C957.42 793.64 960.5 790.14 964.89 790.14C966.78 790.16 969.4 790.62 969.4 792.76C969.4 794.46 967.1 796.12 961.93 795.18L961.98 794.97C964.69 795.18 966 793.22 966 791.8C966 790.97 965.68 790.37 964.9 790.37C962.97 790.37 961.68 793.45 961.68 795.94C961.68 798.43 962.92 799.78 964.78 799.83C966 799.85 967.63 799.49 968.67 798.06L968.83 798.13C967.27 800.96 964.78 802.61 962.09 802.61C959.4 802.61 957.42 800.7 957.42 797.64Z" fill="#E20A29"/>
<path d="M970.26 798.99L971.5 792.02C971.66 791.12 971.29 791.01 970.53 791.17V791.08C971.33 790.62 972.94 790.18 974.05 790.18C975.36 790.18 975.93 790.69 975.57 792.23L974.31 797.43H974.4C975.94 791.59 977.62 790.05 979.87 790.05C981.96 790.05 982.77 791.52 982.77 792.83C982.77 794.58 981.57 795.87 979.92 795.87C978.61 795.87 977.67 795.07 977.69 793.73C978.54 793.62 979.37 792.97 979.37 792.03C979.37 791.27 979 790.93 978.47 790.93C977.04 790.93 975.64 793.53 974.65 797.51C974.26 799.1 973.61 801.95 974.4 802.34V802.43C973.6 802.55 972.95 802.61 972.4 802.61C970.58 802.61 969.76 801.83 970.26 799V798.99Z" fill="#E20A29"/>
</g>
<defs>
<clipPath id="clip0_51_1266">
<rect width="1080" height="1080" fill="white"/>
</clipPath>
</defs>
</svg>
